<?xml version="1.0" encoding="utf-8"?>
<!-- Generator: Adobe Illustrator 19.1.1, SVG Export Plug-In . SVG Version: 6.00 Build 0)  -->
<svg version="1.1" id="Calque_1" xmlns="http://www.w3.org/2000/svg" xmlns:xlink="http://www.w3.org/1999/xlink" x="0px" y="0px"
	 viewBox="0 0 144.6 125.7" style="enable-background:new 0 0 144.6 125.7;" xml:space="preserve">
<style type="text/css">
	.st0{fill:#FFFFFF;}
	.st1{fill:none;stroke:#000000;stroke-width:0;stroke-linecap:round;stroke-linejoin:round;}
</style>
<g>
	<g id="XMLID_14_">
		<g>
			<path class="st0" d="M122.1,58.2c0.1,0,0.3-0.1,0.6-0.3c-0.4-0.1-0.6-0.2-1-0.3C121.9,58.1,121.9,58.2,122.1,58.2z M122.6,58.8
				c-1.6,0.4-5.2,1.7-7.7,1.7c-0.8,0-1.5-0.2-2-0.6c0,0,0-0.1-0.1-0.1c0,0,0,0,0,0.1c-0.1-0.2-0.1-0.4-0.2-0.7l0.4-0.7
				c0.1,0.1,0.2,0.1,0.3,0.2c0,0,0,0,0-0.1c0.1-0.6-0.1-0.8-0.4-0.8l0.6-1.2c0.6-0.3,0.8-0.7,0.8-1.2l0-0.6c1.3,0.1,2.7,0.2,4,0.2
				c2.4,0.1,4.9,0.3,7.3,0.5c2.6,0.2,6.1-0.2,8.5,0.7C130.4,57.2,126.4,57.9,122.6,58.8z M114.3,58.4l0.5-0.5c0,0,0,0,0,0
				L114.3,58.4L114.3,58.4z M114.3,58.4l0.5-0.5c0,0,0,0,0,0L114.3,58.4L114.3,58.4C114.3,58.4,114.3,58.4,114.3,58.4z"/>
			<path class="st0" d="M22.7,94.4c9.8,13.6,25.8,22.5,43.9,22.5c29.8,0,54.1-24.3,54.1-54.1c0-0.2,0-0.4,0-0.6
				c0.4-0.1,0.7-0.2,1-0.3c0.6-0.2,1.2-0.4,1.6-0.4c1.9-0.4,3.9-0.8,5.8-1.2c0,0.9,0.1,1.7,0.1,2.6c0,34.5-28.1,62.6-62.6,62.6
				S4,97.4,4,62.9c0-3.1,0.2-6.1,0.6-9l1.6,0.6l6.5,2.5c-0.2,1.9-0.3,3.9-0.3,5.9C12.5,74.6,16.2,85.5,22.7,94.4z"/>
			<path class="st0" d="M66.6,8.8c-16.3,0-31,7.3-40.9,18.7c-3.1-0.8-6.2-1.5-9.3-2.1C27.8,10.1,46.1,0.3,66.6,0.3
				c31.1,0,57,22.8,61.8,52.6c-0.1,0-0.1,0-0.2,0c-0.8,0-1.6,0-2.3-0.1c-0.9-0.1-1.9-0.1-2.8-0.2c-1.1-0.1-2.3-0.2-3.5-0.2
				C114.7,27.5,92.8,8.8,66.6,8.8z"/>
			<path class="st0" d="M50.5,89.3c0.3,0,0.4-0.2,0.3-0.7c-0.2,0.2-0.4,0.4-0.6,0.6C50.3,89.3,50.4,89.3,50.5,89.3z M49.5,66.6
				C49.5,66.6,49.5,66.6,49.5,66.6c0-0.1,0.1-0.1,0.1-0.2c-0.2-0.2-0.4-0.3-0.7-0.3c0,0.1,0,0.1-0.1,0.2
				C49,66.4,49.2,66.5,49.5,66.6C49.4,66.6,49.5,66.6,49.5,66.6z M47.4,66.4c-0.3,0-0.5-0.1-0.7-0.4c-0.4,0.4-0.2,0.8,0.6,1.2
				c0.2-0.4,0.3-0.6,0.5-1C47.7,66.4,47.6,66.4,47.4,66.4z M37,61.4C37,61.5,37,61.5,37,61.4c-0.4,0.2-0.6,0.4-0.9,0.5
				c0.1,0.1,0.2,0.2,0.5,0.6C36.9,62.2,37,61.9,37,61.4z M36.9,86.1c0.2-0.3,0.2-0.6-0.2-0.7C36.5,85.7,36.6,85.9,36.9,86.1z
				 M86.9,90.7c0.2,0,0.4,0,0.7-0.1c-0.6-0.2-1.1-0.4-1.6-0.5C86.4,90.5,86.5,90.7,86.9,90.7z M83.2,87.3c0.4-0.6,0.4-0.6-0.1-1.1
				c0.1,0.1,0.1,0.1,0.1,0.1c0.1,0-0.1-0.3-0.2-0.3c0,0-0.1,0-0.1,0.1c0-0.4-0.3-0.7-0.7-0.9C82.3,85.4,82.8,87.1,83.2,87.3z
				 M74.3,79.2c-0.4-0.1-0.7-0.2-1.1-0.3c0.2,0.4,0.3,0.6,0.5,0.9C73.9,79.5,74.1,79.4,74.3,79.2z M62.3,51.2c3,0.3,6,0.8,9.1,0.8
				c0.1-1.4-13.3-7.9-15.2-9c0,0-0.1,0-0.1,0c0.8,1.6,1.6,3.3,2.4,4.9C59.6,50.3,59.6,50.9,62.3,51.2z M35.1,60.9
				C35.1,60.9,35.1,60.9,35.1,60.9C35.1,60.9,35.1,60.9,35.1,60.9C35.1,60.9,35.1,60.9,35.1,60.9C35,60.9,35,60.9,35.1,60.9
				c-0.2,0-0.3-0.1-0.4-0.2c0,0-0.1-0.1-0.1-0.1c0,0-0.1-0.1-0.1-0.1c-0.2-0.2-0.3-0.3-0.7-0.4h0c0,0.5-0.2,1.1,0.2,1.4
				c0.1,0.1,0.3,0.2,0.7,0.2h0C34.8,61.4,34.9,61.2,35.1,60.9C35.1,60.9,35.1,60.9,35.1,60.9C35.1,61,35.1,61,35.1,60.9
				c0.1,0.2,0.3,0.3,0.5,0.4c0,0,0,0,0,0c0,0,0.1,0,0.1,0c0,0,0,0,0,0c0,0,0,0,0,0c0.2-0.6-0.2-0.6-0.5-0.8v0c0,0,0,0,0,0
				c0,0.1-0.1,0.1-0.1,0.2c0,0,0,0,0,0C35.1,60.7,35.1,60.8,35.1,60.9C35.1,60.8,35.1,60.8,35.1,60.9z M45.3,66.1
				c-0.1-0.2-0.2-0.4-0.3-0.6C44.8,65.9,44.8,65.9,45.3,66.1z M42.6,78.4c-2.4-2-5.2-6.9-7.5-7.7c-1.2-0.4-2.7-0.6-4.3-0.6
				c-3.2,0-6.9,0.6-9.4,0.6c2.7-3.5,5.3-6.9,8-10.4c-7.3-2.8-14.6-5.6-22.1-8.4c6.5-3.3,13.9-4.7,20.4-7.8
				c-4.4-5.4-8.7-10.6-13.2-16.1c8.2,1.4,16.3,3.9,24.4,5.9c4.3,1,8.5,2.3,12.8,3.1c3.4,0.7,6.8,0.3,10.2,1.3
				c3.3,0.9,6.4,2.5,8.9,4.8c2.8,2.5,3.7,5.8,6,8.3c1.7,1.9,4.8,1.5,7.5,1.6c4.2,0.3,8.5,0.5,12.7,0.8c0,0.4,0,0.7-0.1,1.3
				c0.6-1,1.8-1.4,3.2-1.4c1.8,0,4,0.5,5.4,0.6c3,0.2,5.9,0.4,8.9,0.6l0,0.6c0,0,0,0-0.1,0c-0.9,0-0.6,0.7-0.7,1.2l-0.6,1.2
				c-0.2,0-0.4,0.1-0.7,0.1c0.3,0.2,0.5,0.3,0.8,0.5l-0.4,0.7c-0.6,0.4-0.8,1.3-1.3,1.6c-1,0.8-2.6,0.8-3.9,1.1
				c-5.2,1.1-10.4,2.3-15.5,3.4c-4.1,0.9-9.7,1-13.5,2.8c-1.9,0.9-2,1.9-3.1,3.7c-1,1.7-2.8,3.1-3.7,4.8c5.8,3.2,11.7,6.1,17.5,9.2
				c0.7,0.4,8.8,4.3,8.5,5.3c-1.5,0-3.1,0-4.6,0c-2,0-3.9,0-5.5,0c-1.7,0-3.3,0-5,0c-4.7,0-9.4,0-14.2,0c-0.8,0-1.6,0-2.4,0
				c-2.8,0-5.6,0-8.3,0c-9.4,0-18.7,0-28.1,0C33.8,86.5,38.3,82.7,42.6,78.4z M40.5,63.6c0.4,0,0.8-0.1,0.9-0.2
				c-0.1,0.1,0,0.2,0,0.2c0,0,0,0,0-0.2c0.1,0.4,0.2,0.9,0.3,1.4c0.2-0.2,0.3-0.3,0.4-0.3c0.4,0,0.6,0.8,1.2,0.8c0.1,0,0.2,0,0.3,0
				c-0.3-1.2-3.2-3.2-5-3.2c-0.4,0-0.8,0.1-1.1,0.4C37.7,63.3,39.4,63.6,40.5,63.6z M109.5,58.3c0.2,0,0.1-0.1-0.3-0.3c0,0,0,0,0,0
				c0,0,0,0,0,0c0,0,0,0,0,0c0,0.1-0.1,0.2-0.1,0.2C109.2,58.3,109.4,58.3,109.5,58.3z M29.8,63.3c-0.2-0.1-0.3-0.1-0.4-0.1
				c-0.2,0-0.3,0.2-0.5,0.6C29.2,63.7,29.6,63.7,29.8,63.3z"/>
			<path class="st0" d="M13,30.5l5.8,7.1c-1.4,2.6-2.5,5.3-3.5,8c-3.1,1-6.3,2.2-9.3,3.7l-0.6,0.3C6.8,42.8,9.4,36.3,13,30.5z"/>
		</g>
		<g>
			<line class="st1" x1="35.1" y1="60.9" x2="35.1" y2="60.9"/>
		</g>
	</g>
</g>
</svg>
