<?xml version="1.0" encoding="iso-8859-1"?>
<!-- Generator: Adobe Illustrator 19.1.0, SVG Export Plug-In . SVG Version: 6.00 Build 0)  -->
<svg version="1.1" id="Calque_1" xmlns="http://www.w3.org/2000/svg" xmlns:xlink="http://www.w3.org/1999/xlink" x="0px" y="0px"
	 viewBox="0 0 400 45.46" style="enable-background:new 0 0 400 45.46;" xml:space="preserve">
<g>
	<path d="M29.933,26.361c-0.933-0.208-1.866-0.417-2.891-0.646c0.604-0.916,0.764-1.71,0.661-2.696
		c-2.936,1.048-1.696,10.022-3.965,9.97c-0.072-0.282-0.144-0.563-0.244-0.956c-0.605,0.377-1.088,0.677-1.602,0.997
		c0.699,0.854,1.266,0.054,1.865-0.063c1.013,1.586,0.011,2.98-0.355,4.685c-0.907-0.772-1.762-1.175-2.832-0.628
		c0.226,0.381,0.45,0.756,0.86,1.445c0.285-0.444,0.449-0.699,0.648-1.009c5.728,8.124-10.011,7.412-13.032,7.22
		c1.878-5.405-4.151-13.247-2.559-18.192c-1.798-0.324-3.064-9.225-3.213-10.149C2.488,11.504,0,5.747,0,0.684
		c5.266-1.025,8.539-0.6,10.106,4.016c0.71,2.092,3.095,8.35-0.002,10.343c2.555,0,4.613,3.955,1.885,5.392
		c3.663,0.815,1.501,6.543,3.832,8.799c0.796-3.833,4.591-25.102,6.505-24.76c-2.39-3.573,4.637-5.044,7.059-3.672
		c2.888,1.635,2.962,4.396,3.747,7.87c0.478,2.119,2.798,20.495,4.641,20.917c0.367-6.749,3.135-13.748,4.49-20.325
		c2.001-9.716,1.156-8.515,11.234-8.515c-0.956,4.525-2.341,23.319-6.763,24.915c1.569,3.091-0.562,14.189-3.347,15.365
		c1.872,3.874-5.144,5.006-7.357,1.724c-1.705,6.38-5.507-1.816-5.867-2.304c0.878-0.332,1.476-0.559,2.053-0.777
		c-0.357-1.403-1.095-0.477-1.643-0.145c-1.363-2.59-1.44-4.004-0.26-5.963c-0.474,0.049-0.815,0.084-1.259,0.129
		c0-0.771,0-1.533,0-2.286c0.407,0,0.753,0,1.125,0c-0.484-1.192-4.382-3.407-1.511-4.642c0.461,0.581,0.928,1.17,1.591,2.006
		c0.13-1.809,1.437-3.354-0.326-4.573C29.933,24.967,29.933,25.664,29.933,26.361C29,26.153,29.933,25.664,29.933,26.361z
		 M25.637,8.784c0.616,0.538,1.04,0.372,1.272-0.497c-0.39-0.38-0.779-0.76-1.169-1.141c-0.198,1.424-1.456,1.365-0.492,2.917
		C25.376,9.642,25.507,9.213,25.637,8.784C25.874,8.894,25.507,9.213,25.637,8.784z M12.352,32.025
		c0.432,0.81,0.687,1.771,1.789,2.215c-0.263-0.938-0.48-1.709-0.683-2.433c-1.438,0.546-2.722,0.107-3.851-1.315
		c-0.251,0.297-0.511,0.604-0.809,0.956C10.042,31.602,11.044,32.717,12.352,32.025C12.784,32.836,11.044,32.717,12.352,32.025z
		 M21.904,21.131c1.093,1.085,2.372,0.723,3.877,0.723c-2.027-1.547-2.09-3.527-4.641-3.401c0.168,0.363,0.332,0.719,0.503,1.089
		c-0.43,0.137-0.739,0.236-1.347,0.43C20.944,20.21,21.48,20.596,21.904,21.131C22.146,21.372,21.712,20.937,21.904,21.131z
		 M20.141,22.531c0,2.733,1.3,3.412,3.659,2.489C22.532,24.158,21.4,23.388,20.141,22.531C20.141,23.391,21.4,23.388,20.141,22.531z
		 M24.595,13.489c1.32-1.107,1.277-1.296-0.626-3.113C23.337,11.503,23.375,12.521,24.595,13.489z M29.919,14.458
		c0.51-0.297,0.881-0.513,1.251-0.728c-0.618-1.039-1.668-1.476-2.616-0.727C29.008,13.487,29.412,13.919,29.919,14.458
		C30.428,14.161,29.412,13.919,29.919,14.458z M9.813,26.217c-0.716,0.919-1.661,1.329-0.85,2.609
		C9.737,27.332,10.516,27.963,9.813,26.217C9.097,27.136,10.053,26.815,9.813,26.217z M38.339,36.003
		c-0.493-0.592-0.901-1.083-1.647-1.98c0.34,1.013,0.46,2.05,0.36,3.113C37.538,36.708,37.865,36.42,38.339,36.003
		C37.846,35.41,37.865,36.42,38.339,36.003z M43.639,12.442c0.469,0.075,1.114,0.178,1.978,0.316
		c-0.622-0.75-1.115-1.344-1.67-2.013C43.83,11.39,43.736,11.91,43.639,12.442C44.108,12.517,43.736,11.91,43.639,12.442z
		 M11.654,24.183c-0.466,1.145-0.015,1.899,1.085,2.358C12.377,25.755,12.016,24.969,11.654,24.183z M5.887,21.934
		c-0.128,0.1-0.256,0.201-0.383,0.301c0.821,1.39,1.693,1.503,2.616,0.339C7.248,22.324,6.567,22.129,5.887,21.934
		C5.759,22.034,6.567,22.129,5.887,21.934z M17.636,38.907c0.787-0.196,1.58-0.221,2.381-0.073
		C18.435,37.732,18.435,37.732,17.636,38.907C18.038,38.845,18.435,37.732,17.636,38.907z M23.118,34.57
		c-0.575-0.25-0.976-0.424-1.82-0.791c0.499,0.893,0.776,1.389,1.146,2.051C22.709,35.333,22.88,35.014,23.118,34.57
		C22.543,34.32,22.88,35.014,23.118,34.57z M11.315,16.967c-0.099,0.029-0.199,0.058-0.298,0.086
		c-0.008-0.045-0.154,2.349,0.191,1.934C11.978,18.378,12.014,17.704,11.315,16.967C11.216,16.996,11.493,17.34,11.315,16.967z
		 M17.593,36.519c-0.898-0.369-0.898-0.369-1.744,0.054c0.171,0.327,0.341,0.654,0.557,1.067
		C16.785,37.281,17.108,36.977,17.593,36.519C16.695,36.15,17.108,36.977,17.593,36.519z M9.914,20.164
		c0.091-1.06-0.361-1.731-1.378-1.993C8.995,18.835,9.454,19.5,9.914,20.164z M18.058,26.349c0.925,0.794,1.539,1.065,1.854-0.503
		C19.233,26.031,18.726,26.168,18.058,26.349z M8.321,5.448C7.773,5.133,7.51,4.981,7.247,4.83C7.081,5.257,6.914,5.685,6.639,6.391
		C7.29,6.026,7.617,5.842,8.321,5.448C7.773,5.133,7.617,5.842,8.321,5.448z M28.217,21.745c0.387,0.672,0.745,1.424,1.984,0.758
		C29.33,22.17,28.774,21.958,28.217,21.745z M35.088,32.732c-0.918-0.272-1.281-0.38-1.644-0.488
		c0.01,0.336,0.021,0.673,0.031,1.009C33.831,33.138,34.188,33.023,35.088,32.732C34.17,32.459,34.188,33.023,35.088,32.732z
		 M9.03,22.522c0.4,0.544,0.801,1.087,1.319,1.791C10.511,23.16,9.935,22.695,9.03,22.522z M17.088,42.246
		c0.976,0.804,1.378,0.249,1.736-0.473C18.314,41.912,17.803,42.051,17.088,42.246z M11.705,34.102
		c-0.723,1.005-0.073,1.189,0.633,1.36C12.126,35.009,11.916,34.556,11.705,34.102z M33.87,27.166
		c0.134-0.169,0.267-0.338,0.401-0.506c-0.641-0.072-0.419-1.235-1.819-0.692C33.012,26.441,33.441,26.804,33.87,27.166
		C34.003,26.998,33.441,26.804,33.87,27.166z M18.616,36.644c0.137-0.107,0.274-0.214,0.41-0.321
		c-0.387-0.423-0.774-0.846-1.161-1.27c-0.098,0.081-0.196,0.163-0.295,0.244C17.919,35.746,18.268,36.195,18.616,36.644
		C18.753,36.537,18.268,36.195,18.616,36.644z M28.32,16.017c-0.003,0.795,0.211,1.34,1.315,0.994
		C29.047,16.567,28.683,16.292,28.32,16.017z M37.038,40.584c0.196,0.164,0.391,0.327,0.587,0.491
		c0.275-0.353,0.55-0.707,1.105-1.421C37.874,40.125,37.456,40.355,37.038,40.584C37.233,40.748,37.456,40.355,37.038,40.584z
		 M27.186,4.517c-0.134,0.086-0.269,0.172-0.403,0.258c0.242,0.369,0.485,0.738,0.727,1.107c0.119-0.069,0.238-0.139,0.357-0.208
		C27.639,5.287,27.413,4.902,27.186,4.517C27.051,4.603,27.413,4.902,27.186,4.517z M31.12,10.335
		c-0.149-1.189-0.149-1.189-0.984-1.287C30.404,9.399,30.681,9.761,31.12,10.335z M43.572,27.39
		c-0.107,0.103-0.215,0.206-0.322,0.308c0.309,0.337,0.617,0.675,0.926,1.012c0.15-0.145,0.3-0.291,0.45-0.436
		C44.275,27.979,43.923,27.684,43.572,27.39C43.464,27.492,43.923,27.684,43.572,27.39z M17.138,32.067
		c-0.093,0.047-0.186,0.093-0.279,0.14c0.112,0.467,0.328,0.883,0.649,1.248c0.106-0.065,0.212-0.129,0.318-0.194
		C17.597,32.862,17.368,32.464,17.138,32.067C17.045,32.113,17.368,32.464,17.138,32.067z M7.046,13.888
		c-0.126-0.127-0.252-0.253-0.377-0.38c-0.323,0.325-0.646,0.649-0.969,0.974c0.126,0.127,0.252,0.254,0.378,0.381
		C6.401,14.538,6.724,14.213,7.046,13.888C6.92,13.761,6.724,14.213,7.046,13.888z M20.354,11.394
		c0.291,1.22,0.56,1.631,1.513,1.435C21.378,12.365,21.051,12.055,20.354,11.394z"/>
	<path d="M210.419,44.835c-6.65,0-9.796,1.373-12.668-5.01c-2.299-5.111-4.224-10.447-6.334-15.639c0,7.175,0,13.795,0,20.574
		c-3.192,0-6.229,0-9.468,0c-0.871-14.5-0.104-29.234-0.104-43.973c2.071-0.266,4.755-0.43,6.818-0.077
		c4.038,0.691,2.87-0.11,5.147,3.702c1.415,2.368,4.656,8.633,3.773,11.344c-0.442-0.307-0.759-0.527-1.116-0.774
		c-0.555,1.24,0.054,2.253,1.827,3.041c0.141-0.324,0.271-0.621,0.51-1.168c0.338,1.563,0.799,2.19,1.99,3.468
		c0.027-0.441,0.086-1.394,0.172-2.796c0.878,1.464,1.986,1.42,3.091,1.383c-0.067-0.723-0.133-1.445-0.217-2.36
		c-0.95,0.893-1.804-0.195-2.897,0.173c-0.094-3.666-1.705-12.83,0.214-15.993c3.026-0.057,6.049-0.085,9.076-0.085
		c0.252,6.163,0.186,12.171,0.165,18.51c-0.448-0.5-0.7-0.78-1.01-1.126c-5.476,3.877-0.923,0.434,0.993,3.936
		C208.081,27.101,210.419,38.664,210.419,44.835C206.862,44.835,210.419,43.874,210.419,44.835z M188.649,11.005
		c-0.149,0.842-0.247,1.397-0.345,1.951c0.685,0.083,1.369,0.167,2.36,0.287C189.884,12.376,189.381,11.817,188.649,11.005
		C188.5,11.847,189.381,11.817,188.649,11.005z M194.483,16.693c0.404-0.742,1.154-1.384-0.063-2.107
		C194.292,15.271,193.267,15.792,194.483,16.693z M209.715,27.991c-0.409-0.549-0.817-1.098-1.463-1.965
		C208.095,27.505,208.86,27.783,209.715,27.991z M206.01,19.45c0.107-0.557-0.206-0.922-0.94-1.096
		C204.652,18.882,205.434,19.638,206.01,19.45C206.019,19.268,205.788,19.522,206.01,19.45z"/>
	<path d="M118.99,44.801c-1.389-14.32-0.844-29.71-0.223-44.079c6.741-0.311,17.69-2.062,23.597,1.842
		c7.052,4.66,4.562,15.125,4.654,22.203c0.081,6.173,1.377,14.497-4.782,18.324C136.465,46.676,125.498,45.248,118.99,44.801
		C118.494,39.687,119.291,44.822,118.99,44.801z M128.359,35.295c9.924,0,9.402-2.168,9.375-11.477
		c-0.008-2.771,1.055-9.131-0.39-11.547c-1.903-3.183-5.788-2.015-9.165-2.015C128.503,18.593,127.998,26.791,128.359,35.295
		C130.709,35.295,127.998,26.791,128.359,35.295z"/>
	<path d="M115.409,15.528c0,9.752,3.345,26.824-9.689,29.217c-12.254,2.25-18.515-3.462-18.673-15.052
		c-0.116-8.528-3.468-23.559,6.426-27.912C105.423-3.475,115.133,3.433,115.409,15.528C115.409,22.055,115.37,13.815,115.409,15.528
		z M96.448,21.34c0,4.469-2.543,16.902,6.267,13.953c5.264-1.762,3.183-9.176,3.185-13.963c0.003-4.951,1.761-10.87-4.512-11.186
		C94.617,9.802,96.451,16.507,96.448,21.34C96.448,24.939,96.45,18.733,96.448,21.34z"/>
	<path d="M240.802,32.969c4.152,10.313-11.473,12.843-17.778,11.681c-11.348-2.09-9.838-13.355-9.838-22.492
		c0.398,0.802,0.831,1.015,1.298,0.637c-0.395-0.75-0.79-1.5-1.219-2.313c0.288-0.057,0.542-0.107,0.982-0.193
		c-3.443-3.713-0.768-14.028,2.699-17.013c4.325-3.723,13.901-3.9,18.751-1.418c6.17,3.158,6.013,9.694,5.983,15.678
		c-0.013,2.634,0.757,7.485-0.275,9.884c-0.748,1.738-2.387,0.342-2.154,2.198c0.687-0.901,1.464-1.133,2.331-0.696
		c1.069,1.156-1.4,1.957,0.215,3.656c-0.828,0.712-1.431,0.528-1.807-0.551c-0.262,0.449-0.437,0.746-0.703,1.202
		C239.95,33.115,240.376,33.042,240.802,32.969C242.141,36.296,240.376,33.042,240.802,32.969z M224.166,10.186
		c-0.454-1.281-0.454-1.281-1.192-0.7c0.4,0.231,0.799,0.463,1.199,0.694c-2.728,4.462-3.357,23.344,1.558,25.12
		c7.851,2.837,6.674-6.722,6.626-11.04C232.277,16.992,234.372,8.393,224.166,10.186C223.712,8.905,226.036,9.858,224.166,10.186z
		 M221.484,26.337c0.768-1.484-0.55-1.621-1.503-1.47C220.634,25.506,221.024,25.887,221.484,26.337
		C222.041,25.26,221.024,25.887,221.484,26.337z M216.328,12.764c-1.519-0.008-1.519-0.008-1.321,1.062
		C215.398,13.512,215.737,13.239,216.328,12.764z"/>
	<path d="M399.753,14.897c-3.167,0-6.147,0-9.262,0c-1.598-6.699-12.114-5.571-9.813,0.779c1.428,3.94,8.211,1.887,11.448,2.935
		c4.644,1.504,6.928,5.1,7.632,9.803c1.054,7.036-1.259,13.963-8.503,15.925c-9.041,2.449-22.898-1.456-19.642-13.634
		c3.006,0,6.032,0,9.21,0c0.632,9.114,13.653,3.259,8.823-2.088c-2.172-2.404-9.416-0.78-12.649-2.52
		c-4.344-2.338-5.618-6.958-5.767-11.609C370.607-4.953,402.889-3.675,399.753,14.897C396.586,14.897,400.25,11.953,399.753,14.897z
		"/>
	<path d="M169.068,5.444c-3-6.612,7.033-4.822,10.796-4.822c-1.551,7.289-10.005,14.83-10.276,22.088
		c-0.099,2.646,3.424,7.462,4.63,9.934c1.986,4.072,3.992,8.113,5.858,12.254c-6.874,0-9.757,1.579-12.841-4.72
		c-1.128-2.303-4.395-13.119-7.628-12.252c0,5.575,0,11.145,0,16.852c-3.226,0-6.2,0-9.409,0c-1.99-14.244,0.743-29.471-0.19-43.855
		c1.746-0.757,6.233,0.053,7.614,1.266c3.533,3.102,1.999,10.709,1.999,15.326c4,0.465,6.928-14.201,9.466-12.092
		c-0.017,0.57,0.218,0.962,0.705,1.175C170.199,5.733,171.048,3.205,169.068,5.444C168.786,4.823,169.263,5.224,169.068,5.444z
		 M171.62,6.55c0.527,0.487,1.033-0.452,0.968-0.9C172.072,5.748,171.749,6.048,171.62,6.55
		C171.678,6.604,171.722,6.353,171.62,6.55z"/>
	<path d="M308.699,23.962c-1.668-6.739-1.17-16.405-0.359-23.307c2.163,0,7.789,0.524,7.231,3.242
		c0.951,0.163,1.899,0.324,3.315,0.566c-0.761-1.093-1.298-1.864-1.84-2.642c-0.9,0.649-1.925,0.3-1.921-1.089
		c7.1,0,14.19,0,21.449,0c0,3.066,0,6.105,0,9.285c-5.589,1.351-12.857,0.212-18.572,0.212c-0.696,2.426-0.259,5.474-0.293,7.982
		c5.299-0.396,10.449-0.343,15.585,0.276c0,2.918,0,5.718,0,8.673c-5.559-0.188-10.73,0.364-16.342-0.26
		c1.401,1.148,0.742,6.888,0.742,8.454c1.918,1.686,3.175-1.075,4.674,0.286c0.155,0.626-1.188,1.039-0.214,1.75
		c0.375-0.177,0.768-0.361,1.203-0.566c-0.101-0.312-0.218-0.672-0.409-1.259c4.192,0.85,7.13-0.863,10.719,1.422
		c-0.089-0.718-0.132-1.064-0.192-1.545c1.031,0,2.015,0,3.201,0c0.038,2.599,1.371,6.292-2.12,6.46
		c1.586,0.273,2.295,1.207,2.127,2.8c-4.693,0.472-9.559,0.272-14.27,0.125c-1.83-0.057-8.904,0.263-9.66-0.721
		c-0.199,0.23-0.396,0.459-0.669,0.775c-0.35-0.312-0.678-0.603-1.1-0.979c0.02,1.382-0.853,1.675-2.616,0.878
		c-0.229-2.828,0.202-5.654,0.2-8.382c-0.002-2.283-0.755-5.389,0.14-7.695c0.27,0.559,0.54,1.119,0.85,1.761
		c1.494-1.334,1.018-2.37,3.378-3.512C311.512,25.809,310.144,25.106,308.699,23.962C308.532,23.289,309.002,24.202,308.699,23.962z
		 M312.517,17.297c0,0.881,0.327,1.369,1.796,1.157c-1.321-0.327-2.086-1.114-2.295-2.362c-2.183,0.627-2.183,0.627-2.037,1.995
		C310.673,18.144,311.451,17.902,312.517,17.297C312.516,18.178,311.451,17.902,312.517,17.297z M321.808,6.069
		c-1.081-0.647-1.081-0.647-2.599-0.306c0.037,0.475,0.075,0.968,0.142,1.839c0.485-0.514,0.725-0.768,0.965-1.023
		c0.307,0.355,0.618,0.713,0.991,1.143C321.509,7.054,321.66,6.558,321.808,6.069C320.727,5.422,321.66,6.558,321.808,6.069z
		 M332.141,6.057c-0.154,0.7-1.121,1.304-0.106,1.976c0.744,0.493,1.052-0.127,1.288-0.717
		C332.938,6.906,332.581,6.526,332.141,6.057C331.987,6.757,332.581,6.526,332.141,6.057z M313.743,30.599
		c0.944,1.567,1.994,1.031,3.123,1.271C316.035,30.365,314.902,31.253,313.743,30.599z M321.857,40.189
		c-0.516-0.644-1.127-0.486-1.833,0.476c0.244,0.331,0.447,0.607,0.74,1.003C321.295,40.95,321.576,40.569,321.857,40.189
		C321.741,40.087,321.576,40.569,321.857,40.189z M326.161,24.467c-0.525,0.316-0.902,0.544-1.693,1.02c1.057,0,1.634,0,2.354,0
		C326.601,25.147,326.442,24.901,326.161,24.467C325.636,24.784,326.442,24.901,326.161,24.467z M328.577,24.595
		c0.993,0.92,1.407,0.309,1.769-0.506C329.839,24.234,329.332,24.379,328.577,24.595z M312.065,8.73
		c-0.729,0.139-1.552,0.352-0.817,1.443C311.58,9.586,311.822,9.158,312.065,8.73z M326.854,6.232
		c-1.041,0.043-1.041,0.043-1.306,0.928C326.072,6.983,326.508,6.674,326.854,6.232C325.813,6.275,326.524,6.537,326.854,6.232z
		 M312.325,35.938c-0.386-0.834-0.525-1.134-0.664-1.435c-0.311,0.158-0.622,0.315-1.122,0.569
		C311.093,35.341,311.431,35.505,312.325,35.938C311.939,35.105,311.431,35.505,312.325,35.938z M333.471,3.47
		c-0.187-0.089-0.374-0.178-0.562-0.267c-0.156,0.486-0.311,0.972-0.467,1.459c0.146,0.055,0.291,0.11,0.437,0.165
		C333.076,4.375,333.273,3.923,333.471,3.47C333.284,3.381,333.273,3.923,333.471,3.47z M327.472,36.386
		c-0.197,0.608-1.025,1.076-0.021,1.634C327.65,37.534,328.447,37.179,327.472,36.386z M312.938,42.966
		c0.1-0.078,0.2-0.155,0.299-0.233c-0.299-0.341-0.599-0.682-0.898-1.024c-0.09,0.074-0.181,0.148-0.271,0.222
		C312.358,42.276,312.648,42.621,312.938,42.966C313.038,42.888,312.648,42.621,312.938,42.966z M314.995,39.641
		c0.272,0.526,0.456,0.881,0.782,1.51C316.24,40.108,315.913,39.828,314.995,39.641z M311.488,31.528
		c0.624-0.294,0.978-0.46,1.516-0.714C312.053,30.091,311.814,30.526,311.488,31.528z"/>
	<path d="M57.916,10.665c0.396,0.237,0.793,0.474,1.243,0.744c0-0.376,0-0.723,0-1.074c0.764,0.094,1.56,0.192,2.366,0.292
		c0.156-1.921-1.4-0.774-2.058-1.479c2.06-3.073,2.383-6.488,4.819-7.885c2.556-1.465,8.215-0.976,10.893-0.33
		c4.912,1.185,13.529,10.95,7.703,15.705c3.6,1.026,1.02,20.859-1.11,23.843c-2.207,3.093-9.454,6.019-12.914,3.887
		c0.374,0.548,0.705-0.001,0.995-1.645c-7.187,3.511-12.945-0.665-14.17-8.588c-0.67-4.336-0.073-9.829,0.141-13.763
		c0.04-0.736-0.24-5.904,0.077-6.333c0.404,0.095,0.835,0.196,1.545,0.363c-0.166-1.339-0.314-2.542-0.463-3.744
		C57.295,10.662,57.605,10.663,57.916,10.665C58.312,10.902,57.605,10.663,57.916,10.665z M75.037,7.328
		c0.273-0.568,0.547-1.137,0.877-1.822c-0.72,0.098-1.202,0.163-1.777,0.241c1.655,4.25-4.003,3.12-6.446,4.484
		c-6.127,3.421,0.3,12.781-4.861,17.192c1.378,1.341,1.21,1.118,2.263,3.367c0.884,1.888,0.224,3.068,1.586,5.211
		c2.034-1.146,5.267,0.304,6.942-1.493c2.205-2.364,0.883-8.143,0.905-11.163c0.027-3.722-1.101-8.757-0.786-12.175
		C73.895,9.508,74.945,8.82,75.037,7.328C75.311,6.76,74.978,8.276,75.037,7.328z M79.615,21.526
		c1.254-1.518-1.865-1.631-2.942-1.201C77.522,20.672,78.418,21.038,79.615,21.526C79.783,21.322,78.418,21.038,79.615,21.526z
		 M64.407,6.622c0.501-1.634,0.501-1.634-0.064-2.38c-0.29,0.424-0.178,1.234-1.054,1.095C62.956,6.39,63.872,6.327,64.407,6.622
		C64.908,4.988,63.872,6.327,64.407,6.622z M81.148,16.597c0.107-0.015,0.215-0.031,0.322-0.046c0-0.233,0.452-1.61,0.165-1.755
		C80.475,14.209,81.271,17.069,81.148,16.597C81.255,16.581,81.037,16.175,81.148,16.597z M62.404,9.548
		c0.358-0.196,0.716-0.392,1.074-0.587c-0.139-0.943-0.92-1.125-2.342-0.547C61.756,8.969,62.088,9.266,62.404,9.548
		C62.825,9.318,62.088,9.266,62.404,9.548z M81.74,8.692c-1.048,0.311-1.403,0.614-1.167,1.774
		C81.024,9.78,81.273,9.402,81.74,8.692z M65.487,39.77c-0.121,0.046-0.241,0.093-0.362,0.139c0.124,0.338,0.249,0.676,0.373,1.013
		C66.103,40.768,66.099,40.384,65.487,39.77C65.366,39.817,65.62,40.09,65.487,39.77z M72.676,4.993
		c-0.116-0.121-0.232-0.242-0.348-0.364c-0.298,0.339-0.596,0.678-0.894,1.017c0.097,0.085,0.193,0.171,0.29,0.256
		C72.041,5.599,72.358,5.296,72.676,4.993C72.56,4.871,72.358,5.296,72.676,4.993z M76.919,12.997
		c0.106-0.079,0.212-0.157,0.319-0.236c-0.25-0.361-0.5-0.723-0.75-1.084c-0.104,0.072-0.209,0.144-0.313,0.216
		C76.422,12.261,76.671,12.629,76.919,12.997C77.025,12.918,76.671,12.629,76.919,12.997z"/>
	<path d="M293.989,7.822c-0.388,0.254-0.776,0.508-1.298,0.849c-1.901-8.899,8.8-7.93,13.938-7.93
		c-3.856,1.476-2.478,12.938-7.552,9.015c-0.038,1.242,0.559,2.171,1.793,2.787c-0.799,0.246-1.333,0.411-2.125,0.655
		c0.558,0.222,0.864,0.344,1.343,0.535c-0.157,0.96-0.698,1.263-1.622,0.91c0.347,0.925,0.267,1.814-0.239,2.667
		c-0.323-0.218-0.687-0.464-1.215-0.821c-0.104,0.876-0.198,1.667-0.316,2.659c-0.43-0.141-0.86-0.282-1.291-0.424
		c-0.158-1.074-0.753-2.124-1.774-2.732c-0.14,0.898-0.264,1.691-0.387,2.478c-0.249-0.041-0.541-0.089-0.911-0.15
		c-0.061,0.824-0.119,1.623-0.193,2.631c2.498-0.389,2.775,1.117,4.28,3.065c-0.314,0.508-0.739,0.411-1.274-0.289
		c-0.136,0.99,4.099,6.542,4.714,7.869c1.205,2.6,2.59,5.485,4.208,8.101c-0.388,0.094-0.632,0.154-0.877,0.214
		c0.425,1.457,1.236,1.01,1.641,2.713c-0.272,0.084-0.542,0.167-1.016,0.312c0.87,0.746,2.23,0.143,2.503,1.667
		c-1.333-0.348-2.594,0.197-3.788,0.224c-5.42,0.125-6.241-0.139-8.536-4.513c-2.273-4.331-4.113-9.191-6.836-13.249
		c-2.845,1.664-1.205,10.621-1.339,13.432c-0.642-0.03-1.143-0.053-1.643-0.076c0.38-0.912,1.689,3.505,1.738,4.454
		c-1.818,0-7.771,0.903-9.053-0.473c-0.893-0.958-0.373-8.396-0.454-10.507C275.99,22.989,276.4,11.967,276.4,1.042
		c2.314-1.313,6.877-0.335,9.362-0.283c0.588,2.082,0.938,8.489,0.147,10.557c-0.564,1.475-4.545,2.884-3.202,4.963
		c0.274-0.548,1.871-2.148,2.336-2.845c0.379,1.023,1.15,2.952,0.575,3.902c-0.549,0.907-1.303-0.226-1.898,0.203
		c0.212,0.336,0.414,0.654,0.612,0.967c-0.201,0.178-0.372,0.331-0.606,0.538c0.533,0.142,1.022,0.272,1.688,0.45
		c-0.104-0.411-0.173-0.683-0.29-1.144c0.999,0.159,2.057-0.324,3.129,1.048c-0.192-0.89-0.293-1.355-0.445-2.061
		c0.528,0.298,0.869,0.49,1.598,0.901c-1.281-2.213,2.917-10.186,5.844-9.227c0.32-1.013,3.768-1.051,3.004-3.11
		c0.257,0.237,0.513,0.475,0.949,0.878c0.109-0.787-0.158-1.383-0.799-1.788C298.101,6.988,294.416,5.929,293.989,7.822
		C293.601,8.076,294.039,7.6,293.989,7.822z M293.515,27.75c-0.195-0.27-0.389-0.539-0.583-0.809
		c-0.128,0.313-0.256,0.626-0.435,1.065c2.152-0.519,0.149,1.718,2.395,0.936C294.369,28.49,293.942,28.12,293.515,27.75
		C293.32,27.48,293.942,28.12,293.515,27.75z M282.596,22.996c0.097,0.718,0.194,1.436,0.299,2.218
		c0.496-0.493,0.35-3.66-0.174-3.915C282.814,21.907,281.538,22.321,282.596,22.996C282.693,23.714,281.538,22.321,282.596,22.996z
		 M299.696,4.018c-0.981,1.12,0.269,1.495,0.601,2.259c0.757-0.817,1.397-1.508,2.073-2.239c-0.516-0.411-2.579,0.271-2.696-0.036
		c1.904-0.922-1.523-0.729-1.229-0.79C298.976,3.555,299.336,3.786,299.696,4.018C298.716,5.138,299.336,3.786,299.696,4.018z
		 M297.37,42.585c1.048-0.897,1.083-1.635,0.105-2.215c-0.338,1.443-1.038-0.566-1.592,0.235
		C296.354,41.233,296.801,41.828,297.37,42.585C297.691,41.977,296.801,41.828,297.37,42.585z M278.904,17.31
		c0.639,1.129,1.402,1.107,2.289-0.065c-0.358-0.406-0.702-0.796-1.179-1.337C279.65,16.367,279.341,16.757,278.904,17.31
		C279.177,17.57,279.341,16.757,278.904,17.31z M285.549,21.023c-0.726,0.438-0.935,0.978-0.626,1.621
		c0.12,0.165,1.695-0.471,1.796-0.58C286.44,21.816,286.157,21.564,285.549,21.023C285.225,21.454,286.157,21.564,285.549,21.023z
		 M280.096,25.638c-0.096-0.156-0.191-0.312-0.287-0.467c-0.714,0.012-1.379,0.123-1.733,0.983c0.346,0.163,0.616,0.29,0.886,0.417
		c-0.142-0.139-0.284-0.278-0.426-0.417C279.057,25.982,279.577,25.81,280.096,25.638C280.001,25.482,279.577,25.81,280.096,25.638z
		 M278.038,31.078c0.238-0.497,0.403-0.844,0.618-1.294c-0.566,0-1.054,0-2.095,0C277.269,30.403,277.611,30.703,278.038,31.078
		C278.276,30.581,277.611,30.703,278.038,31.078z M278.681,36.907c-0.111,0.049-0.222,0.097-0.333,0.146
		c0.037,1.291,0.457,1.75,1.258,1.378C279.286,37.904,278.983,37.406,278.681,36.907C278.57,36.956,278.983,37.406,278.681,36.907z
		 M283.607,36.103c0.827,0.345,0.827,0.345,1.183-0.613C284.34,35.723,283.973,35.913,283.607,36.103z M300.157,42.294
		c0.165-0.065,0.33-0.129,0.496-0.194C300.099,40.825,299.735,41.01,300.157,42.294C300.322,42.229,300.052,41.974,300.157,42.294z
		 M292.314,21.998c0.133,1.136,0.133,1.136,0.969,1.222C293.007,22.873,292.722,22.513,292.314,21.998z M299.744,36.742
		c-0.304-0.279-0.516-0.473-0.727-0.668C298.691,36.879,298.974,37.243,299.744,36.742
		C299.441,36.463,299.474,36.918,299.744,36.742z M295.863,14.987c-0.301-0.637-0.467-0.986-0.685-1.447
		C294.316,14.441,294.802,14.663,295.863,14.987z"/>
	<path d="M341.963,22.066c0.005-3.954-1.333-4.137-2.234-7.048c-0.938-3.028,1.383-9.2,0.524-10.775
		c2.035-0.872,1.709-1.47,0.867-3.459c5.926-0.445,15.84-1.794,21.38,1.363c8.871,5.055,3.995,14.03,4.027,21.553
		c0.021,4.795,4.919,17.35,1.051,21.093c-0.182,0.176-6.909,0.323-7.39,0.077c-3.241-1.662-1.664-10.366-1.619-14.276
		c1.79,0.691,2.472,0.235,1.983,2.529c3.422-1.705,0.707-2.495-0.881-3.878c-0.419,0.528-0.753,0.948-1.087,1.369
		c-0.774-0.681-3.997-3.773-3.798-4.741c0.264,0.077,0.528,0.153,0.859,0.25c0.473-1.44-0.096-2.1-1.707-1.982
		c-0.049,0.324-0.082,0.541-0.114,0.757c-2.659-1.977-5.879-0.053-6.651-3.267c-0.369,0.028-0.784,0.06-1.202,0.092
		c0.124,0.541,0.211,0.92,0.298,1.299C344.88,22.709,343.289,22.347,341.963,22.066z M354.538,19.738
		c3.756-0.262,5.914-4.982,3.567-8.307c-1.911-2.707-5.929-1.188-8.923-1.153c0,3.229,0,6.195,0,9.219
		c1.881,0.243,4.287,1.966,4.9,1.943C354.211,20.963,354.347,20.455,354.538,19.738C355.044,19.703,354.347,20.455,354.538,19.738z
		 M345.424,14.318c-0.551-0.546-0.882-0.873-1.208-1.196c-0.519,0.579-0.822,0.918-1.421,1.587
		C343.82,14.556,344.428,14.466,345.424,14.318C344.872,13.772,344.428,14.466,345.424,14.318z M363.34,32.007
		c-0.122,0.114-0.244,0.229-0.366,0.343c0.344,0.31,0.689,0.621,1.033,0.931c0.085-0.091,0.17-0.181,0.255-0.272
		C363.955,32.676,363.648,32.341,363.34,32.007C363.218,32.121,363.648,32.341,363.34,32.007z M364.913,39.2
		c-0.715,0.306-1.077,0.46-1.561,0.667C364.249,40.722,364.442,40.13,364.913,39.2z M364.437,22.619
		c0.161-0.439-0.226-1.678-0.349-1.3C364.204,21.752,364.321,22.186,364.437,22.619C364.602,22.17,364.256,22.012,364.437,22.619z"
		/>
	<path d="M246.023,29.646c-3.064-2.929-1.866-22.009,1.901-25.171c-0.028,0.897,0.563,1.048,1.392,0.885
		c-0.469-0.29-0.938-0.58-1.407-0.87c2.232-3.173,9.358-5.479,12.245-2.17c-0.195-0.484-0.389-0.967-0.646-1.606
		c9.704,0.418,14.74,5.416,13.989,15.391c-2.684,0.128-7.384,1.597-7.591-2.024c-0.572,0.346-0.993,0.6-1.678,1.014
		c-0.391-5.109-1.661-5.958-5.595-4.881c-6.037,1.652-2.444,4.439-4.485,8.723c-0.382-0.659-0.628-1.082-0.925-1.593
		c-0.397,0.295-0.779,0.578-1.147,0.851c-0.765-0.666,0.928-1.685-0.546-2.036c-1.847,1.912,0.053,3.627-1.237,5.421
		C247.914,21.475,246.511,27.848,246.023,29.646z M268.181,10.914c-0.805,0.064-1.631,0.13-2.607,0.208
		c0.407,0.882,0.571,1.625,1.712,1.968C266.231,11.528,268.542,12.1,268.181,10.914C267.377,10.978,268.542,12.1,268.181,10.914z
		 M255.721,4.047c-0.207,0.82-0.372,1.469-0.536,2.119C255.99,5.66,256.892,5.174,255.721,4.047z M271.592,9.162
		c-0.922-0.153-1.224,0.558-0.907,2.133C272.076,10.796,272.378,10.084,271.592,9.162C271.484,9.155,271.722,9.439,271.592,9.162z
		 M267.952,5.253c0.01,0.549,0.355,0.866,1.033,0.952C269.262,5.644,268.507,5.147,267.952,5.253
		C267.991,5.48,268.155,5.214,267.952,5.253z M262.63,5.83c0.086,0.102,0.173,0.203,0.259,0.305c0.334-0.29,0.668-0.58,1.002-0.87
		c-0.078-0.094-0.156-0.188-0.235-0.282C263.314,5.265,262.972,5.548,262.63,5.83C262.717,5.932,262.972,5.548,262.63,5.83z
		 M265.199,3.395c0.108-0.125,0.216-0.249,0.324-0.374c-0.341-0.294-0.683-0.588-1.024-0.882c-0.079,0.081-0.158,0.163-0.236,0.244
		C264.575,2.72,264.887,3.057,265.199,3.395C265.308,3.27,264.887,3.057,265.199,3.395z M248.503,16.343
		c-0.445,0.059-0.89,0.119-1.466,0.196C247.757,17.546,248.166,16.85,248.503,16.343z M248.573,15.17
		c0.11-0.585,0.43-1.275-0.674-1.346C248.148,14.321,248.361,14.745,248.573,15.17z"/>
	<path d="M251.699,20.631c3.853-5.722,2.791,7.67,2.395,9.503c-0.266-0.073-0.532-0.146-1.014-0.278
		c0.2,0.478,0.331,0.791,0.462,1.105c0.182-0.278,0.364-0.556,0.546-0.834c2.592,1.119-0.57,5.545-1.238,5.935
		c1.577,0.275,2.654,0.462,3.973,0.692c-0.266,0.315-0.456,0.54-0.782,0.925c0.697,0.169,1.301,0.316,1.952,0.475
		c0.107-1.836-1.428-1.893-1.311-2.644c5.715,0,7.716-0.292,7.357-6.229c3.266,0,6.275,0,9.402,0
		c1.45,11.986-8.593,19.105-19.546,14.105c-0.174,0.297-0.37,0.63-0.653,1.113c-2.88-1.978-12.863-9.374-6.345-13.377
		c-0.206-1.417-0.502-1.903-0.888-1.457c0.944,0.066,1.888,0.132,2.831,0.199c0-2.182,1.657-4.193,1.701-5.813
		c-0.981-0.805-1.155-1.37-0.25-2.468C251.402,22.263,251.872,21.946,251.699,20.631C252.047,20.114,251.619,22.116,251.699,20.631z
		 M262.76,37.812c-0.818,0.048-1.372,0.081-2.289,0.135c0.453,0.766,0.728,1.232,1.168,1.978
		C262.084,39.086,262.354,38.577,262.76,37.812C261.942,37.86,262.354,38.577,262.76,37.812z M251.676,29.481
		c-1.204,0.884-1.204,0.884-0.249,2.073C251.137,30.812,251.22,30.121,251.676,29.481C250.473,30.364,251.538,29.792,251.676,29.481
		z M266.664,41.376c-0.257-1.036-0.666-1.908-1.942-1.641C265.426,40.33,266.045,40.853,266.664,41.376z M249.43,35.197
		c0.116-0.048,0.232-0.095,0.348-0.143c-0.154-0.479-0.371-0.928-0.65-1.346c-0.098,0.06-0.195,0.119-0.293,0.179
		C249.034,34.324,249.232,34.76,249.43,35.197C249.546,35.149,249.232,34.76,249.43,35.197z"/>
	<path d="M341.943,22.046c0.061,3.565,9.438,4.425,11.156,7.109c-1.261,0-2.522,0-3.863,0c-0.665,5.307,0.152,10.415-0.216,15.626
		c-2.05,0-6.966-1.175-8.518,0.009c-2.97-1.957-1.171-18.801-0.908-22.452C340.437,22.337,341.219,22.315,341.943,22.046z
		 M342.552,33.307c0.659-0.408,1.246-0.735,1.152-1.71C342.582,31.824,342.299,32.338,342.552,33.307z M346.544,29.822
		c-0.032,0.82,0.226,1.281,1.295,0.971C347.261,30.36,346.902,30.091,346.544,29.822z"/>
	<path d="M57.916,10.665c-3.618-0.018-1.738-5.406,0.596-6.185C59.83,7.496,58.03,7.494,57.916,10.665
		C57.605,10.663,57.972,9.089,57.916,10.665z"/>
	<path d="M341.964,20.209c-0.083,1.112-2.72,1.382-2.303-0.217C340.447,19.891,341.251,19.504,341.964,20.209
		C341.955,20.331,341.251,19.504,341.964,20.209z"/>
	<path d="M265.98,15.414c0.158,0.167,0.315,0.334,0.473,0.501c-0.571,0.96-1.415,0.153-2.121,0.369
		C264.747,15.683,265.286,15.396,265.98,15.414C266.138,15.581,265.286,15.396,265.98,15.414z"/>
	<path d="M47.579,27.328c-0.282-0.555-0.563-1.11-0.845-1.664c0.257-0.093,0.515-0.186,0.772-0.279
		C47.744,26.024,48.396,26.648,47.579,27.328C47.298,26.773,48.396,26.648,47.579,27.328z"/>
	<path d="M295.403,18.724c-0.173,1.16-0.728,1.491-1.665,0.993C294.762,19.26,293.962,18.298,295.403,18.724z"/>
	<path d="M308.716,23.944c0.312,0.963,1.19,1.875-0.009,2.389C308.53,25.741,307.822,24.385,308.716,23.944
		C308.833,24.304,308.076,24.259,308.716,23.944z"/>
	<path d="M159.474,2.262c-0.586-0.626-0.887-0.947-1.297-1.386C159.332,0.51,159.687,0.821,159.474,2.262z"/>
	<path d="M60.657,3.499C59.9,4.085,59.495,4.045,59.439,3.38c0.376-0.096,0.751-0.193,1.127-0.289
		C60.597,3.227,60.627,3.363,60.657,3.499C60.293,3.6,60.627,3.363,60.657,3.499z"/>
	<path d="M68.859,44.37c-0.881,0.721-1.234,0.484-1.42-0.466C68.691,44.643,69.164,44.798,68.859,44.37z"/>
	<path d="M21.33,20.551c0.855-0.177,1.123-1.138,1.896-1.424c0.336,0.516,0.672,1.031,1.008,1.547
		C23.359,21.402,22.09,21.319,21.33,20.551C22.185,20.373,21.521,20.744,21.33,20.551z"/>
	<path d="M248.838,28.774c-0.512,0.112-1.024,0.224-1.47,0.321c-0.138-0.61-0.276-1.217-0.414-1.824
		C248.069,27.225,248.697,27.726,248.838,28.774C248.326,28.886,248.682,28.419,248.838,28.774z"/>
</g>
</svg>
