<?xml version="1.0" encoding="iso-8859-1"?>
<!-- Generator: Adobe Illustrator 19.1.0, SVG Export Plug-In . SVG Version: 6.00 Build 0)  -->
<svg version="1.1" id="Calque_1" xmlns="http://www.w3.org/2000/svg" xmlns:xlink="http://www.w3.org/1999/xlink" x="0px" y="0px"
	 viewBox="0 0 400 385.259" style="enable-background:new 0 0 400 385.259;" xml:space="preserve">
<g>
	<g>
		<path style="fill:#FFFFFF;" d="M360.496,94.05c2.393,0.106,4.093,5.162,3.263,7.046c0.276-0.273,0.552-0.545,0.896-0.885
			c1.19,2.25,2.713,4.342,3.341,6.857c0.913,3.653,0.599,1.504,0.093,5.369c1.496-0.806,1.538-0.516,0.912-1.85
			c1.964,0.073,1.184,2.087,0.889,3.224c6.974-0.959,21.943,69.045,14.645,71.601c0.91,0.468,1.984,2.048,2.716,1.434
			c-0.423-0.222-0.834-0.437-1.245-0.653c2.305-1.685,10.69-0.529,13.619-0.529c0.355,3.949-0.048,7.788,0.132,11.743
			c-8.5,1.076-17.845,0.094-26.428,0.194c-3.511,0.041-22.651-2.435-24.473-0.192c-0.449-0.409-0.852-0.776-1.517-1.382
			c0.111,0.637,0.17,0.971,0.267,1.532c-8.91,0-17.58-0.041-26.288-0.048c-6.269-0.005-12.568-0.042-18.818-0.042
			c-2.791,0-6.34,0.372-8.95-1.311c0.046,0.501,0.076,0.818,0.107,1.155c-1.727,0.998-2.421-0.473-3.344-1.652
			c-0.197,3.954-11.58,1.534-14.379,1.206c-0.736-0.086-6.55,0.42-6.647,0.112c0.1-0.209,0.199-0.418,0.299-0.627
			c-0.484-0.073-0.969-0.146-2.023-0.305c0.735,0.57,1.008,0.783,1.282,0.995c-1.423,3.28-5.532-4.609-4.982-4.13
			c-0.287,1.143-0.135,3.609,1.668,3.67c-1.22,2.534-20.057,0.899-23.565,0.907c-7.476,0.017-14.943-0.102-22.416-0.132
			c-15.62-0.063-31.271,0.237-46.904,0.209c-16.975-0.03-33.988,0.333-50.953,0.101c-3.812-0.052-8.72-0.094-13.085-0.09
			c-4.538,0.005-17.472,2.24-20.529-1.518c0.106,0.47,0.167,0.738,0.271,1.197c-3.919-0.996-9.459-0.143-13.663,0.319
			c0.178-0.81,0.303-1.381,0.428-1.952c0.262,0.098,0.525,0.195,0.816,0.304c0.718-0.851,0.754-1.406,0.109-1.664
			c-1.726,2.625-3.734,3.512-6.926,3.177c1.438-3.723,1.61-1.43,2.582-3.38c0.532-1.068,0.512-3.6,1.467-5.031
			c2.798-4.189,5.268-3.229,10.042-3.186c3.441,0.031,6.833-0.303,9.802,0.648c2.146,0.688,5.406,3.813,8.122,3.069
			c-1.526-2.669-4.734-2.092-7.023-3.622c24.685-1.1,49.734-0.655,74.443-0.242c18.998,0.318,39.581,1.25,58.788,0.801
			c22.93-0.536,46.917-1.041,70.279-0.799c7.194,0.075,13.601,0.127,20.838,0.073c5.515-0.041,11.031-0.087,16.549-0.1
			c1.476-0.004,6.6-0.682,7.502,0.437c1.188,1.472-0.954,1.731-0.605,3.652c0.753-0.791,2.446-1.63,2.073-2.678
			c7.932-3.597,20.598-1.391,29.553-1.391c0.379-9.355-0.361-18.775-1.917-27.999c-0.651-3.857-1.295-7.79-2.229-11.606
			c-0.858-3.508-5.827-13.236-3.996-16.361c-3.27-2.476-4.879-11.794-6.628-15.725c-0.92-2.069-3.825-5.239-3.971-7.493
			c-0.034-0.526-2.181-2.527,0.05-2.532c0.785-0.002,1.404,0.287,1.523,1.104c1.092-0.54,2.15-1.064,3.208-1.588
			c-0.093,0.957-0.881,2.084,0.582,2.599c3.598-3.309-0.334-1.847-1.388-4.742c-0.308,1.177-0.86,1.426-1.656,0.748
			c1.465-1.078,1.705-2.15,0.721-3.215c-1.2,0.252-3.026,0.333-3.829,1.175c0.418,1.843,0.856,1.73-0.356,1.273
			c-0.122,0.329-0.244,0.658-0.37,0.997c-2.081-0.411-4.086-6.37-5.213-8.195c-4.071-6.594-9.032-13.04-13.693-19.242
			c-7.478-9.95-18.141-18.657-28.023-26.459c-23.818-18.805-52.896-30.693-82.929-34.68C159.751,5.301,95.06,32.757,58.087,85.604
			c-5.938,8.487-11.346,15.512-15.328,24.31c-5.677,12.546-9.489,27.286-13.218,41.406c-1.839,0.374-3.644-0.684-5.136-1.334
			c-3.438-1.497-5.621-2.97-5.248-7.017c0.295-3.197,3.477-16.265,6.335-16.944c-4.359-3.79,11.987-30.088,14.52-34.581
			c6.989-12.394,16.047-24.821,26.364-34.659c20.182-19.244,42.294-35.283,68.757-45.188C162.112,1.5,191.285-1.861,219.699,0.958
			c15.209,1.509,30.421,5.105,44.739,10.433c6.596,2.454,12.994,5.358,19.258,8.562c4.302,2.201,15.26,5.686,16.549,10.55
			c0.195-0.227,0.39-0.453,0.582-0.677c12.503,8.184,22.832,17.865,33.265,27.942c5.772,5.575,31.773,31.567,24.501,38.656
			C359.308,96.449,360.577,95.04,360.496,94.05C361.083,94.076,360.555,94.774,360.496,94.05z M88.359,194.684
			c0.215,0.288,0.431,0.577,0.743,0.995c0.273-0.455,0.468-0.78,0.771-1.286c-3.36,0.674-0.164-0.961-2.891-1
			c0.032,0.605,0.057,1.079,0.08,1.53C87.601,194.824,87.98,194.754,88.359,194.684C88.575,194.972,87.98,194.754,88.359,194.684z
			 M29.287,129.027c-0.476-0.795-1.056-0.51-1.741-0.239c0.219,0.41,0.381,0.714,0.545,1.021c0.47-0.312,0.841-0.558,1.213-0.804
			c0.189,0.443,0.378,0.886,0.651,1.526c0.491-0.588,0.8-0.958,1.409-1.686C30.352,128.934,29.82,128.98,29.287,129.027
			C28.811,128.231,29.82,128.98,29.287,129.027z M287.274,195.161c0.028,1.433,1.128,0.786,1.949,0.784
			c-2.047-1.724-1.518-1.481-3.73-1.683C286.087,194.561,286.681,194.861,287.274,195.161
			C287.302,196.593,286.681,194.861,287.274,195.161z M84.564,193.77c0.031-0.884-0.494-1.336-1.496-1.878
			c0.306,1.535,1.127,2.648,2.466,3.34c1.188-1.41,1.188-1.41-0.584-2.849C85.313,193.178,85.63,193.88,84.564,193.77
			C84.596,192.885,85.63,193.88,84.564,193.77z M221.129,189.032c-0.574-0.393-1.149-0.785-1.724-1.179
			c-2.291,2.906,1.597,1.195,3.509,0.566c-0.349-0.626-0.63-1.13-1.132-2.031C222.03,187.401,221.813,188.283,221.129,189.032
			C220.555,188.639,221.346,188.681,221.129,189.032z M245.607,188.362c-0.973,1.987,0.502,4.149,2.539,5.016
			C246.674,191.472,246.679,189.946,245.607,188.362C245.353,188.881,246.094,189.083,245.607,188.362z M337.657,189.965
			c1.661,1.222,4.179,1.039,2.645-1.38C339.145,189.786,339.145,189.786,337.657,189.965
			C338.15,190.327,339.145,189.786,337.657,189.965z M324.638,60.605c-0.515-0.701-0.981-1.336-1.602-2.181
			c-0.316,0.972-0.536,1.649-0.716,2.203C323.238,62.041,323.808,60.595,324.638,60.605
			C324.123,59.905,323.808,60.595,324.638,60.605z M338.469,76.504c0.228-0.264,0.501-0.579,0.871-1.006
			c-0.764-0.311-1.485-1.96-1.839-2.024C336.977,74.499,336.877,76.178,338.469,76.504C338.697,76.24,338.252,76.459,338.469,76.504
			z M28.866,125.188c0.455,0.791,0.905,1.576,1.356,2.361c0.129-0.057,0.257-0.114,0.386-0.171
			c-0.199-0.659-0.398-1.319-0.596-1.976c0.333-0.114,0.616-0.211,0.911-0.312C29.972,124.537,29.972,124.537,28.866,125.188
			C29.32,125.979,29.972,124.537,28.866,125.188z M217.489,193.544c0.747,0.931,1.584,0.684,2.538,0.509
			c-0.52-0.768-0.945-1.395-1.442-2.128C218.387,192.677,218.433,193.418,217.489,193.544
			C218.236,194.476,218.433,193.418,217.489,193.544z M363.169,117.259c-0.964,0.837-0.975,1.458-0.183,2.071
			c0.365-0.332,0.722-0.658,1.23-1.12C363.882,117.906,363.551,117.605,363.169,117.259
			C362.205,118.096,363.551,117.605,363.169,117.259z M351.839,99.799c0.771,0.385,1.311-0.024,1.622-1.227
			c-0.513-0.251-0.844-0.412-1.419-0.693C351.965,98.611,351.902,99.205,351.839,99.799
			C351.989,99.845,351.902,99.205,351.839,99.799z M72.23,62.609c0.622-0.896,1.141-1.471,0.753-2.561
			C72.388,60.807,71.472,61.191,72.23,62.609z M53.641,86.478c0.32,0.304,0.59,0.561,1.039,0.987c0-1.033,0-1.815,0-2.796
			C54.282,85.363,53.999,85.854,53.641,86.478C53.961,86.782,53.999,85.854,53.641,86.478z M76.584,57.702
			c-0.252-0.304-0.481-0.58-0.815-0.983c-0.438,0.576-0.783,1.03-1.341,1.764C75.353,58.149,75.905,57.948,76.584,57.702
			C76.331,57.398,75.905,57.948,76.584,57.702z M333.934,73.201c0.24-0.801,0.418-1.395,0.662-2.208
			C333.385,71.52,333.001,72.061,333.934,73.201z M361.829,113.492c-0.09-0.172-0.179-0.345-0.269-0.517
			c-0.51,0.281-1.02,0.563-1.827,1.008C360.946,114.435,361.362,113.9,361.829,113.492
			C361.739,113.32,361.362,113.9,361.829,113.492z M112.536,194.925c0.629,0.799,1.296,0.809,2.109,0.52
			C114.099,194.445,113.384,194.661,112.536,194.925z M276.417,187.162c-0.137,0.115-0.274,0.229-0.411,0.344
			c0.187,0.743,0.675,1.211,1.966,1.693C277.241,188.24,276.829,187.701,276.417,187.162
			C276.28,187.277,276.829,187.701,276.417,187.162z M300.372,188.422c0.181,0.472,0.281,0.734,0.473,1.235
			c0.544-0.517,0.955-0.908,1.62-1.539C301.56,188.249,301.082,188.319,300.372,188.422
			C300.552,188.894,301.082,188.319,300.372,188.422z M381.165,164.972c0.787-0.688,1.283-1.235,0-2.005
			C381.165,163.694,381.165,164.257,381.165,164.972z M379.335,187.137c-0.238-0.355-0.579-0.866-1.157-1.731
			C378.776,187.133,378.776,187.133,379.335,187.137z M331.444,60.126c-1.284,0.779-1.284,0.779-0.36,1.484
			C331.198,61.136,331.313,60.663,331.444,60.126z M177.88,192.165c0.039,0.143,0.078,0.285,0.117,0.428
			c0.461-0.145,0.922-0.289,1.449-0.454c-0.257-0.445-0.421-0.729-0.524-0.907C178.523,191.589,178.201,191.877,177.88,192.165
			C177.919,192.308,178.201,191.877,177.88,192.165z M263.818,191.531c1.24,0.631,1.24,0.631,2.004-0.339
			C265.151,191.306,264.508,191.415,263.818,191.531z M364.448,115.581c0.29,0.491,0.581,0.981,1.022,1.726
			C365.805,116.159,365.512,115.67,364.448,115.581z M29.573,122.241c0.139-0.558,0.271-1.086,0.432-1.731
			C28.843,121.307,28.843,121.307,29.573,122.241z M24.917,142.072c-1.261,1.062-1.261,1.062-0.471,1.713
			C24.566,143.35,24.685,142.915,24.917,142.072z M44.696,96.599c-1.465-0.336-1.465-0.336-1.996,0.554
			C43.241,97.003,43.734,96.866,44.696,96.599z M31.474,133.906c0.664,0,1.1,0,1.762,0c-0.363-0.443-0.589-0.719-0.888-1.084
			C32.055,133.185,31.832,133.463,31.474,133.906C32.139,133.906,31.832,133.463,31.474,133.906z M319.882,55.251
			c-0.481,0.582-0.537,1.183-0.168,1.801C320.545,56.388,320.188,56.262,319.882,55.251
			C319.62,55.878,320.142,56.109,319.882,55.251z M250.268,186.719c-0.093,0.131-0.186,0.261-0.279,0.392
			c0.368,0.263,0.737,0.525,1.105,0.788c0.086-0.121,0.173-0.242,0.259-0.363C250.991,187.263,250.629,186.991,250.268,186.719
			C250.175,186.849,250.629,186.991,250.268,186.719z M388.113,188.819c0.64,0.298,1.252-0.396,1.467-0.424
			C388.967,188.273,388.478,188.414,388.113,188.819C388.308,188.91,388.27,188.678,388.113,188.819z M387.772,191.196
			c-0.748-0.528-1.13-0.797-1.748-1.233C386.239,190.99,386.573,191.329,387.772,191.196z M329.883,196.547
			c0.487-0.095,0.822-0.161,1.157-0.227c-0.103-0.32-0.206-0.641-0.409-1.273C330.315,195.682,330.152,196.007,329.883,196.547
			C330.37,196.451,330.152,196.007,329.883,196.547z M329.06,57.049c0.074-0.12,0.148-0.239,0.222-0.359
			c-0.381-0.234-0.762-0.468-1.144-0.702c-0.072,0.116-0.144,0.232-0.217,0.348C328.301,56.573,328.681,56.811,329.06,57.049
			C329.134,56.929,328.681,56.811,329.06,57.049z M69.504,68.861c0.122-0.048,0.244-0.095,0.366-0.143
			c-0.125-0.327-0.25-0.653-0.375-0.98C68.903,67.884,68.906,68.259,69.504,68.861C69.626,68.813,69.375,68.549,69.504,68.861z
			 M348.941,80.07c-0.084,0.152-0.167,0.305-0.251,0.457c0.467,0.644,0.857,0.709,1.169,0.194
			C349.554,80.505,349.248,80.287,348.941,80.07C348.858,80.223,349.248,80.287,348.941,80.07z M166.646,188.326
			c-0.131,0.057-0.261,0.114-0.392,0.171c0.202,0.429,0.405,0.858,0.607,1.286c0.12-0.056,0.24-0.111,0.36-0.167
			C167.03,189.186,166.838,188.756,166.646,188.326C166.516,188.383,166.838,188.756,166.646,188.326z M210.612,187.679
			c-0.112,0.108-0.223,0.217-0.335,0.325c0.315,0.337,0.63,0.674,0.944,1.012c0.142-0.139,0.285-0.278,0.427-0.417
			C211.303,188.292,210.958,187.985,210.612,187.679C210.501,187.787,210.958,187.985,210.612,187.679z M337.797,188.329
			c0.158-0.045,0.315-0.089,0.473-0.134c-0.11-0.31-0.221-0.62-0.331-0.931C337.354,187.335,337.307,187.69,337.797,188.329
			C337.955,188.285,337.713,188.021,337.797,188.329z M319.016,187.426c0.121-0.032,0.241-0.065,0.362-0.097
			c0.089-0.85-0.149-1.151-0.713-0.904C318.782,186.759,318.899,187.092,319.016,187.426
			C319.137,187.394,318.899,187.092,319.016,187.426z M108.987,28.853c-0.041,0.121-0.082,0.241-0.123,0.362
			c0.331,0.121,0.662,0.242,0.992,0.363C110.146,29.019,109.856,28.778,108.987,28.853
			C108.946,28.973,109.314,28.953,108.987,28.853z M377.19,179.4c0.101-0.04,0.202-0.08,0.303-0.119
			c-0.088-0.317-0.175-0.634-0.263-0.95c-0.177,0.069-0.354,0.137-0.531,0.206C376.863,178.824,377.027,179.112,377.19,179.4
			C377.291,179.36,377.027,179.112,377.19,179.4z M302.57,196.428c0.081-0.13,0.163-0.26,0.244-0.39
			c-0.319-0.267-0.429-1.119-1.288-0.176C301.927,196.079,302.249,196.254,302.57,196.428
			C302.652,196.298,302.249,196.254,302.57,196.428z M254.345,195.228c0.036,0.116,0.072,0.232,0.107,0.348
			c0.34-0.132,0.68-0.263,1.02-0.395C255.308,194.589,254.932,194.605,254.345,195.228
			C254.381,195.344,254.655,195.087,254.345,195.228z M376.062,166.286c0.08,0.1,0.16,0.2,0.24,0.299
			c0.344-0.291,0.687-0.582,1.031-0.873c-0.078-0.097-0.156-0.194-0.234-0.29C376.754,165.711,376.408,165.999,376.062,166.286
			C376.142,166.386,376.408,165.999,376.062,166.286z M29.822,134.071c0.125-0.039,0.25-0.079,0.376-0.118
			c-0.134-0.341-0.267-0.681-0.401-1.022C29.176,133.069,29.184,133.449,29.822,134.071
			C29.947,134.031,29.682,133.752,29.822,134.071z M28.29,125.712c-0.139,0.141-0.278,0.283-0.417,0.424
			c0.335,0.319,0.67,0.638,1.004,0.957c0.123-0.125,0.246-0.251,0.37-0.376C28.928,126.382,28.609,126.047,28.29,125.712
			C28.151,125.853,28.609,126.047,28.29,125.712z M363.128,121.843c0.464-0.854,0.464-0.854-0.621-1.192
			C362.734,121.087,362.911,121.426,363.128,121.843z M369.697,119.785c0.163,0.56,0.152,1.527,1.101,0.507
			C370.379,120.098,370.038,119.942,369.697,119.785z M45.733,97.346c0.137-0.092,0.274-0.183,0.41-0.275
			c-0.255-0.362-0.511-0.723-0.766-1.085c-0.114,0.07-0.228,0.141-0.341,0.211C45.268,96.581,45.5,96.964,45.733,97.346
			C45.869,97.255,45.5,96.964,45.733,97.346z"/>
		<path style="fill:#FFFFFF;" d="M32.592,276.915c-0.704,3.044-12.169,1.2-13.886,1.229c-0.629-0.13-1.104-0.494-1.425-1.091
			c-0.481,0.849-1.16,1.228-2.036,1.137c-0.577-0.112-3.372,0.605-3.415-0.499c-0.031-0.787-0.025-3.381-2.322-0.755
			c-1.101-0.806-0.659-1.212-2.356-1.737c-0.213,1.263,0.782,1.99,1.21,3.122c-2.839,0-5.6,0-8.361,0c0-3.937,0-7.875,0-11.812
			c1.157-0.137,2.314-0.273,3.715-0.439c-0.364,0.849-0.643,1.501-0.887,2.073c0.578,0.292,6.208,2.271,6.145-0.201
			c1.653,0.536,2.84,2.837,3.313-0.013c1.32,0.863,1.754,2.532,3.316,1.876c0.631,1.37-0.425,1.285,0.676,2.724
			c0.966-0.938,0.966-0.938,0.721-2.343c1.339,0.821,2.303,0.375,2.894-1.338c-0.403-0.574-0.894-0.405-1.473,0.506
			c-0.009-1.858-1.356-0.646-2.298-1.215c0.316,0.836,0.331,1.436-0.538,1.687c-1.302-1.85-3.374-1.18-0.99-3.174
			c1.841-1.54,8.48-0.227,10.86-0.221c2.013,0.004,4.245-0.411,6.428-0.246c4.286,0.324,3.474,1.523,6.546,3.893
			c1.565-0.817,1.502-1.877-0.19-3.181c1.568-0.467,3.13,0.814,3.764,2.174c0.528-1.576-0.482-2.009-1.254-2.838
			c2.419,0.084,5.273,0.745,7.447,0.745c-0.409,0.28-0.819,0.559-1.228,0.839c1.324,0.674,2.469,0.187,3.555,0.024
			c2.82-0.422,5.701-1.42,9.338-1.308c7.484,0.23,15.04-0.274,22.636-0.218c17.293,0.127,34.943,0.326,52.166,0.075
			c14.402-0.21,28.249,0.028,43.102-0.24c11.605-0.209,23.24,0.271,34.842,0.141c3.824-0.043,15.554,2.353,19.084,0.055
			c-0.078,1.355,0.23,2.99,1.323,3.813c0.307-1.403-1.66-1.89,0.099-3.413c3.317,1.097,11.797-2.458,14.48,0.79
			c0.221-2.487,5.931-0.881,6.816-0.819c4.616,0.324,4.416-0.589,7.069,3.271c1.095-5.257,5.524-3.335,9.263-3.221
			c1.732,0.053,9.595,0.893,10.045-0.48c0.931,0.234,1.831,0.46,2.73,0.686c-0.074,0.188-0.291,2.237,0.354,2.118
			c1.209-0.26,1.389-0.966,0.539-2.118c1.402-0.524,1.402-0.524,2.788,1.015c-0.093-0.593-0.142-0.905-0.2-1.273
			c0.039-0.066,3.484-0.263,3.591,0.747c-1.36-0.031-1.461,1.353-2.231,1.826c0.712,0.701,1.454,0.901,2.227,0.602
			c-0.891-0.768-0.896-1.584-0.015-2.447c0.749,1.534,1.683,1.701,2.802,0.501c-0.29-0.436-0.614-0.924-0.94-1.414
			c0.462-0.294,3.592-0.299,3.832-0.292c1.162-0.154,2.156,0.143,2.982,0.89c0.846,0.987,1.666,0.826,2.459-0.482
			c8.041,1.625,1.698,2.762,2.958,4.828c0.505-0.168,1.009-0.336,1.514-0.503c-0.203-0.485-0.345-0.824-0.487-1.163
			c0.199,0.025,6.139-0.106,4.674,0.679c-0.139-0.389-0.279-0.778-0.418-1.167c1.765,0.137,2.394-0.016,1.888-0.458
			c0.385,0.244,0.771,0.489,1.156,0.733c-0.394,0.792-1.222,0.274-1.945,0.447c0.603,0.74,1.173,1.438,1.865,2.286
			c3.353-3.426,5.358,2.981,9.48,1.288c0.267,0.773,0.506,1.467,0.883,2.561c0.287-0.463,0.397-0.641,0.365-0.59
			c0.593,0.439,4.036,2.207,4.085,2.72c-3.156,0-12.506,1.98-11.918-2.85c-0.536,0.256-0.983,0.469-1.445,0.69
			c0.312,0.462,0.566,0.838,0.82,1.214c-3.605,2.415-10.43,0.049-14.871,0.913c0.028-0.361,0.053-0.697,0.08-1.046
			c-2.409-0.187-1.574-0.166-3.678-0.621c0.246,0.535,0.415,0.901,0.584,1.267c-1.281,0.354-2.795,0.45-3.476-0.455
			c0.068-0.032,0.18-0.048,0.198-0.098c0.331-0.953-0.431-1.846-1.551-1.827c-1.295,0.33,0.43,1.778,0.831,2.728
			c-4.001-0.72-8.887-0.083-12.894-0.063c-0.952,0.088-1.71-0.31-2.275-1.196c-0.479,0.905-1.173,1.329-2.081,1.272
			c-2.062-0.316-4.863,0.23-6.096-2.131c0.073,0.473,0.146,0.947,0.218,1.421c-2.003,1.563-2.947-2.54-4.631-0.624
			c-0.034-2.731-1.924-3.104,1.362-4.662c-2.078-0.643-2.131,2.687-3.276-0.45c-0.495,0.527-0.878,0.935-1.395,1.485
			c-0.772-0.638-1.471-1.216-2.179-1.801c-0.152,0.476,0.507,1.351-0.659,1.18c0.18-0.628-0.003-1.063-0.55-1.306
			c-0.353,1.659,4.909,2.827,5.691,4.771c-1.347,0.946-2.064-0.253-2.912-0.947c-0.914,1.02,0.435,1.906,0.05,2.837
			c-3.162,0.731-6.965,0.625-8.202-2.37c0.858,0,1.7,0,2.513,0c0.245-0.674,0.93-1.304-0.175-1.921
			c-0.415,0.385-2.571,1.151-2.669,1.334c-0.801,1.5,1.213,1.448,0.961,2.991c-3.174-1.038-13.674,2.495-15.075-1.618
			c-1.13,1.898-10.958,3.667-10.337,0.007c0.3-0.007,2.772,0.818,2.961,0.893c0-0.644,0-1.214,0-1.824
			c-3.318,0.942-0.515,0.067-3.307-0.693c-1.017-0.277-0.077,3.301-0.184,2.726c-5.951,1.991-13.746,0.675-20.048,0.712
			c-9.425,0.055-18.835,0.148-28.254,0.106c-14.285-0.064-28.107-0.015-42.121-0.009c-18.678,0.007-37.359,0.179-56.036,0.005
			c-7.108-0.066-14.964-0.464-21.683-0.394c-3.108,0.032-10.299,1.519-12.777-1.242c0.136,0.748,0.187,1.028,0.239,1.31
			c-1.806,0.446-6.42,0.436-8.246-0.042c0.144-0.373,0.348-0.709,0.612-1.007c-0.538-0.909-3.415,1.969-5.207,0.858
			c-1.556-0.965,1.169-3.239-0.423-4.044c0.024-0.086-0.572,2.164-0.653,2.164c-0.401-0.142-0.802-0.284-1.203-0.426
			C32.816,276.083,32.897,276.546,32.592,276.915z M38.282,272.187c-0.415-0.07-0.83-0.139-1.478-0.248
			c0.251,0.451,0.414,0.743,0.668,1.199c1.091-1.335,1.44-1.716-0.194-2.59C37.782,271.371,38.032,271.779,38.282,272.187
			C37.867,272.118,38.032,271.779,38.282,272.187z M247.115,273.605c-0.554,0.235-1.108,0.469-1.66,0.706
			c0.329,0.174,0.658,0.349,0.987,0.523c0.23-1.404,0.993-1.724,2.288-0.958c-0.58-0.669-0.948-1.094-1.544-1.782
			C247.15,272.862,247.132,273.233,247.115,273.605C246.561,273.839,247.132,273.233,247.115,273.605z M296.236,269.825
			c-0.484-0.622-0.458-1.766-1.964-1.802c0.632,0.473,1.977,1.761,2.11,2.533c0.553-0.167,1.059-0.319,1.615-0.487
			c-0.244-0.411-0.424-0.714-0.605-1.019C296.974,269.33,296.605,269.578,296.236,269.825
			C295.752,269.203,296.605,269.578,296.236,269.825z M275.462,269.352c-0.657-0.602-1.314-1.203-2.08-1.904
			c0,0.461,0,0.846,0,1.315c-0.723-0.481-1.333-0.934-1.934-0.037c1.36,0.541,2.922,0.441,4.016,1.554
			c0.212,1.769-1.451,1.048-2.342,0.713c-1.118,1.365-0.019,2.386,0.345,3.708c1.854-0.974,5.414-4.641,5.228-6.646
			c-0.591,0.655-1.069,1.184-1.533,1.697c-0.608-0.484-1.05-0.836-1.585-1.261C275.521,268.908,275.492,269.13,275.462,269.352
			C274.804,268.751,275.492,269.13,275.462,269.352z M298.822,272.437c-2.401-0.344-3.458-0.828-5.072,0.874
			c0.27,0.279,0.475,0.491,0.687,0.71c0.389-0.427,0.63-0.69,0.944-1.034c0.526,0.6,0.937,1.07,1.662,1.898
			C296.338,273.496,296.931,272.68,298.822,272.437C297.286,272.217,297.94,272.956,298.822,272.437z M25.449,273.679
			c-0.117,0.05-0.234,0.1-0.351,0.15c0.404,0.741,0.381,1.486-0.07,2.235c0.81,0.321,1.354,1.275,2.419,0.423
			C26.751,275.51,26.1,274.595,25.449,273.679C25.332,273.729,26.1,274.595,25.449,273.679z M309.621,276.298
			c0.848,0.415,1.384-0.062,1.606-1.432c-0.241-0.248-2.968-1.77-3.056-0.559C309.655,274.201,310.139,274.864,309.621,276.298
			C309.786,276.346,309.621,275.802,309.621,276.298z M280.569,272.707c-0.902-0.316-1.675-0.587-2.782-0.974
			c0.826,0.987,1.383,1.652,2.04,2.438C280.132,273.568,280.328,273.182,280.569,272.707
			C279.667,272.391,280.328,273.182,280.569,272.707z M105.978,269.281c-1.02-0.045-1.665-0.073-2.369-0.104
			c0.164,0.603-0.879,1.158-0.064,1.811C104.26,270.487,104.951,270.002,105.978,269.281
			C104.958,269.236,104.951,270.002,105.978,269.281z M299.049,274.562c0.941-0.462,1.582-0.777,2.282-1.121
			c-0.574-0.41-1.056-0.755-1.588-1.136C299.53,273.001,299.337,273.628,299.049,274.562
			C299.991,274.099,299.337,273.628,299.049,274.562z M50.874,274.512c0.338-1.44-0.832-1.614-1.473-2.155
			C49.345,273.382,50.156,273.804,50.874,274.512z M268.051,272.059c0.13,1.448,0.13,1.448,1.879,1.854
			C269.217,273.21,268.736,272.736,268.051,272.059z M36.842,271.283c-0.582-0.833-0.967-1.384-1.353-1.936
			C35.364,270.252,35.519,270.963,36.842,271.283z M283.604,275.357c0.497,0.464,0.993,0.929,1.782,1.667
			C285.2,275.724,284.551,275.397,283.604,275.357z M32.29,270.521c-1.013,1.241-1.013,1.241-0.748,2.507
			C31.78,272.229,31.957,271.637,32.29,270.521z M278.086,275.65c1.467-0.891,0.711-1.42,0.123-2.29
			C278.162,274.23,278.133,274.772,278.086,275.65z M26.815,269.576c-0.041,1.131-0.041,1.131,0.959,1.528
			C27.445,270.579,27.204,270.195,26.815,269.576z M48.212,270.657c-0.834-1.01-1.282-0.89-1.804,0
			C47.015,270.657,47.456,270.657,48.212,270.657z M255.749,272.291c0.47-0.635,0.372-1.101-0.296-1.397
			C255.076,271.465,255.174,271.931,255.749,272.291C255.882,271.858,255.475,271.975,255.749,272.291z M7.717,272.99
			c0-0.873-0.218-1.464-1.627-1.357C6.869,272.282,7.293,272.636,7.717,272.99z M130.869,271.224
			c0.075,0.761,0.12,1.218,0.176,1.788C131.968,272.401,131.895,271.938,130.869,271.224z M289.293,272.973
			c0.118-0.094,0.236-0.188,0.355-0.282c-0.363-0.443-0.726-0.885-1.09-1.328c-0.122,0.097-0.243,0.194-0.365,0.291
			C288.56,272.094,288.927,272.534,289.293,272.973C289.412,272.879,288.927,272.534,289.293,272.973z M2.02,273.458
			c0.111-0.084,0.222-0.168,0.334-0.253c-0.348-0.448-0.695-0.895-1.043-1.343c-0.113,0.086-0.227,0.172-0.34,0.257
			C1.32,272.566,1.67,273.012,2.02,273.458C2.131,273.374,1.67,273.012,2.02,273.458z M245.514,272.29
			c-0.242,0.166-0.654,0.448-1.177,0.807C245.396,273.199,245.396,273.199,245.514,272.29z M13.326,272.504
			c0.291,0.354,0.581,0.709,1.075,1.31C14.23,272.706,14.23,272.706,13.326,272.504z M231.646,273.305
			c-0.241-1.096-0.648-1.328-1.22-0.698C230.553,273.247,230.959,273.48,231.646,273.305
			C231.349,272.849,230.893,273.267,231.646,273.305z M3.006,274.781c0.508-0.146,1.017-0.292,1.939-0.556
			C3.761,273.621,3.345,274.074,3.006,274.781z M302.952,271.184c0.126-0.125,0.251-0.25,0.377-0.375
			c-0.326-0.326-0.652-0.652-0.977-0.979c-0.133,0.132-0.265,0.264-0.398,0.396C302.287,270.546,302.619,270.865,302.952,271.184
			C303.078,271.059,302.619,270.865,302.952,271.184z M63.153,276.406c-0.055-0.133-0.11-0.266-0.165-0.399
			c-0.442,0.2-0.884,0.401-1.325,0.601c0.044,0.109,0.088,0.219,0.132,0.328C62.247,276.76,62.7,276.583,63.153,276.406
			C63.098,276.273,62.7,276.583,63.153,276.406z M317.567,275.921c-0.1,0.085-0.201,0.17-0.301,0.255
			c0.3,0.328,0.601,0.657,0.901,0.986c0.093-0.078,0.185-0.156,0.278-0.234C318.152,276.591,317.859,276.256,317.567,275.921
			C317.467,276.006,317.859,276.256,317.567,275.921z M43.277,274.052c0.191-0.569,0.306-0.912,0.506-1.509
			C42.968,272.965,42.278,273.142,43.277,274.052z M291.944,274.087c0.098-0.077,0.197-0.154,0.295-0.231
			c-0.295-0.342-0.591-0.683-0.886-1.025c-0.092,0.076-0.184,0.152-0.276,0.227C291.366,273.401,291.655,273.744,291.944,274.087
			C292.042,274.01,291.655,273.744,291.944,274.087z M159.162,266.997c-0.079,0.097-0.157,0.193-0.236,0.29
			c0.336,0.295,0.672,0.59,1.008,0.885c0.088-0.102,0.175-0.203,0.263-0.305C159.852,267.577,159.507,267.287,159.162,266.997
			C159.084,267.093,159.507,267.287,159.162,266.997z M272.092,275.041c0.132,1.053,0.132,1.053,0.612,1.064
			C272.539,275.818,272.315,275.429,272.092,275.041z"/>
		<path style="fill:#FFFFFF;" d="M29.778,236.773c-0.928-0.207-1.856-0.415-2.876-0.643c0.601-0.911,0.76-1.702,0.658-2.682
			c-2.921,1.043-1.687,9.97-3.945,9.919c-0.072-0.28-0.143-0.56-0.243-0.951c-0.602,0.375-1.082,0.674-1.594,0.992
			c0.695,0.85,1.259,0.054,1.856-0.062c1.008,1.578,0.011,2.964-0.353,4.661c-0.902-0.768-1.753-1.169-2.818-0.624
			c0.225,0.379,0.447,0.752,0.855,1.438c0.283-0.441,0.446-0.695,0.645-1.004c5.698,8.082-9.959,7.374-12.965,7.182
			c1.868-5.377-4.13-13.179-2.546-18.097c-1.789-0.322-3.048-9.178-3.197-10.097C2.476,221.993,0,216.265,0,211.228
			c5.238-1.019,8.495-0.597,10.054,3.995c0.707,2.081,3.079,8.307-0.002,10.289c2.542,0,4.589,3.934,1.875,5.364
			c3.644,0.811,1.493,6.51,3.812,8.754c0.792-3.813,4.567-24.973,6.471-24.632c-2.378-3.554,4.613-5.018,7.023-3.653
			c2.873,1.627,2.947,4.373,3.727,7.829c0.476,2.108,2.783,20.389,4.617,20.809c0.365-6.714,3.119-13.677,4.467-20.22
			c1.991-9.666,1.15-8.471,11.176-8.471c-0.951,4.501-2.329,23.199-6.728,24.786c1.561,3.075-0.559,14.116-3.33,15.285
			c1.862,3.853-5.118,4.98-7.319,1.715c-1.696,6.347-5.479-1.807-5.837-2.292c0.874-0.331,1.468-0.556,2.043-0.773
			c-0.355-1.395-1.089-0.474-1.635-0.144c-1.356-2.576-1.432-3.983-0.259-5.932c-0.472,0.048-0.811,0.083-1.253,0.128
			c0-0.767,0-1.525,0-2.275c0.405,0,0.749,0,1.119,0c-0.482-1.185-4.36-3.389-1.503-4.618c0.458,0.578,0.923,1.164,1.583,1.996
			c0.129-1.8,1.429-3.337-0.324-4.549C29.778,235.386,29.778,236.079,29.778,236.773C28.85,236.565,29.778,236.079,29.778,236.773z
			 M25.505,219.287c0.613,0.535,1.035,0.37,1.265-0.494c-0.388-0.378-0.775-0.756-1.163-1.135c-0.197,1.417-1.448,1.358-0.49,2.902
			C25.245,220.14,25.375,219.714,25.505,219.287C25.74,219.396,25.375,219.714,25.505,219.287z M12.288,242.408
			c0.43,0.806,0.684,1.762,1.78,2.203c-0.262-0.933-0.477-1.7-0.68-2.42c-1.431,0.543-2.708,0.107-3.831-1.308
			c-0.25,0.295-0.508,0.601-0.805,0.951C9.99,241.986,10.987,243.096,12.288,242.408C12.717,243.214,10.987,243.096,12.288,242.408z
			 M21.79,231.569c1.087,1.08,2.36,0.719,3.857,0.719c-2.016-1.539-2.079-3.509-4.617-3.384c0.167,0.361,0.33,0.716,0.5,1.083
			c-0.428,0.137-0.736,0.235-1.34,0.428C20.836,230.653,21.369,231.038,21.79,231.569C22.032,231.809,21.6,231.377,21.79,231.569z
			 M20.036,232.963c0,2.719,1.294,3.394,3.64,2.476C22.415,234.581,21.289,233.815,20.036,232.963
			C20.036,233.818,21.289,233.815,20.036,232.963z M24.467,223.967c1.313-1.101,1.27-1.289-0.623-3.097
			C23.216,221.992,23.254,223.004,24.467,223.967z M29.764,224.931c0.507-0.295,0.876-0.51,1.244-0.724
			c-0.615-1.033-1.66-1.468-2.602-0.723C28.858,223.966,29.26,224.395,29.764,224.931C30.271,224.636,29.26,224.395,29.764,224.931z
			 M9.762,236.629c-0.712,0.915-1.652,1.322-0.846,2.596C9.687,237.738,10.462,238.367,9.762,236.629
			C9.05,237.544,10.001,237.224,9.762,236.629z M38.141,246.364c-0.49-0.589-0.896-1.078-1.639-1.97
			c0.338,1.008,0.458,2.04,0.358,3.097C37.343,247.066,37.669,246.779,38.141,246.364C37.651,245.775,37.669,246.779,38.141,246.364
			z M43.414,222.926c0.466,0.075,1.109,0.177,1.967,0.315c-0.619-0.746-1.109-1.337-1.662-2.003
			C43.603,221.88,43.509,222.396,43.414,222.926C43.88,223,43.509,222.396,43.414,222.926z M11.594,234.606
			c-0.464,1.139-0.015,1.889,1.079,2.346C12.313,236.169,11.954,235.387,11.594,234.606z M5.856,232.369
			c-0.127,0.1-0.254,0.2-0.382,0.299c0.817,1.382,1.684,1.495,2.602,0.337C7.21,232.757,6.533,232.563,5.856,232.369
			C5.729,232.468,6.533,232.563,5.856,232.369z M17.545,249.254c0.783-0.195,1.572-0.22,2.368-0.073
			C18.34,248.085,18.34,248.085,17.545,249.254C17.945,249.192,18.34,248.085,17.545,249.254z M22.998,244.939
			c-0.572-0.249-0.971-0.422-1.811-0.787c0.496,0.888,0.772,1.382,1.14,2.04C22.592,245.698,22.762,245.381,22.998,244.939
			C22.426,244.691,22.762,245.381,22.998,244.939z M11.257,227.427c-0.099,0.029-0.198,0.057-0.297,0.086
			c-0.008-0.045-0.153,2.337,0.19,1.924C11.916,228.831,11.952,228.161,11.257,227.427
			C11.158,227.456,11.434,227.799,11.257,227.427z M17.502,246.878c-0.893-0.367-0.893-0.367-1.735,0.054
			c0.17,0.326,0.339,0.651,0.554,1.062C16.698,247.636,17.019,247.333,17.502,246.878C16.608,246.511,17.019,247.333,17.502,246.878
			z M9.862,230.608c0.09-1.055-0.359-1.722-1.371-1.983C8.948,229.286,9.405,229.947,9.862,230.608z M17.964,236.761
			c0.921,0.79,1.531,1.06,1.844-0.5C19.133,236.444,18.629,236.581,17.964,236.761z M8.278,215.968
			c-0.545-0.314-0.806-0.464-1.068-0.615c-0.166,0.425-0.331,0.85-0.605,1.553C7.252,216.543,7.578,216.36,8.278,215.968
			C7.733,215.654,7.578,216.36,8.278,215.968z M28.071,232.18c0.385,0.668,0.741,1.417,1.973,0.754
			C29.179,232.604,28.625,232.392,28.071,232.18z M34.906,243.11c-0.913-0.271-1.274-0.378-1.636-0.485
			c0.01,0.335,0.02,0.669,0.031,1.004C33.656,243.514,34.011,243.4,34.906,243.11C33.993,242.84,34.011,243.4,34.906,243.11z
			 M8.983,232.954c0.398,0.541,0.797,1.082,1.312,1.782C10.457,233.589,9.883,233.126,8.983,232.954z M16.999,252.575
			c0.971,0.8,1.371,0.248,1.727-0.471C18.219,252.243,17.711,252.381,16.999,252.575z M11.644,244.474
			c-0.719,1-0.072,1.183,0.629,1.353C12.064,245.376,11.854,244.925,11.644,244.474z M33.695,237.574
			c0.133-0.168,0.266-0.336,0.399-0.504c-0.637-0.072-0.417-1.229-1.81-0.689C32.841,236.852,33.268,237.213,33.695,237.574
			C33.828,237.406,33.268,237.213,33.695,237.574z M18.52,247.002c0.136-0.106,0.272-0.213,0.408-0.319
			c-0.385-0.421-0.77-0.842-1.155-1.263c-0.098,0.081-0.195,0.162-0.293,0.243C17.827,246.109,18.173,246.556,18.52,247.002
			C18.656,246.896,18.173,246.556,18.52,247.002z M28.173,226.483c-0.003,0.791,0.21,1.333,1.308,0.989
			C28.897,227.029,28.535,226.756,28.173,226.483z M36.846,250.922c0.195,0.163,0.389,0.326,0.584,0.489
			c0.273-0.352,0.547-0.703,1.099-1.413C37.678,250.465,37.262,250.694,36.846,250.922
			C37.041,251.085,37.262,250.694,36.846,250.922z M27.045,215.041c-0.134,0.085-0.267,0.171-0.401,0.256
			c0.241,0.367,0.482,0.734,0.723,1.101c0.118-0.069,0.237-0.138,0.355-0.207C27.496,215.808,27.271,215.425,27.045,215.041
			C26.911,215.127,27.271,215.425,27.045,215.041z M30.959,220.83c-0.148-1.183-0.148-1.183-0.979-1.281
			C30.247,219.898,30.522,220.258,30.959,220.83z M43.346,237.796c-0.107,0.102-0.214,0.204-0.32,0.307
			c0.307,0.336,0.614,0.671,0.921,1.007c0.149-0.145,0.299-0.289,0.448-0.434C44.046,238.382,43.696,238.089,43.346,237.796
			C43.24,237.898,43.696,238.089,43.346,237.796z M17.049,242.449c-0.092,0.046-0.185,0.093-0.277,0.139
			c0.112,0.465,0.327,0.879,0.646,1.241c0.106-0.064,0.211-0.129,0.317-0.193C17.506,243.24,17.278,242.844,17.049,242.449
			C16.957,242.495,17.278,242.844,17.049,242.449z M7.01,224.364c-0.125-0.126-0.25-0.252-0.375-0.378
			c-0.321,0.323-0.643,0.646-0.964,0.969c0.125,0.126,0.251,0.253,0.376,0.379C6.368,225.01,6.689,224.687,7.01,224.364
			C6.885,224.238,6.689,224.687,7.01,224.364z M20.249,221.883c0.289,1.214,0.557,1.622,1.505,1.427
			C21.267,222.849,20.942,222.54,20.249,221.883z"/>
		<path style="fill:#FFFFFF;" d="M0,185.715c3.265,0.175,12.284,1.661,14.232-0.945c1.22-1.631,0.07-7.551,0.285-9.848
			c0.645-6.877-0.062-18.354,4.218-23.887c-0.279-0.261-0.5-0.466-0.809-0.755c0.347-0.151,0.617-0.268,0.892-0.388
			c-0.276-0.407-0.54-0.797-0.837-1.234c1.736-0.496,4.815,2.565,6.525,3.355c6.019,2.78,3.795,5.465,2.84,11.587
			c-0.57,3.656-0.528,7.988-0.808,11.918c-0.219,3.068-0.103,7.217-1.171,9.551c3.281,1.816,10.959,1.218,14.726,1.182
			c6.147-0.059,13.135-0.327,19.55-0.485c2.927-0.072,10.061-1.052,11.963,0.977c0.397-0.352,0.794-0.704,1.191-1.056
			c0.56,0.393-1.074,3.597-1.208,3.934c-0.396-0.347-0.652-0.571-0.92-0.806c-0.935,1.033-4.104,7.217-3.279,8.504
			c-1.932,1.238-7.856-0.087-10.044-0.06c-7.928,0.099-19.879,2.63-27.243-0.731c-0.031,0.31-0.052,0.512-0.073,0.727
			c-2.311,0.513-3.383,0.298-4.308-0.912c-1.099,3.028-6.076-0.059-6.915-1.199c-0.229,0.812-0.439,1.557-0.68,2.413
			c-1.446-0.644-1.203-1.628-2.52-2.324c0.259,1.019,0.408,1.771,1.403,1.817c-0.411,1.222-15.41,0.41-17.013,0.476
			C0,193.589,0,189.652,0,185.715C2.151,185.83,0,189.652,0,185.715z M25.996,158.321c-0.491,0.441-0.982,0.882-1.491,1.339
			c1.355,1.397,1.451-0.429,1.472-1.36c0.271,0.078,0.542,0.156,1.04,0.3c-0.21-0.49-0.346-0.807-0.482-1.123
			C26.355,157.757,26.175,158.039,25.996,158.321C25.504,158.762,26.175,158.039,25.996,158.321z M29.759,194.683
			c0.608,0.01,1.196-0.084,1.763-0.283c-0.374-1.398-1.183-1.547-2.427-0.449c0.288,0.317,0.484,0.534,0.68,0.75
			c-1.159,0.136-3.09,0.16-1.587,1.63C28.045,196.401,29.797,194.644,29.759,194.683C30.166,194.642,29.508,194.938,29.759,194.683z
			 M20.658,164.075c0.663,0.816,1.074,1.323,1.544,1.901c0.297-0.665,0.5-1.12,0.757-1.695
			C22.236,164.216,21.667,164.165,20.658,164.075C21.32,164.891,21.667,164.165,20.658,164.075z M33.556,190.351
			c0.505,0.943,0.965,1.158,1.38,0.643c-0.469-1.516-1.349-1.796-2.639-0.838c0.175,0.373,0.328,0.7,0.5,1.065
			C33.061,190.918,33.257,190.694,33.556,190.351C34.05,190.707,33.257,190.694,33.556,190.351z M25.832,193.253
			c0.598,0.794,0.852,1.132,1.421,1.887c0.189-0.924,0.281-1.374,0.373-1.824C27.169,193.299,26.712,193.283,25.832,193.253
			C26.431,194.047,26.712,193.283,25.832,193.253z M18.275,171.791c-0.064-0.153-0.127-0.306-0.191-0.458
			c-0.49,0.2-0.979,0.4-1.539,0.628c0.208,0.407,0.416,0.813,0.654,1.277C17.579,172.728,17.927,172.259,18.275,171.791
			C18.212,171.638,17.927,172.259,18.275,171.791z M54.675,196.136c0.839-0.464,1.279-0.899,0.897-1.724
			C54.5,195.259,54.484,195.287,54.675,196.136z M14.888,179.48c0.49,0.725,1.727,0.227,1.301-0.406
			C15.803,178.498,15.045,179.139,14.888,179.48C15.271,180.046,14.936,179.376,14.888,179.48z M20.326,159.192
			c-1.245-0.457-1.778-0.291-1.598,0.499C19.372,160.3,19.905,160.134,20.326,159.192C19.597,159.235,19.611,160.238,20.326,159.192
			z M66.916,186.32c1.055,1.262,1.055,1.262,1.845,0.488C68.261,186.675,67.779,186.548,66.916,186.32z M55.237,190.781
			c0.653,1.402,1.245,0.66,2.335,0C56.498,190.781,55.924,190.781,55.237,190.781z M11.813,191.719
			c-1.141-0.211-1.617,0.322-1.428,1.6C10.942,192.694,11.268,192.329,11.813,191.719C11.265,191.771,11.268,192.329,11.813,191.719
			z M15.923,181.929c-0.264,0.725-0.445,1.221-0.625,1.717C15.985,183.343,16.623,183.021,15.923,181.929z M10.226,186.487
			c-0.441-0.295-0.824-0.054-1.149,0.724C9.544,187.711,10.285,187.088,10.226,186.487
			C10.167,186.455,10.239,186.624,10.226,186.487z M18.054,188.872c-0.566-1.318-1.134-1.146-1.809-0.489
			C16.762,188.523,17.248,188.654,18.054,188.872z M21.1,188.725c0.055,0.8,0.163,1.504,1.256,1.35
			C21.854,189.534,21.477,189.129,21.1,188.725z M64.631,190.565c-0.112,0.052-0.225,0.103-0.337,0.155
			c0.148,0.342,0.296,0.684,0.444,1.026C65.303,191.504,65.267,191.111,64.631,190.565
			C64.519,190.616,64.786,190.874,64.631,190.565z M59.175,190.749c0.133-0.094,0.266-0.187,0.399-0.281
			c-0.16-0.287-0.32-0.575-0.479-0.862C58.502,189.789,58.529,190.17,59.175,190.749C59.308,190.655,59.025,190.437,59.175,190.749z
			 M36.049,187.222c0.645,0.63,0.645,0.63,1.478,0C37.025,187.222,36.574,187.222,36.049,187.222z M10.575,196.524
			c0.051-0.119,0.102-0.238,0.154-0.356c-0.593-0.632-0.977-0.646-1.153-0.042C9.908,196.258,10.241,196.391,10.575,196.524
			C10.626,196.405,10.241,196.391,10.575,196.524z M25.44,173.933c0.158-0.14,0.316-0.281,0.474-0.421
			c-0.337-0.303-0.674-0.606-1.012-0.91c-0.104,0.093-0.207,0.186-0.311,0.28C24.874,173.232,25.157,173.582,25.44,173.933
			C25.598,173.792,25.157,173.582,25.44,173.933z M25.243,168.014c-0.088-0.594-0.189-1.527-1.014-0.544
			C24.603,167.671,24.923,167.842,25.243,168.014z M34.926,195.606c0.107-0.078,0.215-0.156,0.322-0.233
			c-0.255-0.36-0.51-0.72-0.765-1.08c-0.097,0.068-0.193,0.135-0.29,0.203C34.438,194.865,34.682,195.236,34.926,195.606
			C35.034,195.528,34.682,195.236,34.926,195.606z M5.905,194.582c0.137,0.03,0.275,0.061,0.412,0.091
			c0.099-0.516,0.199-1.033,0.298-1.549c-0.107-0.023-0.214-0.046-0.321-0.069C6.164,193.564,6.035,194.073,5.905,194.582
			C6.043,194.612,6.035,194.073,5.905,194.582z M18.666,194.18c0.192-0.696,0.333-1.21,0.539-1.956
			C18.184,192.795,18.38,193.38,18.666,194.18z M67.119,192.303c-0.154-0.153-0.309-0.307-0.463-0.46
			c-0.324,0.33-0.647,0.66-0.971,0.99C66.071,193.307,66.55,193.13,67.119,192.303C66.964,192.15,66.693,192.531,67.119,192.303z"/>
		<path style="fill:#FFFFFF;" d="M175.289,385.1c1.994-2.681,3.061-9.23-0.39-10.911c2.866-1.275,3.306,0.666,3.306,2.915
			c1.552,0.6,2.829,0.652,4.035-0.461c0,0.78,0,1.414,0,2.01c-1.286,0-2.561,0-3.964,0c0,1.774,0,3.464,0,5.302
			c1.791,0.152,3.608,0.615,5.307-0.543c0.547,0.662-0.033,1.149-0.261,1.689C180.644,385.1,177.966,385.1,175.289,385.1
			C175.515,384.796,177.966,385.1,175.289,385.1z"/>
		<path style="fill:#FFFFFF;" d="M204.583,385.1c-0.092-0.216-0.183-0.433-0.357-0.842c2.722,0.326,1.596-6.85,0.983-8.657
			c-0.362,0.327-0.622,0.563-0.937,0.849c-0.259-1.212,2.21-2.79,2.952-3.466c-0.411,5.225,0.095,7.3,1.139,12.117
			C207.103,385.1,205.843,385.1,204.583,385.1C204.491,384.884,205.843,385.1,204.583,385.1z"/>
		<path style="fill:#FFFFFF;" d="M231.995,373.749c0.691-0.328,1.366-0.786,2.156-0.246c-1.949,3.231-5.78,8.65-2.165,11.597
			c-1.102,0-2.205,0-3.307,0C228.265,380.658,232.32,377.711,231.995,373.749z"/>
		<path style="fill:#FFFFFF;" d="M195.162,381.772c2.267,3.695,2.413,3.328-1.919,3.328
			C193.503,383.914,194.345,382.672,195.162,381.772z"/>
		<path style="fill:#FFFFFF;" d="M220.648,384.156c2.324-1.574,1.838,1.095,3.764-1.506c0.19,0.956,0.339,1.703,0.487,2.45
			C223.27,385.1,221.416,385.692,220.648,384.156C221.529,383.559,220.805,384.471,220.648,384.156z"/>
		<path style="fill:#FFFFFF;" d="M188.517,384.154c0,0.315,0.001,0.631,0.001,0.947c-2.519,0-4.556-0.221-4.006-3.269
			C186.169,382.691,186.043,384.505,188.517,384.154z"/>
		<path style="fill:#FFFFFF;" d="M214.059,384.177c-0.009,0.308-0.018,0.615-0.027,0.923c-1.594,0.4-2.983,0.045-4.167-1.062
			C211.124,383.91,212.768,384.249,214.059,384.177z"/>
		<path style="fill:#FFFFFF;" d="M198.913,385.1c0.021-0.683,0.438-1.842,1.298-0.778
			C199.924,384.949,199.491,385.208,198.913,385.1C198.918,384.944,199.07,385.1,198.913,385.1z"/>
		<path style="fill:#FFFFFF;" d="M219.712,383.63c-0.004,0.49-0.007,0.98-0.01,1.47c-0.158,0-0.315,0-0.472,0
			C218.696,383.965,218.696,383.965,219.712,383.63C219.709,384.12,218.696,383.965,219.712,383.63z"/>
		<path style="fill:#FFFFFF;" d="M209.331,255.151c-6.615,0-9.745,1.366-12.602-4.984c-2.287-5.084-4.203-10.392-6.301-15.558
			c0,7.138,0,13.724,0,20.467c-3.175,0-6.196,0-9.419,0c-0.867-14.425-0.103-29.083-0.103-43.746c2.06-0.265,4.73-0.428,6.783-0.077
			c4.018,0.688,2.855-0.11,5.121,3.682c1.407,2.355,4.632,8.588,3.754,11.286c-0.44-0.305-0.755-0.524-1.11-0.77
			c-0.552,1.233,0.054,2.242,1.818,3.025c0.141-0.322,0.27-0.618,0.508-1.162c0.336,1.555,0.795,2.178,1.98,3.45
			c0.027-0.439,0.085-1.386,0.171-2.782c0.874,1.456,1.975,1.413,3.075,1.376c-0.066-0.719-0.132-1.438-0.216-2.348
			c-0.945,0.889-1.795-0.194-2.882,0.172c-0.094-3.647-1.697-12.763,0.213-15.911c3.011-0.057,6.018-0.084,9.029-0.084
			c0.251,6.131,0.185,12.108,0.164,18.414c-0.446-0.497-0.696-0.776-1.004-1.12c-5.448,3.857-0.918,0.432,0.987,3.916
			C207.004,237.509,209.331,249.012,209.331,255.151C205.792,255.151,209.331,254.195,209.331,255.151z M187.673,221.496
			c-0.148,0.838-0.245,1.39-0.343,1.941c0.681,0.083,1.362,0.166,2.348,0.286C188.902,222.86,188.401,222.304,187.673,221.496
			C187.525,222.333,188.401,222.304,187.673,221.496z M193.476,227.155c0.402-0.738,1.148-1.377-0.063-2.097
			C193.287,225.74,192.267,226.258,193.476,227.155z M208.63,238.395c-0.407-0.546-0.813-1.092-1.456-1.955
			C207.018,237.911,207.779,238.187,208.63,238.395z M204.944,229.897c0.107-0.554-0.205-0.917-0.935-1.09
			C203.593,229.332,204.371,230.085,204.944,229.897C204.953,229.716,204.723,229.969,204.944,229.897z"/>
		<path style="fill:#FFFFFF;" d="M118.374,255.117c-1.382-14.246-0.84-29.556-0.222-43.851c6.706-0.31,17.598-2.051,23.475,1.832
			c7.016,4.636,4.538,15.047,4.63,22.088c0.08,6.141,1.37,14.422-4.757,18.229C135.759,256.983,124.848,255.561,118.374,255.117
			C117.881,250.03,118.674,255.138,118.374,255.117z M127.695,245.66c9.873,0,9.354-2.157,9.326-11.417
			c-0.008-2.756,1.05-9.083-0.388-11.488c-1.893-3.166-5.758-2.004-9.117-2.004C127.838,229.045,127.336,237.2,127.695,245.66
			C130.032,245.66,127.336,237.2,127.695,245.66z"/>
		<path style="fill:#FFFFFF;" d="M114.812,225.996c0,9.701,3.328,26.685-9.639,29.066c-12.191,2.239-18.419-3.444-18.576-14.974
			c-0.115-8.484-3.45-23.438,6.392-27.767C104.877,207.091,114.538,213.963,114.812,225.996
			C114.812,232.489,114.773,224.291,114.812,225.996z M95.949,231.778c0,4.446-2.53,16.814,6.235,13.881
			c5.237-1.753,3.166-9.128,3.169-13.891c0.003-4.926,1.752-10.814-4.488-11.128C94.128,220.299,95.952,226.97,95.949,231.778
			C95.949,235.358,95.951,229.184,95.949,231.778z"/>
		<path style="fill:#FFFFFF;" d="M239.556,243.347c4.131,10.26-11.413,12.776-17.686,11.621c-11.29-2.08-9.787-13.286-9.787-22.376
			c0.396,0.798,0.827,1.009,1.292,0.633c-0.393-0.746-0.786-1.492-1.213-2.301c0.286-0.056,0.539-0.106,0.977-0.192
			c-3.425-3.694-0.764-13.956,2.685-16.925c4.303-3.704,13.829-3.88,18.654-1.411c6.138,3.141,5.982,9.644,5.952,15.597
			c-0.013,2.62,0.753,7.446-0.274,9.833c-0.744,1.729-2.375,0.34-2.143,2.186c0.683-0.896,1.457-1.127,2.319-0.693
			c1.063,1.15-1.393,1.947,0.214,3.637c-0.824,0.708-1.423,0.526-1.798-0.548c-0.261,0.446-0.434,0.743-0.699,1.196
			C238.708,243.492,239.132,243.419,239.556,243.347C240.889,246.656,239.132,243.419,239.556,243.347z M223.006,220.681
			c-0.451-1.274-0.451-1.274-1.186-0.697c0.398,0.23,0.795,0.46,1.193,0.691c-2.714,4.439-3.339,23.224,1.55,24.99
			c7.811,2.822,6.639-6.688,6.592-10.983C231.075,227.452,233.159,218.898,223.006,220.681
			C222.555,219.407,224.866,220.355,223.006,220.681z M220.338,236.748c0.764-1.476-0.548-1.613-1.496-1.462
			C219.493,235.922,219.881,236.301,220.338,236.748C220.893,235.677,219.881,236.301,220.338,236.748z M215.209,223.246
			c-1.511-0.008-1.511-0.008-1.314,1.056C214.283,223.99,214.621,223.718,215.209,223.246z"/>
		<path style="fill:#FFFFFF;" d="M397.684,225.367c-3.15,0-6.115,0-9.214,0c-1.59-6.665-12.052-5.542-9.762,0.775
			c1.421,3.92,8.169,1.877,11.389,2.92c4.62,1.496,6.892,5.073,7.593,9.753c1.049,7-1.252,13.891-8.459,15.843
			c-8.995,2.436-22.779-1.448-19.54-13.563c2.99,0,6.001,0,9.162,0c0.629,9.067,13.583,3.242,8.777-2.077
			c-2.161-2.392-9.367-0.776-12.584-2.507c-4.322-2.326-5.589-6.922-5.737-11.549C368.689,205.621,400.805,206.892,397.684,225.367
			C394.534,225.367,398.179,222.439,397.684,225.367z"/>
		<path style="fill:#FFFFFF;" d="M168.193,215.964c-2.984-6.577,6.996-4.797,10.741-4.797c-1.543,7.252-9.953,14.754-10.223,21.974
			c-0.099,2.633,3.406,7.424,4.606,9.883c1.976,4.051,3.972,8.071,5.828,12.191c-6.838,0-9.706,1.571-12.775-4.695
			c-1.122-2.291-4.372-13.051-7.589-12.188c0,5.546,0,11.087,0,16.765c-3.21,0-6.168,0-9.361,0
			c-1.98-14.171,0.739-29.319-0.189-43.628c1.737-0.753,6.2,0.053,7.574,1.259c3.515,3.086,1.989,10.654,1.989,15.247
			c3.98,0.463,6.892-14.127,9.417-12.03c-0.017,0.567,0.217,0.957,0.701,1.169C169.319,216.251,170.163,213.737,168.193,215.964
			C167.913,215.346,168.387,215.745,168.193,215.964z M170.732,217.064c0.525,0.485,1.028-0.45,0.963-0.895
			C171.181,216.266,170.86,216.564,170.732,217.064C170.79,217.117,170.833,216.868,170.732,217.064z"/>
		<path style="fill:#FFFFFF;" d="M307.102,234.386c-1.66-6.704-1.164-16.32-0.357-23.187c2.152,0,7.749,0.521,7.194,3.225
			c0.946,0.162,1.889,0.323,3.298,0.564c-0.757-1.087-1.292-1.855-1.83-2.628c-0.895,0.646-1.915,0.299-1.911-1.083
			c7.063,0,14.117,0,21.338,0c0,3.05,0,6.074,0,9.237c-5.56,1.344-12.791,0.211-18.476,0.211c-0.692,2.413-0.257,5.446-0.291,7.94
			c5.271-0.394,10.395-0.341,15.505,0.275c0,2.903,0,5.688,0,8.628c-5.53-0.187-10.674,0.362-16.257-0.259
			c1.394,1.142,0.738,6.852,0.738,8.41c1.908,1.677,3.159-1.069,4.649,0.284c0.154,0.623-1.182,1.033-0.213,1.741
			c0.373-0.176,0.764-0.359,1.197-0.563c-0.101-0.311-0.217-0.668-0.407-1.252c4.171,0.845,7.093-0.858,10.664,1.414
			c-0.089-0.714-0.132-1.058-0.191-1.537c1.026,0,2.005,0,3.184,0c0.037,2.586,1.364,6.259-2.109,6.427
			c1.578,0.272,2.283,1.2,2.116,2.786c-4.669,0.47-9.509,0.27-14.196,0.124c-1.82-0.057-8.858,0.262-9.61-0.717
			c-0.198,0.229-0.394,0.457-0.666,0.771c-0.349-0.31-0.674-0.6-1.094-0.974c0.02,1.375-0.848,1.666-2.603,0.873
			c-0.227-2.814,0.201-5.625,0.199-8.339c-0.002-2.271-0.751-5.361,0.139-7.655c0.269,0.557,0.537,1.113,0.846,1.752
			c1.486-1.327,1.012-2.358,3.361-3.494C309.9,236.224,308.54,235.524,307.102,234.386
			C306.936,233.716,307.403,234.624,307.102,234.386z M310.9,227.755c0,0.877,0.326,1.362,1.786,1.151
			c-1.314-0.325-2.075-1.108-2.283-2.35c-2.171,0.624-2.171,0.624-2.027,1.985C309.066,228.598,309.84,228.357,310.9,227.755
			C310.899,228.632,309.84,228.357,310.9,227.755z M320.143,216.585c-1.076-0.644-1.076-0.644-2.586-0.304
			c0.036,0.472,0.074,0.963,0.141,1.83c0.483-0.512,0.721-0.764,0.96-1.017c0.306,0.353,0.615,0.709,0.985,1.137
			C319.846,217.566,319.995,217.072,320.143,216.585C319.067,215.942,319.995,217.072,320.143,216.585z M330.422,216.574
			c-0.153,0.696-1.115,1.298-0.105,1.966c0.741,0.49,1.046-0.127,1.282-0.713C331.215,217.418,330.86,217.04,330.422,216.574
			C330.269,217.27,330.86,217.04,330.422,216.574z M312.12,240.988c0.939,1.559,1.984,1.026,3.107,1.265
			C314.4,240.755,313.273,241.639,312.12,240.988z M320.192,250.529c-0.513-0.641-1.121-0.483-1.823,0.474
			c0.243,0.33,0.445,0.603,0.736,0.998C319.632,251.286,319.912,250.908,320.192,250.529
			C320.076,250.427,319.912,250.908,320.192,250.529z M324.473,234.889c-0.522,0.315-0.897,0.541-1.684,1.015
			c1.051,0,1.626,0,2.341,0C324.911,235.565,324.753,235.32,324.473,234.889C323.951,235.203,324.753,235.32,324.473,234.889z
			 M326.877,235.016c0.988,0.915,1.4,0.307,1.759-0.503C328.132,234.657,327.628,234.801,326.877,235.016z M310.45,219.233
			c-0.725,0.138-1.544,0.35-0.813,1.435C309.968,220.084,310.209,219.659,310.45,219.233z M325.163,216.748
			c-1.036,0.043-1.036,0.043-1.299,0.924C324.385,217.495,324.818,217.187,325.163,216.748
			C324.127,216.791,324.835,217.051,325.163,216.748z M310.709,246.3c-0.384-0.83-0.522-1.129-0.661-1.428
			c-0.309,0.157-0.619,0.314-1.116,0.566C309.483,245.706,309.82,245.869,310.709,246.3
			C310.325,245.471,309.82,245.869,310.709,246.3z M331.746,214c-0.186-0.089-0.372-0.177-0.559-0.266
			c-0.155,0.484-0.31,0.967-0.465,1.451c0.145,0.055,0.29,0.11,0.435,0.165C331.353,214.9,331.549,214.45,331.746,214
			C331.559,213.912,331.549,214.45,331.746,214z M325.777,246.746c-0.196,0.604-1.019,1.071-0.021,1.626
			C325.954,247.888,326.748,247.535,325.777,246.746z M311.319,253.291c0.099-0.077,0.198-0.154,0.298-0.231
			c-0.298-0.339-0.595-0.679-0.893-1.018c-0.09,0.074-0.18,0.147-0.27,0.221C310.742,252.605,311.03,252.948,311.319,253.291
			C311.418,253.214,311.03,252.948,311.319,253.291z M313.365,249.984c0.271,0.523,0.454,0.876,0.778,1.502
			C314.604,250.448,314.278,250.17,313.365,249.984z M309.876,241.913c0.621-0.292,0.973-0.458,1.509-0.71
			C310.438,240.483,310.201,240.916,309.876,241.913z"/>
		<path style="fill:#FFFFFF;" d="M309.945,268.422c-0.792-0.014-1.618,0.034-1.832-1.028c1.306-1.582,6.054-1.704,6.99,0.295
			c0.431-2.713,6.751-1.129,7.474-0.014c0.079-0.495,0.15-0.941,0.214-1.346c1.264-0.304,0.783,1.074,1.534,1.376
			c1.125-2.312,5.892-1.037,7.366-1.039c4.068-0.007,8.939-0.276,12.88-0.266c4.421,0.011,7.784-0.53,11.811,1.228
			c2.708,1.182,4.089,3.613,6.85,1.394c-1.532-0.51-1.532-0.51-3.194-2.731c4.147-0.86,10.32-0.113,14.575,0
			c8.278,0.22,16.812-0.676,24.951-0.063c0.933,3.66,0.091,8.34-0.006,12.078c-4.03,0-8.106,0.176-12.131-0.009
			c-1.198-0.055-6.662-1.3-6.954-1.068c-0.571-0.553-1.118-1.081-1.662-1.607c-0.269,0.256-0.469,0.446-0.712,0.678
			c-1.086-1.335-2.083-0.894-3.875-1.01c0.099-0.4,0.17-0.689,0.244-0.987c-0.336-0.149-0.674-0.299-1.074-0.477
			c0.494-0.732,1.782-1.055,1.065-2.396c-0.355,0.246-0.697,0.484-1.351,0.938c-0.132-0.299-0.292-0.659-0.493-1.114
			c-0.224,0.548-0.362,0.885-0.56,1.367c-1.795-2.191-3.128-1.517-5.744-1.249c-0.059,0.331,1.56,4.236,1.745,4.435
			c1.066,1.148,3.921,0.117,4.552,2.324c-2.702,0-9.316,1.283-10.613-1.224c-0.496,0.52-0.947,0.992-1.48,1.551
			c-0.608-0.525-1.118-0.965-1.736-1.498c0,0.492,0,0.843,0,1.345c-3.545-0.353-17.928-1.84-19.446,0.076
			c-0.44-0.468-0.841-0.895-1.293-1.375c-0.487,0.442-0.946,0.858-1.379,1.25c-1.183-0.014-0.976-0.724-0.73-1.652
			c-0.731,0.258-1.341,0.474-2.168,0.766c0.059-0.592,0.106-1.061,0.144-1.45c-1.533-0.392-3.057-0.782-4.608-1.179
			c0.104-0.334,0.173-0.556,0.243-0.782c-3.512-1.696-7.217-1.637-10.67-2.963c-0.999-0.384-5.099-2.994-7.046-2.134
			c0.38,0.343,0.191-0.101-0.568-1.331C310.698,267.912,310.322,268.167,309.945,268.422
			C309.154,268.408,310.322,268.167,309.945,268.422z M324.366,269.632c0.085-0.096,0.169-0.192,0.254-0.288
			c-0.385-0.44-0.77-0.88-1.142-1.304c-0.96,0.55-1.375,1.143-0.495,2.029c0.134-0.342,0.264-0.675,0.401-1.023
			C323.731,269.253,324.048,269.443,324.366,269.632C324.451,269.536,324.048,269.443,324.366,269.632z M364.433,272.677
			c-0.595,0.03-1.19,0.059-1.938,0.096C363.28,273.984,363.871,273.281,364.433,272.677z M363.097,270.189
			c0.65,0.362,1.052,0.585,1.744,0.97C364.452,270.21,364.165,269.774,363.097,270.189z M393.994,275.984
			c-0.077,0.095-0.155,0.19-0.232,0.285c0.333,0.288,0.666,0.577,0.999,0.866c0.083-0.098,0.167-0.195,0.25-0.292
			C394.672,276.556,394.333,276.27,393.994,275.984C393.917,276.079,394.333,276.27,393.994,275.984z"/>
		<path style="fill:#FFFFFF;" d="M57.616,221.158c0.394,0.236,0.789,0.472,1.237,0.74c0-0.374,0-0.719,0-1.068
			c0.76,0.094,1.552,0.191,2.354,0.29c0.155-1.911-1.393-0.77-2.048-1.471c2.049-3.057,2.371-6.455,4.794-7.844
			c2.543-1.458,8.172-0.971,10.837-0.328c4.887,1.179,13.459,10.893,7.664,15.624c3.581,1.021,1.015,20.751-1.104,23.72
			c-2.196,3.077-9.405,5.988-12.847,3.867c0.372,0.545,0.702-0.001,0.99-1.637c-7.15,3.493-12.879-0.661-14.096-8.543
			c-0.666-4.313-0.073-9.779,0.14-13.692c0.04-0.732-0.239-5.874,0.076-6.3c0.402,0.095,0.831,0.195,1.537,0.362
			c-0.165-1.332-0.313-2.528-0.461-3.724C56.998,221.155,57.307,221.156,57.616,221.158
			C58.01,221.394,57.307,221.156,57.616,221.158z M74.649,217.838c0.272-0.565,0.544-1.131,0.872-1.812
			c-0.716,0.097-1.196,0.162-1.768,0.24c1.646,4.228-3.983,3.104-6.412,4.46c-6.095,3.403,0.299,12.715-4.835,17.103
			c1.371,1.334,1.204,1.112,2.251,3.349c0.879,1.878,0.223,3.052,1.578,5.184c2.024-1.14,5.239,0.302,6.907-1.485
			c2.194-2.352,0.879-8.101,0.9-11.105c0.026-3.703-1.096-8.712-0.782-12.112C73.512,220.006,74.557,219.322,74.649,217.838
			C74.921,217.273,74.591,218.781,74.649,217.838z M79.203,231.963c1.247-1.511-1.856-1.622-2.927-1.195
			C77.121,231.113,78.012,231.477,79.203,231.963C79.371,231.759,78.012,231.477,79.203,231.963z M64.074,217.136
			c0.498-1.626,0.498-1.626-0.063-2.368c-0.288,0.422-0.177,1.228-1.048,1.089C62.63,216.905,63.542,216.842,64.074,217.136
			C64.572,215.51,63.542,216.842,64.074,217.136z M80.728,227.059c0.107-0.015,0.214-0.03,0.32-0.046
			c0-0.232,0.45-1.601,0.164-1.746C80.059,224.683,80.851,227.528,80.728,227.059C80.834,227.044,80.618,226.64,80.728,227.059z
			 M62.081,220.047c0.356-0.195,0.712-0.389,1.068-0.584c-0.138-0.938-0.915-1.119-2.33-0.544
			C61.436,219.47,61.767,219.766,62.081,220.047C62.5,219.817,61.767,219.766,62.081,220.047z M81.318,219.195
			c-1.043,0.309-1.396,0.611-1.161,1.764C80.605,220.277,80.852,219.901,81.318,219.195z M65.148,250.113
			c-0.12,0.046-0.24,0.092-0.36,0.138c0.124,0.336,0.248,0.672,0.371,1.008C65.761,251.105,65.757,250.723,65.148,250.113
			C65.028,250.159,65.28,250.43,65.148,250.113z M72.3,215.515c-0.115-0.121-0.231-0.241-0.346-0.362
			c-0.296,0.337-0.593,0.675-0.889,1.012c0.096,0.085,0.192,0.17,0.288,0.255C71.668,216.118,71.984,215.817,72.3,215.515
			C72.184,215.394,71.984,215.817,72.3,215.515z M76.521,223.478c0.106-0.078,0.211-0.157,0.317-0.235
			c-0.249-0.36-0.497-0.719-0.746-1.079c-0.104,0.072-0.208,0.143-0.312,0.215C76.027,222.745,76.274,223.112,76.521,223.478
			C76.627,223.4,76.274,223.112,76.521,223.478z"/>
		<path style="fill:#FFFFFF;" d="M292.468,218.329c-0.386,0.253-0.772,0.505-1.291,0.845c-1.891-8.853,8.755-7.889,13.866-7.889
			c-3.836,1.468-2.466,12.871-7.513,8.968c-0.038,1.236,0.556,2.16,1.784,2.773c-0.795,0.245-1.326,0.408-2.114,0.651
			c0.555,0.221,0.859,0.342,1.336,0.532c-0.156,0.955-0.694,1.257-1.614,0.906c0.345,0.92,0.266,1.805-0.238,2.653
			c-0.321-0.217-0.683-0.462-1.209-0.817c-0.104,0.872-0.197,1.659-0.315,2.645c-0.428-0.141-0.856-0.281-1.284-0.422
			c-0.158-1.069-0.749-2.113-1.764-2.718c-0.14,0.893-0.263,1.682-0.385,2.465c-0.248-0.041-0.538-0.089-0.907-0.149
			c-0.06,0.82-0.119,1.615-0.192,2.617c2.485-0.387,2.761,1.111,4.258,3.049c-0.312,0.505-0.735,0.409-1.267-0.288
			c-0.136,0.985,4.078,6.508,4.69,7.828c1.198,2.586,2.576,5.457,4.187,8.059c-0.386,0.094-0.629,0.153-0.872,0.212
			c0.423,1.45,1.229,1.005,1.633,2.699c-0.271,0.083-0.54,0.166-1.011,0.311c0.865,0.743,2.219,0.142,2.49,1.658
			c-1.326-0.346-2.58,0.196-3.768,0.223c-5.392,0.124-6.209-0.139-8.492-4.489c-2.261-4.308-4.092-9.143-6.801-13.18
			c-2.83,1.655-1.198,10.566-1.332,13.362c-0.639-0.03-1.137-0.053-1.634-0.075c0.378-0.907,1.681,3.487,1.729,4.431
			c-1.808,0-7.731,0.898-9.006-0.471c-0.888-0.954-0.371-8.353-0.452-10.453c-0.415-10.85-0.007-21.815-0.007-32.683
			c2.302-1.306,6.842-0.333,9.313-0.281c0.585,2.071,0.933,8.445,0.146,10.502c-0.561,1.468-4.521,2.869-3.186,4.937
			c0.273-0.545,1.861-2.137,2.324-2.83c0.377,1.017,1.144,2.937,0.572,3.881c-0.546,0.902-1.296-0.225-1.888,0.202
			c0.211,0.334,0.412,0.651,0.609,0.962c-0.2,0.177-0.371,0.329-0.603,0.535c0.53,0.141,1.017,0.271,1.679,0.448
			c-0.103-0.409-0.172-0.68-0.288-1.138c0.994,0.159,2.046-0.322,3.113,1.043c-0.191-0.885-0.291-1.348-0.443-2.051
			c0.526,0.296,0.865,0.487,1.59,0.896c-1.274-2.202,2.902-10.133,5.814-9.179c0.318-1.008,3.749-1.045,2.988-3.094
			c0.255,0.236,0.511,0.473,0.944,0.873c0.108-0.783-0.157-1.376-0.795-1.778C296.558,217.499,292.892,216.446,292.468,218.329
			C292.082,218.582,292.517,218.109,292.468,218.329z M291.996,238.154c-0.193-0.268-0.387-0.536-0.58-0.805
			c-0.127,0.311-0.255,0.623-0.433,1.059c2.141-0.517,0.148,1.709,2.383,0.931C292.846,238.891,292.421,238.523,291.996,238.154
			C291.803,237.886,292.421,238.523,291.996,238.154z M281.134,233.425c0.096,0.714,0.193,1.429,0.298,2.207
			c0.494-0.491,0.348-3.641-0.173-3.895C281.35,232.341,280.082,232.754,281.134,233.425
			C281.23,234.139,280.082,232.754,281.134,233.425z M298.146,214.545c-0.975,1.115,0.267,1.487,0.598,2.247
			c0.753-0.813,1.389-1.501,2.063-2.228c-0.514-0.409-2.566,0.27-2.682-0.036c1.894-0.918-1.515-0.725-1.223-0.786
			C297.43,214.084,297.788,214.315,298.146,214.545C297.17,215.66,297.788,214.315,298.146,214.545z M295.831,252.913
			c1.043-0.892,1.078-1.626,0.104-2.203c-0.336,1.436-1.032-0.563-1.584,0.234C294.821,251.568,295.266,252.16,295.831,252.913
			C296.151,252.308,295.266,252.16,295.831,252.913z M277.461,227.768c0.636,1.123,1.395,1.101,2.277-0.065
			c-0.357-0.404-0.698-0.792-1.173-1.33C278.203,226.831,277.896,227.218,277.461,227.768
			C277.733,228.027,277.896,227.218,277.461,227.768z M284.072,231.462c-0.723,0.436-0.93,0.973-0.623,1.613
			c0.12,0.164,1.686-0.468,1.786-0.577C284.958,232.251,284.676,232.001,284.072,231.462
			C283.75,231.891,284.676,232.001,284.072,231.462z M278.647,236.053c-0.095-0.155-0.19-0.31-0.286-0.465
			c-0.71,0.012-1.372,0.122-1.724,0.978c0.344,0.162,0.613,0.289,0.882,0.415c-0.141-0.138-0.282-0.276-0.423-0.415
			C277.613,236.396,278.13,236.224,278.647,236.053C278.552,235.898,278.13,236.224,278.647,236.053z M276.6,241.465
			c0.236-0.495,0.401-0.84,0.615-1.288c-0.563,0-1.048,0-2.084,0C275.834,240.794,276.175,241.092,276.6,241.465
			C276.836,240.97,276.175,241.092,276.6,241.465z M277.239,247.264c-0.111,0.048-0.221,0.097-0.332,0.145
			c0.037,1.284,0.454,1.741,1.252,1.371C277.841,248.255,277.54,247.76,277.239,247.264
			C277.129,247.313,277.54,247.76,277.239,247.264z M282.14,246.464c0.823,0.343,0.823,0.343,1.176-0.61
			C282.869,246.086,282.504,246.275,282.14,246.464z M298.604,252.623c0.164-0.064,0.329-0.129,0.493-0.193
			C298.546,251.162,298.185,251.346,298.604,252.623C298.768,252.559,298.499,252.305,298.604,252.623z M290.801,232.432
			c0.132,1.13,0.132,1.13,0.964,1.215C291.491,233.302,291.207,232.944,290.801,232.432z M298.194,247.1
			c-0.302-0.278-0.513-0.471-0.724-0.664C297.146,247.236,297.427,247.598,298.194,247.1
			C297.891,246.822,297.924,247.275,298.194,247.1z M294.332,225.458c-0.3-0.634-0.464-0.981-0.681-1.44
			C292.793,224.914,293.276,225.135,294.332,225.458z"/>
		<path style="fill:#FFFFFF;" d="M340.194,232.5c0.005-3.934-1.326-4.115-2.223-7.011c-0.933-3.013,1.375-9.152,0.521-10.719
			c2.024-0.868,1.7-1.462,0.862-3.441c5.895-0.443,15.758-1.784,21.269,1.356c8.825,5.029,3.974,13.957,4.006,21.441
			c0.02,4.771,4.893,17.261,1.045,20.984c-0.181,0.175-6.873,0.322-7.352,0.076c-3.224-1.653-1.655-10.312-1.611-14.202
			c1.781,0.688,2.459,0.233,1.973,2.516c3.405-1.696,0.704-2.482-0.876-3.858c-0.417,0.525-0.75,0.944-1.082,1.362
			c-0.77-0.677-3.976-3.753-3.779-4.716c0.263,0.076,0.525,0.153,0.855,0.248c0.47-1.432-0.095-2.09-1.698-1.972
			c-0.049,0.322-0.081,0.538-0.114,0.753c-2.645-1.967-5.849-0.052-6.616-3.25c-0.367,0.028-0.78,0.06-1.196,0.091
			c0.123,0.538,0.21,0.915,0.296,1.293C343.096,233.139,341.513,232.779,340.194,232.5z M352.704,230.184
			c3.737-0.261,5.883-4.957,3.549-8.264c-1.901-2.693-5.899-1.182-8.877-1.147c0,3.212,0,6.163,0,9.172
			c1.872,0.242,4.265,1.956,4.875,1.933C352.378,231.403,352.513,230.897,352.704,230.184
			C353.207,230.149,352.513,230.897,352.704,230.184z M343.636,224.792c-0.549-0.543-0.877-0.868-1.202-1.189
			c-0.516,0.576-0.818,0.913-1.414,1.578C342.042,225.029,342.646,224.939,343.636,224.792
			C343.088,224.249,342.646,224.939,343.636,224.792z M361.46,242.39c-0.122,0.114-0.243,0.227-0.365,0.341
			c0.343,0.309,0.685,0.618,1.028,0.927c0.085-0.09,0.169-0.18,0.254-0.27C362.072,243.054,361.766,242.722,361.46,242.39
			C361.339,242.503,361.766,242.722,361.46,242.39z M363.025,249.545c-0.712,0.304-1.071,0.457-1.553,0.663
			C362.364,251.059,362.557,250.47,363.025,249.545z M362.551,233.05c0.16-0.437-0.225-1.67-0.347-1.293
			C362.32,232.188,362.436,232.619,362.551,233.05C362.715,232.603,362.372,232.446,362.551,233.05z"/>
		<path style="fill:#FFFFFF;" d="M194.18,359.12c-1.507,0.688-6.649,6.829-6.33,0.335c0.109-2.22,5.171-5.653,6.794-7.054
			c0.382,0.492,0.696,0.897,1.051,1.354c0.762-3.688,2.722-5.245,5.582-8.103c-3.808-3.699-7.548-7.332-11.405-11.079
			c-1.925,1.853-2.867,4.368-4.256,6.538c-3.727-1.529-6.103-3.887-7.827-7.716c4.121-3.424,8.25-6.854,12.54-10.418
			c4.962,3.671,3.675,6.441,6.942,10.924c2.588,3.551,4.662,5.627,8.085,8.562c1.669-1.421,5.137-6.059,7.772-5.309
			c-1.181-2.54,2.123-3.013,3.282-5.038c2.204-3.852,0.141-4.156-3.023-7.197c1.137-1.155,2.098-2.132,3.263-3.316
			c2.271,3.124,6.103,5.363,7.806,8.598c1.191,2.264,1.942,9.914-0.693,11.747c-3.264-1.562,0.821-4.913-2.104-7.767
			c-5.628,3.774-11.51,9.112-12.833,11.716c1.563,1.124,2.982,2.441,3.405,4.552c0.301-0.243,0.506-0.407,0.849-0.684
			c2.45,2.914,4.887,5.772,7.098,8.876c-0.601,0.166-1.697-0.966-1.77,0.739c0.939,0.44,5.837-0.611,3.974,2.694
			c-2.096,3.72-4.985-0.808-6.123-2.361c-0.247,0.262-0.437,0.464-0.745,0.789c-1.209-2.372-6.905-11.016-9.544-11.064
			c-3.866-0.07-7.685,8.657-11.775,9.665c-0.207-0.562-0.413-1.123-0.685-1.862C193.1,358.279,193.467,358.776,194.18,359.12
			C192.721,359.786,193.467,358.776,194.18,359.12z M215.843,354c-1.611-0.563-2.348,0.18-2.211,2.229
			C214.596,355.257,215.158,354.691,215.843,354C215.28,353.964,215.158,354.691,215.843,354z M186.532,336.464
			c0.12-0.069,0.24-0.139,0.361-0.208c-0.228-0.401-0.457-0.803-0.685-1.204c-0.123,0.071-0.246,0.142-0.37,0.213
			C186.069,335.665,186.3,336.064,186.532,336.464C186.652,336.395,186.3,336.064,186.532,336.464z M190.256,357.86
			c-0.101,0.14-0.202,0.28-0.304,0.42c0.376,0.225,0.751,0.451,1.127,0.676c0.071-0.103,0.141-0.206,0.212-0.309
			C190.946,358.385,190.601,358.122,190.256,357.86C190.155,358,190.601,358.122,190.256,357.86z"/>
		<path style="fill:#FFFFFF;" d="M244.75,240.041c-3.048-2.914-1.856-21.896,1.891-25.041c-0.028,0.892,0.56,1.042,1.384,0.88
			c-0.467-0.289-0.933-0.577-1.4-0.866c2.221-3.156,9.309-5.45,12.181-2.159c-0.194-0.481-0.387-0.962-0.643-1.598
			c9.654,0.416,14.664,5.388,13.916,15.311c-2.67,0.127-7.346,1.589-7.551-2.014c-0.57,0.344-0.988,0.597-1.669,1.009
			c-0.389-5.082-1.653-5.927-5.566-4.856c-6.005,1.643-2.431,4.416-4.461,8.678c-0.38-0.655-0.625-1.076-0.92-1.585
			c-0.395,0.293-0.775,0.575-1.141,0.847c-0.761-0.662,0.923-1.676-0.543-2.025c-1.837,1.902,0.053,3.608-1.23,5.393
			C246.631,231.912,245.236,238.252,244.75,240.041z M266.794,221.405c-0.8,0.064-1.623,0.13-2.593,0.207
			c0.405,0.877,0.568,1.617,1.703,1.958C264.854,222.016,267.153,222.585,266.794,221.405
			C265.993,221.469,267.153,222.585,266.794,221.405z M254.398,214.574c-0.206,0.815-0.37,1.462-0.533,2.108
			C254.665,216.178,255.563,215.695,254.398,214.574z M270.187,219.662c-0.917-0.152-1.218,0.555-0.902,2.122
			C270.668,221.288,270.969,220.58,270.187,219.662C270.079,219.655,270.316,219.938,270.187,219.662z M266.565,215.774
			c0.01,0.546,0.353,0.861,1.028,0.947C267.869,216.163,267.117,215.668,266.565,215.774
			C266.605,216,266.767,215.735,266.565,215.774z M261.272,216.348c0.086,0.101,0.172,0.202,0.257,0.304
			c0.332-0.289,0.665-0.577,0.997-0.866c-0.078-0.093-0.156-0.187-0.233-0.28C261.952,215.786,261.612,216.067,261.272,216.348
			C261.357,216.449,261.612,216.067,261.272,216.348z M263.827,213.925c0.108-0.124,0.215-0.248,0.323-0.372
			c-0.34-0.293-0.679-0.585-1.019-0.878c-0.078,0.081-0.157,0.162-0.235,0.243C263.206,213.254,263.517,213.59,263.827,213.925
			C263.935,213.801,263.517,213.59,263.827,213.925z M247.217,226.807c-0.443,0.059-0.886,0.118-1.458,0.195
			C246.475,228.003,246.882,227.31,247.217,226.807z M247.287,225.639c0.109-0.582,0.428-1.268-0.671-1.339
			C246.865,224.795,247.076,225.217,247.287,225.639z"/>
		<path style="fill:#FFFFFF;" d="M250.397,231.072c3.833-5.692,2.777,7.631,2.382,9.454c-0.264-0.073-0.529-0.145-1.009-0.277
			c0.199,0.475,0.329,0.787,0.46,1.099c0.181-0.276,0.362-0.553,0.543-0.829c2.578,1.114-0.567,5.517-1.231,5.904
			c1.569,0.273,2.64,0.46,3.952,0.689c-0.265,0.313-0.454,0.537-0.778,0.92c0.693,0.169,1.295,0.315,1.942,0.472
			c0.106-1.827-1.421-1.883-1.304-2.63c5.686,0,7.676-0.291,7.319-6.196c3.249,0,6.243,0,9.353,0
			c1.443,11.924-8.548,19.006-19.445,14.032c-0.173,0.295-0.368,0.627-0.65,1.107c-2.865-1.968-12.797-9.325-6.312-13.308
			c-0.204-1.41-0.499-1.893-0.884-1.45c0.939,0.066,1.878,0.132,2.817,0.198c0-2.171,1.649-4.171,1.692-5.783
			c-0.976-0.801-1.149-1.363-0.249-2.455C250.102,232.696,250.569,232.38,250.397,231.072
			C250.743,230.558,250.317,232.55,250.397,231.072z M261.401,248.164c-0.814,0.048-1.365,0.08-2.277,0.134
			c0.45,0.762,0.724,1.226,1.162,1.968C260.728,249.432,260.997,248.925,261.401,248.164
			C260.586,248.212,260.997,248.925,261.401,248.164z M250.374,239.876c-1.197,0.879-1.197,0.879-0.247,2.063
			C249.838,241.201,249.921,240.513,250.374,239.876C249.177,240.755,250.236,240.185,250.374,239.876z M265.284,251.71
			c-0.255-1.03-0.662-1.898-1.932-1.633C264.053,250.67,264.668,251.19,265.284,251.71z M248.14,245.563
			c0.115-0.047,0.231-0.095,0.346-0.142c-0.153-0.477-0.369-0.923-0.646-1.339c-0.097,0.059-0.194,0.119-0.291,0.178
			C247.745,244.694,247.942,245.128,248.14,245.563C248.255,245.515,247.942,245.128,248.14,245.563z"/>
		<path style="fill:#FFFFFF;" d="M340.174,232.48c0.061,3.547,9.389,4.402,11.098,7.072c-1.254,0-2.509,0-3.843,0
			c-0.661,5.279,0.152,10.361-0.215,15.545c-2.039,0-6.93-1.169-8.474,0.009c-2.955-1.947-1.164-18.704-0.903-22.336
			C338.675,232.77,339.453,232.748,340.174,232.48z M340.779,243.683c0.655-0.406,1.239-0.732,1.146-1.701
			C340.81,242.207,340.528,242.718,340.779,243.683z M344.751,240.216c-0.031,0.816,0.225,1.275,1.289,0.966
			C345.464,240.751,345.107,240.483,344.751,240.216z"/>
		<path style="fill:#FFFFFF;" d="M96.88,345.421c1.247-3.9,27.041-1.492,31.095-1.493c4.728-0.002,29.829-2.78,31.701,1.189
			c0.722,1.532-26.279,1.773-29.135,1.78C126.03,346.908,98.543,349.594,96.88,345.421C97.248,344.269,97.423,346.783,96.88,345.421
			z"/>
		<path style="fill:#FFFFFF;" d="M193.864,293.422c-0.573-0.279-0.972-0.474-1.374-0.67c0.716-1.42,4.562-0.595,5.45-0.384
			c-3.051,1.512-4.208,4.159-6.258,6.331c1.668,2.253,4.791,8.684,8.151,9.084c-2.708,3.378-8.372-5.664-9.545-7.11
			c-2.797,2.021-2.009,5.338-0.333,7.565c-8.477,2.578-10.28-2.665-14.537-8.872c3.809-1.592,6.587-6.912-0.287-6.74
			c-2.225,2.498-1.506,14.756,1.639,15.735c-0.659,0.959-5.328,1.364-6.046-0.043c3.166-1.071,2.518-14.639-0.141-15.695
			c2.01-2.795,10.546-1.209,11.314,2.325c1.069,4.923-6.992,5.743,0.257,11.017c6.72,4.89,5.451-11.25,2.442-13.549
			c1.578-0.683,4.349-0.809,5.838,0.168c-2.875,1.827-1.84,4.804-1.84,8.031C190.464,298.087,192.381,295.981,193.864,293.422
			C193.29,293.142,192.381,295.981,193.864,293.422z"/>
		<path style="fill:#FFFFFF;" d="M270.277,344.948c-0.094-0.212-0.189-0.424-0.325-0.73c3.66-2.432,17.715-0.147,22.371-0.199
			c2.025-0.023,18.595-1.015,15.859,2.459c-1.266,1.608-8.041,0.058-9.802,0.073c-4.442,0.038-8.866,0.313-13.329,0.261
			c-5.965-0.069-10.057,0.01-15.152,0.01C269.975,346.612,270.777,345.223,270.277,344.948
			C270.183,344.736,270.988,345.339,270.277,344.948z"/>
		<path style="fill:#FFFFFF;" d="M65.26,297.475c-2.069,3.184-2.801,8.565-3.924,12.157c-4.25-5.022-2.519-12.682-7.411-17.283
			c1.63-0.674,3.314-0.26,5.104,0.12c-3.106,2.187,1.225,8.523,2.256,11.209c2.228-3.552,2.305-7.933,4.376-12.117
			c1.524,4.024,2.937,8.103,3.843,12.317c0.947,0.143,1.488-0.424,1.623-1.7c1.133,0.766-0.502,6.868-1.272,7.299
			C67.669,306.71,66.674,300.748,65.26,297.475C63.933,299.518,66.106,299.433,65.26,297.475z"/>
		<path style="fill:#FFFFFF;" d="M113.816,308.193c2.747-2.47,3.687-15.028-0.61-15.952c6.102-3.258,15.651,0.384,15.845,7.837
			C129.231,306.947,119.629,312.032,113.816,308.193C115.29,306.867,114.121,308.394,113.816,308.193z M117.972,292.498
			c-2.283,3.661-2.726,16.779,4.176,14.815c3.318-0.944,4.684-4.599,4.475-7.786C126.277,294.25,122.596,292.778,117.972,292.498
			C116.902,294.215,119.151,292.57,117.972,292.498z"/>
		<path style="fill:#FFFFFF;" d="M153.015,300.225c-0.144-4.686,3.59-8.852,8.654-8.727c11.319,0.279,11.851,17.619,0.127,17.682
			C157.157,309.204,152.761,305.248,153.015,300.225C152.871,295.539,152.761,305.248,153.015,300.225z M168.178,300.747
			c-0.029-0.001-0.058-0.001-0.088-0.002c0-5.739-5.422-11.435-10.696-6.305c-3.713,3.612-2.68,13.24,3.501,13.576
			C165.716,308.278,167.912,305.32,168.178,300.747C168.149,300.747,168.132,301.527,168.178,300.747z"/>
		<path style="fill:#FFFFFF;" d="M112.958,300.45c0.01,4.295-2.413,7.247-6.665,8.361c-7.311,1.914-13.66-6.211-10.022-12.895
			C100.216,288.668,114.614,291.59,112.958,300.45C112.968,304.744,113.453,297.803,112.958,300.45z M110.602,300.906
			c0.426-2.985-1.47-7.758-4.82-8.302c-9.302-1.51-11.302,14.188-2.666,15.422C108.111,308.741,110.052,305.092,110.602,300.906
			C110.86,299.1,110.49,301.755,110.602,300.906z"/>
		<path style="fill:#FFFFFF;" d="M325.816,295.486c0,1.09,0.558,8.92-0.307,9.236c-1.976-3.918,1.705-9.579-2.554-12.345
			c4.446-1.587,9.747,8.318,12.365,11.235c0.606-3.243,1.401-9.567-1.575-11.177c1.87-0.721,3.359-0.4,4.861-0.283
			c-0.113,1.14-1.779,2.955-2.059,5.115c-0.51,3.925,0.317,7.987,0.317,11.908C332.791,305.059,329.427,300.004,325.816,295.486
			C325.816,298.823,327.813,297.985,325.816,295.486z"/>
		<path style="fill:#FFFFFF;" d="M235.233,303.568c-0.986-0.148-1.854-0.278-2.721-0.408c1.804-0.844,3.595-0.872,5.695-0.599
			c-2.592,2.951,0.564,5.242-5.197,6.374c-4.403,0.865-9.105-2.092-10.331-6.383c-3.086-10.808,14.42-14.518,13.73-6.64
			c-3.183-1.833-1.931-3.803-6.175-3.273c-2.273,0.284-3.687,1.508-4.758,3.503c-2.758,5.138,0.794,11.81,6.525,12.143
			C234.829,308.45,235.324,305.566,235.233,303.568C234.247,303.42,235.26,304.167,235.233,303.568z"/>
		<path style="fill:#FFFFFF;" d="M138.918,300.061c-1.204-1.656,1.599-6.996,2.449-8.42c1.452,4.264,2.768,8.128,4.257,12.498
			c1.082-2.941,4.043-7.943,3.648-11.156c-0.565-0.167-0.964-0.285-1.364-0.403c1.596-0.667,3.119-0.802,5.142-0.163
			c-5.507,2.535-4.733,12.299-7.7,17.185c-1.824-3.989-2.681-8.092-4.642-12.227c-0.169,1.047-0.492,2.042-0.971,2.986
			C138.946,299.949,138.673,299.85,138.918,300.061z"/>
		<path style="fill:#FFFFFF;" d="M270.277,344.948c1.689,0.929-12.071,1.928-11.91,1.93c-2.685-0.032-5.02-1.083-7.302-1.231
			c-0.642-0.042-4.659,3.097-4.794-0.859c0.505-1.176,16.722-1.629,17.939,0.542c0.028-0.367,0.056-0.733,0.092-1.197
			C266.363,343.857,268.339,344.243,270.277,344.948C270.988,345.339,268.339,344.243,270.277,344.948z"/>
		<path style="fill:#FFFFFF;" d="M138.899,300.044c1.201,2.603-1.146,7.021-2.043,9.605c-2.03-3.351-3.246-16.113-7.809-16.965
			c1.762-0.994,3.609-0.811,5.574-0.239c-2.94,2.329,1.227,9.042,2.436,11.694C137.558,302.544,137.841,301.33,138.899,300.044z"/>
		<path style="fill:#FFFFFF;" d="M315.439,308.407c-1.107,0-2.215,0-3.349,0c0.14-2.045,1.552-8.445-0.306-10.016
			c-1.769-1.496-5.67,1.388-6.986-1.175c2.489,0,4.875,0,7.447,0c-0.147-1.737,0.721-3.447-1.382-4.655
			c1.624-0.959,3.156-0.265,5.068-0.444c-2.411,2.523-1.795,5.832-1.726,9.229C314.225,302.341,315.025,308.793,315.439,308.407
			C314.331,308.407,315.554,308.299,315.439,308.407z"/>
		<path style="fill:#FFFFFF;" d="M203.952,306.683c0.496,0.363,1.047,0.767,1.672,1.225c-0.768,1.275-4.403,0.898-5.466,0.337
			c2.274-2.008,4.072-13.835-0.076-15.678c2.597-0.787,3.479-0.805,5.399-0.184C202.504,295.418,204.183,302.843,203.952,306.683
			C204.447,307.046,204.015,305.635,203.952,306.683z"/>
		<path style="fill:#FFFFFF;" d="M87.82,308.194c-11.784,5.492-14.643-19.41-0.805-16.293
			C77.694,295.198,77.012,307.544,87.82,308.194C84.85,309.578,87.239,308.159,87.82,308.194z"/>
		<path style="fill:#FFFFFF;" d="M322.104,307.973c-1.557,0.773-2.941,0.846-4.43,0.218c2.409-3.167,2.062-13.525-0.86-15.835
			c1.927-0.637,3.586-0.265,5.787-0.292C319.502,293.795,318.995,306.507,322.104,307.973
			C320.547,308.746,321.172,307.534,322.104,307.973z"/>
		<path style="fill:#FFFFFF;" d="M294.361,303.84c-0.872-3.251-0.056-16.346-4.676-8.836c-1.149-1.317-0.088-2.287,0.319-3.454
			c4.371,0,10.01-2.012,10.01,3.568c-0.637-1.428-1.731-2.272-3.282-2.534C294.335,293.058,296.368,301.782,294.361,303.84z"/>
		<path style="fill:#FFFFFF;" d="M345.419,292.704c-6.102,3.186-4.985,12.459,0.778,15.189c0.033,0.634-0.128,1.128-0.902,0.829
			C336.91,305.478,339.094,289.788,345.419,292.704C341.911,294.536,343.936,292.02,345.419,292.704z"/>
		<path style="fill:#FFFFFF;" d="M304.742,307.818c-0.523,0.264-0.997,0.504-1.708,0.863c-0.797-4.885,1.266-12.846-2.623-16.238
			c1.833-0.926,3.548-0.298,5.722-0.098C302.758,294.142,303.252,304.877,304.742,307.818
			C304.22,308.082,304.435,307.213,304.742,307.818z"/>
		<path style="fill:#FFFFFF;" d="M88.093,308.146c6.25-3.856,5.059-9.426,1.941-15.035
			C97.825,293.111,95.559,311.171,88.093,308.146C88.855,307.676,88.656,308.374,88.093,308.146z"/>
		<path style="fill:#FFFFFF;" d="M216.403,302.408c-2.617,0.753-5.112-4.135-6.732-6.091c-0.305,0.356-0.501,0.586-0.733,0.856
			c-0.185-0.061-2.325-4.328-2.855-5.013C209.99,291.438,215.766,298.814,216.403,302.408z"/>
		<path style="fill:#FFFFFF;" d="M214.001,384.125c0.706-1.87,2.646-9.206-0.493-10.068c-3.859-1.059-3.345,5.374-2.215,6.988
			c-5.102-0.667-2.284-8.478,2.068-7.692C217.823,374.16,218.505,383.322,214.001,384.125z"/>
		<path style="fill:#FFFFFF;" d="M260.487,292.017c0.794,0.049,1.454,0.091,1.989,0.124c0.475,0.829-0.086,13.146-0.953,13.793
			c0.792,2.368,3.238,1.37,4.956,2.26c-1.985,0.536-5.736,0.525-7.793-0.054C262.852,306.226,260.895,296.495,260.487,292.017
			C261.281,292.067,260.597,293.218,260.487,292.017z"/>
		<path style="fill:#FFFFFF;" d="M276.364,308.131c-9.014-1.668-3.855-18.753,1.539-15.659c-1.435,1.029-4.44,6.066-5.848,5.916
			C273.911,301.117,274.805,305.323,276.364,308.131z"/>
		<path style="fill:#FFFFFF;" d="M287.74,301.943c-2.447-0.767-1.435-4.868-2.734-6.723c-1.584-2.261-3.635-2.366-5.915-3.471
			C283.804,291.254,291.369,296.92,287.74,301.943z"/>
		<path style="fill:#FFFFFF;" d="M221.989,380.904c6.914-8.896-6.764-6.525-2.201-2.336c-1.755,0.152-1.755,0.152-1.974-0.992
			C215.629,366.173,234.34,380.095,221.989,380.904C222.672,380.026,224.078,380.767,221.989,380.904z"/>
		<path style="fill:#FFFFFF;" d="M167.482,384.314c-1.056-0.984-2.056-1.917-3.24-3.02c1.08-1.116,2.098-2.167,3.153-3.258
			c1.053,1.055,2.033,2.038,3.046,3.054C169.878,382.497,168.857,383.494,167.482,384.314
			C166.427,383.33,168.857,383.494,167.482,384.314z"/>
		<path style="fill:#FFFFFF;" d="M236.074,381.183c1.209-1.125,2.16-2.009,3.08-2.865c1.299,1.009,2.405,1.869,3.574,2.777
			C239.607,384.321,239.413,384.189,236.074,381.183C237.283,380.058,236.989,382.008,236.074,381.183z"/>
		<path style="fill:#FFFFFF;" d="M195.109,381.818c-1.871,0.06-0.868-5.757-0.868-6.767c-1.37-0.114-1.37-0.114-2.371,0.999
			c-0.505-0.803-0.505-0.803-0.367-2.118c2.419-0.521,5.907-1.236,7.168,1.212c-0.964-0.169-1.535-0.268-2.054-0.359
			C194.753,375.629,195.826,380.299,195.109,381.818z"/>
		<path style="fill:#FFFFFF;" d="M188.519,384.156c1.564-3.081-6.776-9.253-2.51-10.209c-0.718,5.13,3.786,2.6,4.809,7.041
			C191.267,382.935,190.796,384.525,188.519,384.156z"/>
		<path style="fill:#FFFFFF;" d="M276.444,308.028c1.466-0.295,13.227-1.081,10.025-5.867c0.359,0.151,0.718,0.302,1.12,0.472
			c0.197-0.9,0.287,2.457-1.736,4.263C284.773,307.859,276.444,310.689,276.444,308.028
			C276.961,307.924,276.444,308.028,276.444,308.028z"/>
		<path style="fill:#FFFFFF;" d="M71.322,301.16c0.974-3.009,3.79-6.929,0.723-8.723c1.846-0.711,3.373-0.508,4.941-0.259
			C76.745,293.186,71.78,301.402,71.322,301.16C72.176,298.523,72.143,301.595,71.322,301.16z"/>
		<path style="fill:#FFFFFF;" d="M211.6,308.248c-2.036,0.498-3.565,0.496-5.256,0.04c2.871-2.791,1.84-6.721,1.84-10.55
			C210.385,298.047,208.047,306.414,211.6,308.248C209.564,308.746,209.513,307.171,211.6,308.248z"/>
		<path style="fill:#FFFFFF;" d="M216.387,302.423c0.73,0.429,1.859,0.456,1.716,2.148c0.996-1.523,0.383-2.947,1.531-4.293
			c0.167,2.939,0.249,5.845,0.249,8.789C218.262,306.914,217.054,304.954,216.387,302.423z"/>
		<path style="fill:#FFFFFF;" d="M352.027,307.838c-0.138-1.245,0.733-2.361,0.075-3.549c-0.601-1.084-2.315-0.484-2.788-1.681
			c1.092-0.6,4.526-0.229,5.402-0.229C354.651,304.941,354.531,306.839,352.027,307.838
			C351.857,306.304,352.437,307.674,352.027,307.838z"/>
		<path style="fill:#FFFFFF;" d="M57.616,221.158c-3.6-0.017-1.729-5.378,0.593-6.153C59.52,218.005,57.729,218.003,57.616,221.158
			C57.307,221.156,57.672,219.59,57.616,221.158z"/>
		<path style="fill:#FFFFFF;" d="M345.63,291.948c3.16-1.201,9.669,0.226,7.791,4.837c-1.422-1.511-1.968-3.076-3.91-4.063
			C348.239,292.076,346.867,292.914,345.63,291.948C346.183,291.738,346.068,292.29,345.63,291.948z"/>
		<path style="fill:#FFFFFF;" d="M294.344,303.827c1.389,1.582,1.179,3.467,3.352,4.226c-2.025,0.651-3.727,0.684-5.805,0.006
			C293.51,307.314,294.197,305.385,294.344,303.827z"/>
		<path style="fill:#FFFFFF;" d="M247.955,292.082c0.043,1.488-2.666,4.872-3.324,6.522c-0.537-0.491-0.943-0.862-1.313-1.199
			C244.402,294.447,246.179,294.164,247.955,292.082C248.005,293.835,246.971,293.235,247.955,292.082z"/>
		<path style="fill:#FFFFFF;" d="M245.69,305.722c-0.345,0.041-0.902,0.237-1.004,0.098c-1.238-1.681-1.805-3.562-1.583-6.221
			c0.653,0.998,1.017,1.554,1.381,2.108c0.165-0.147,0.332-0.296,0.508-0.453C245.625,302.316,245.336,304.426,245.69,305.722z"/>
		<path style="fill:#FFFFFF;" d="M219.262,297.495c-0.42-2.877,0.167-3.906-2.677-4.978c1.717-0.97,2.989-0.191,4.542-0.111
			C220.292,293.299,219.455,297.445,219.262,297.495C219.059,296.109,219.427,297.452,219.262,297.495z"/>
		<path style="fill:#FFFFFF;" d="M323.298,308.251c1.85-0.953,2.005-1.116,2.12-2.798c0.377,1.484,1.329,2.371,2.857,2.661
			C326.361,308.876,324.841,308.605,323.298,308.251C325.147,307.297,324.841,308.605,323.298,308.251z"/>
		<path style="fill:#FFFFFF;" d="M226.799,373.785c1.725-0.701,3.457-0.713,5.196-0.036
			C230.83,374.546,228.137,375.114,226.799,373.785C228.212,373.086,226.947,373.931,226.799,373.785z"/>
		<path style="fill:#FFFFFF;" d="M254.494,292.39c1.166,0.395,4.23,3.132,2.209,4.3C256.031,295.381,255.365,294.084,254.494,292.39
			C256.258,292.987,255.365,294.084,254.494,292.39z"/>
		<path style="fill:#FFFFFF;" d="M178.037,374.625c0.419-2.679,4.229-0.372,4.683,0.852
			C181.311,374.348,179.003,375.488,178.037,374.625C178.115,374.123,178.097,374.678,178.037,374.625z"/>
		<path style="fill:#FFFFFF;" d="M190.162,375.95c-0.982-0.744-1.844-1.398-2.803-2.124
			C188.3,371.852,190.475,374.539,190.162,375.95C189.18,375.206,190.525,374.311,190.162,375.95z"/>
		<path style="fill:#FFFFFF;" d="M256.605,307.193c-1.006,1.434-2.731,1.118-4.085,1.712
			C253.448,307.472,255.084,306.952,256.605,307.193z"/>
		<path style="fill:#FFFFFF;" d="M7.092,267.447c-0.635,0.95-1.518,1.073-2.649,0.368C6.686,265.273,5.301,267.447,7.092,267.447z"
			/>
		<path style="fill:#FFFFFF;" d="M270.069,305.34c0.767,0.735,0.686,1.33-0.243,1.784c0.895,0.419,1.082,0.867,0.56,1.344
			C268.625,308.447,269.484,306.186,270.069,305.34C270.26,305.727,269.251,306.525,270.069,305.34z"/>
		<path style="fill:#FFFFFF;" d="M292.46,275.496c1.12-0.019,1.882,0.874,1.551,1.827c-0.074,0.212-0.977,0.077-1.07,0.059
			C292.781,276.753,292.62,276.124,292.46,275.496C293.58,275.477,292.62,276.124,292.46,275.496z"/>
		<path style="fill:#FFFFFF;" d="M343.122,186.737c-0.206-0.209-0.412-0.418-0.618-0.627c1.289-0.852,2.108-0.677,2.458,0.525
			C344.359,187.198,343.745,187.232,343.122,186.737C342.916,186.528,343.405,186.853,343.122,186.737z"/>
		<path style="fill:#FFFFFF;" d="M340.194,230.653c-0.083,1.107-2.706,1.375-2.291-0.216
			C338.686,230.337,339.485,229.951,340.194,230.653C340.185,230.773,339.485,229.951,340.194,230.653z"/>
		<path style="fill:#FFFFFF;" d="M8.056,275.479c1.133,0.085,1.492,1.215,1.34,2.119C8.18,276.893,8.18,276.893,8.056,275.479
			C8.797,275.535,8.18,276.893,8.056,275.479z"/>
		<path style="fill:#FFFFFF;" d="M212,381.807c0.635-1.223,1.47-1.428,2.549-1.854C214.137,381.364,213.276,381.53,212,381.807z"/>
		<path style="fill:#FFFFFF;" d="M8.971,268.397c-0.375,0.432-0.712,0.972-1.405,0.486c0.018-1.339-0.144-1.814-0.485-1.423
			C7.94,267.236,8.57,267.548,8.971,268.397C8.596,268.828,8.669,268.088,8.971,268.397z"/>
		<path style="fill:#FFFFFF;" d="M265.532,276.903c1.112-1.266,1.425-0.418,1.653,0.952
			C266.502,277.745,265.951,277.427,265.532,276.903C265.722,276.687,265.71,277.072,265.532,276.903z"/>
		<path style="fill:#FFFFFF;" d="M87.629,291.605c0.635,0.177,1.27,0.355,1.928,0.539C88.704,293.062,88.704,293.062,87.629,291.605
			z"/>
		<path style="fill:#FFFFFF;" d="M250.113,308.978c-0.693-0.415-1.437-0.698-2.231-0.849c1.222-0.98,1.784-0.059,2.473,0.302
			C250.274,308.614,250.194,308.796,250.113,308.978C249.753,308.801,250.194,308.796,250.113,308.978z"/>
		<path style="fill:#FFFFFF;" d="M351.552,308.015c-0.774,0.935-1.45,1.012-2.253,0.25
			C350.013,308.006,350.57,307.238,351.552,308.015z"/>
		<path style="fill:#FFFFFF;" d="M354.752,104.048c-0.52-0.263-1.041-0.525-1.431-0.723c1.236-1.56,1.579-2.129,1.029-1.706
			C354.885,102.342,354.802,103.311,354.752,104.048z"/>
		<path style="fill:#FFFFFF;" d="M264.604,225.882c0.157,0.166,0.314,0.332,0.47,0.498c-0.568,0.955-1.408,0.152-2.11,0.367
			C263.377,226.15,263.914,225.864,264.604,225.882C264.761,226.048,263.914,225.864,264.604,225.882z"/>
		<path style="fill:#FFFFFF;" d="M47.333,237.734c-0.28-0.552-0.56-1.104-0.84-1.656c0.256-0.092,0.512-0.185,0.768-0.277
			C47.497,236.438,48.146,237.059,47.333,237.734C47.053,237.182,48.146,237.059,47.333,237.734z"/>
		<path style="fill:#FFFFFF;" d="M293.875,229.175c-0.172,1.154-0.725,1.484-1.656,0.988
			C293.237,229.708,292.441,228.751,293.875,229.175z"/>
		<path style="fill:#FFFFFF;" d="M377.053,278.356c-0.836-0.528-1.549-1.199-2.137-2.013c1.525,0.319,1.84,1.145,2.468,1.636
			C377.273,278.104,377.163,278.23,377.053,278.356C376.813,278.188,377.163,278.23,377.053,278.356z"/>
		<path style="fill:#FFFFFF;" d="M34.079,275.969c0.868,0.509-0.042,0.94-0.062,1.41c-0.475-0.155-0.95-0.31-1.426-0.464
			C33.046,275.823,33.356,275.963,34.079,275.969C34.947,276.478,33.899,275.968,34.079,275.969z"/>
		<path style="fill:#FFFFFF;" d="M37.737,268.918c-0.291-0.685-0.582-1.371-0.874-2.056C37.8,267.249,38.276,267.851,37.737,268.918
			z"/>
		<path style="fill:#FFFFFF;" d="M256.503,307.092c0.383-0.591,0.766-1.181,1.296-1.999
			C258.185,306.43,257.551,307.076,256.503,307.092z"/>
		<path style="fill:#FFFFFF;" d="M307.119,234.368c0.311,0.958,1.184,1.865-0.009,2.377
			C306.933,236.156,306.229,234.806,307.119,234.368C307.235,234.726,306.482,234.682,307.119,234.368z"/>
		<path style="fill:#FFFFFF;" d="M299.436,114.771c0.365,0.347,0.73,0.694,1.096,1.04c-0.378,0.11-0.756,0.219-1.134,0.329
			C299.411,115.684,299.423,115.227,299.436,114.771C299.801,115.118,298.944,115.215,299.436,114.771z"/>
		<path style="fill:#FFFFFF;" d="M226.799,373.785c0.653,0.409,0.723,1.004,0.208,1.784
			C226.347,374.944,225.829,374.36,226.799,373.785C226.947,373.931,225.829,374.36,226.799,373.785z"/>
		<path style="fill:#FFFFFF;" d="M8.971,268.397c-1.026-0.465-1.179-1.061-0.46-1.788C9.013,267.305,8.998,267.586,8.971,268.397
			C8.669,268.088,8.976,268.245,8.971,268.397z"/>
		<path style="fill:#FFFFFF;" d="M369.629,274.195c0.485,0.143,0.868,0.43,1.15,0.863
			C370.122,275.558,369.448,274.984,369.629,274.195C369.893,274.311,369.563,274.482,369.629,274.195z"/>
		<path style="fill:#FFFFFF;" d="M265.532,276.903c0.632,0.305,0.735,0.759,0.309,1.365c-0.441-0.407-0.787-0.725-1.229-1.132
			c0.355-0.279,0.634-0.5,0.913-0.72C265.528,276.578,265.53,276.74,265.532,276.903C265.71,277.072,265.53,276.74,265.532,276.903z
			"/>
		<path style="fill:#FFFFFF;" d="M253.746,292.987c-0.457-0.35-0.913-0.699-1.572-1.204c1.169-0.341,1.381,0.48,1.868,0.805
			C253.944,292.721,253.845,292.854,253.746,292.987C253.29,292.637,253.845,292.854,253.746,292.987z"/>
		<path style="fill:#FFFFFF;" d="M158.648,212.799c-0.583-0.623-0.882-0.942-1.29-1.379
			C158.508,211.055,158.861,211.365,158.648,212.799z"/>
		<path style="fill:#FFFFFF;" d="M10.836,277.014c0.149,0.321,0.298,0.642,0.446,0.963c-0.195,0.077-0.39,0.153-0.585,0.23
			c-0.115-0.33-0.229-0.66-0.344-0.99C10.514,277.149,10.675,277.082,10.836,277.014C10.985,277.335,10.675,277.082,10.836,277.014z
			"/>
		<path style="fill:#FFFFFF;" d="M60.343,214.029c-0.753,0.583-1.156,0.543-1.211-0.118c0.374-0.096,0.748-0.192,1.121-0.287
			C60.283,213.759,60.313,213.894,60.343,214.029C59.981,214.129,60.313,213.894,60.343,214.029z"/>
		<path style="fill:#FFFFFF;" d="M245.686,305.726c0.87-0.022,1.11,0.38,0.679,1.593
			C246.325,305.846,246.098,305.315,245.686,305.726z"/>
		<path style="fill:#FFFFFF;" d="M268.576,307.599c-0.482,0.582-0.968,1.194-1.545,0.154
			C267.62,307.694,268.098,307.646,268.576,307.599z"/>
		<path style="fill:#FFFFFF;" d="M48.194,266.983c1.84-1.296,0.551,0.938,1.425,0.938C48.337,266.825,47.862,266.513,48.194,266.983
			z"/>
		<path style="fill:#FFFFFF;" d="M13.238,267.464c-0.479-0.149-0.958-0.297-1.437-0.446c0.206-0.295,0.412-0.59,0.818-1.17
			C12.896,266.57,13.067,267.017,13.238,267.464C12.759,267.316,13.067,267.017,13.238,267.464z"/>
		<path style="fill:#FFFFFF;" d="M68.503,254.688c-0.877,0.718-1.227,0.481-1.412-0.463
			C68.335,254.96,68.806,255.114,68.503,254.688z"/>
		<path style="fill:#FFFFFF;" d="M21.219,230.993c0.851-0.177,1.117-1.132,1.887-1.417c0.334,0.513,0.669,1.026,1.003,1.539
			C23.238,231.839,21.975,231.756,21.219,230.993C22.07,230.816,21.41,231.185,21.219,230.993z"/>
		<path style="fill:#FFFFFF;" d="M247.551,239.173c-0.509,0.111-1.019,0.223-1.462,0.319c-0.138-0.607-0.275-1.21-0.412-1.814
			C246.786,237.633,247.41,238.131,247.551,239.173C247.041,239.284,247.395,238.82,247.551,239.173z"/>
		<path style="fill:#FFFFFF;" d="M275.444,270.296c0.001-0.321,0.001-0.642,0.002-0.963c0.788,0.402,1.474,0.881,1.431,1.907
			C276.4,270.926,275.922,270.611,275.444,270.296C275.445,269.975,275.922,270.611,275.444,270.296z"/>
		<path style="fill:#FFFFFF;" d="M18.437,269.336c-0.277,0.746-0.941,0.373-1.433,0.496
			C17.274,268.833,17.274,268.833,18.437,269.336z"/>
	</g>
</g>
<path style="fill:#FFFFFF;" d="M208.466,116.286c-2.448-0.547-4.895-1.094-7.587-1.695c1.585-2.403,2.005-4.488,1.735-7.073
	c-7.703,2.751-4.45,26.296-10.404,26.161c-0.189-0.739-0.378-1.478-0.641-2.509c-1.588,0.988-2.855,1.777-4.203,2.616
	c1.834,2.241,3.321,0.142,4.894-0.164c2.658,4.162,0.028,7.819-0.931,12.294c-2.379-2.026-4.623-3.084-7.432-1.647
	c0.594,0.998,1.18,1.984,2.256,3.793c0.747-1.164,1.177-1.834,1.7-2.649c15.03,21.316-26.268,19.449-34.196,18.944
	c4.927-14.181-10.893-34.759-6.714-47.733c-4.719-0.851-8.039-24.207-8.431-26.631c-2.056-12.69-8.586-27.798-8.586-41.082
	c13.817-2.688,22.405-1.576,26.519,10.538c1.864,5.49,8.122,21.911-0.005,27.138c6.705,0,12.105,10.377,4.946,14.148
	c9.611,2.14,3.938,17.17,10.055,23.089c2.089-10.058,12.045-65.867,17.068-64.968c-6.272-9.374,12.166-13.235,18.523-9.635
	c7.577,4.291,7.773,11.535,9.832,20.651c1.255,5.56,7.342,53.778,12.176,54.884c0.962-17.708,8.227-36.075,11.782-53.332
	c5.252-25.495,3.033-22.344,29.477-22.344c-2.509,11.872-6.142,61.188-17.745,65.375c4.116,8.11-1.474,37.232-8.783,40.316
	c4.912,10.164-13.499,13.134-19.305,4.523c-4.474,16.741-14.451-4.766-15.395-6.045c2.304-0.872,3.872-1.466,5.387-2.04
	c-0.936-3.681-2.873-1.251-4.312-0.38c-3.577-6.795-3.777-10.506-0.683-15.647c-1.244,0.127-2.139,0.219-3.304,0.339
	c0-2.024,0-4.022,0-6c1.067,0,1.975,0,2.952,0c-1.27-3.127-11.499-8.94-3.965-12.18c1.209,1.525,2.434,3.069,4.175,5.265
	c0.341-4.747,3.77-8.8-0.855-11.999C208.466,112.628,208.466,114.457,208.466,116.286
	C206.018,115.739,208.466,114.457,208.466,116.286z M197.196,70.166c1.617,1.411,2.729,0.977,3.337-1.304
	c-1.022-0.998-2.044-1.995-3.066-2.993c-0.52,3.738-3.82,3.582-1.292,7.653C196.511,72.416,196.853,71.291,197.196,70.166
	C197.815,70.453,196.853,71.291,197.196,70.166z M162.335,131.149c1.133,2.126,1.803,4.648,4.694,5.811
	c-0.691-2.461-1.259-4.484-1.792-6.383c-3.774,1.432-7.142,0.282-10.104-3.45c-0.659,0.779-1.34,1.584-2.123,2.509
	C156.274,130.036,158.903,132.964,162.335,131.149C163.468,133.275,158.903,132.964,162.335,131.149z M187.398,102.562
	c2.868,2.847,6.223,1.896,10.173,1.896c-5.318-4.058-5.484-9.255-12.176-8.925c0.44,0.953,0.872,1.888,1.319,2.856
	c-1.13,0.36-1.94,0.619-3.535,1.128C184.881,100.145,186.287,101.159,187.398,102.562
	C188.035,103.194,186.896,102.055,187.398,102.562z M182.772,106.237c0,7.171,3.412,8.952,9.6,6.531
	C189.047,110.505,186.077,108.485,182.772,106.237C182.772,108.493,186.077,108.485,182.772,106.237z M194.46,82.51
	c3.463-2.905,3.35-3.401-1.644-8.168C191.16,77.3,191.261,79.97,194.46,82.51z M208.429,85.053c1.338-0.778,2.312-1.345,3.282-1.909
	c-1.621-2.725-4.378-3.873-6.864-1.907C206.039,82.506,207.101,83.638,208.429,85.053C209.767,84.274,207.101,83.638,208.429,85.053
	z M155.674,115.908c-1.878,2.412-4.359,3.487-2.231,6.846C155.476,118.833,157.518,120.49,155.674,115.908
	C153.796,118.32,156.305,117.476,155.674,115.908z M230.525,141.584c-1.293-1.555-2.365-2.842-4.322-5.196
	c0.892,2.658,1.207,5.38,0.944,8.167C228.421,143.435,229.28,142.679,230.525,141.584
	C229.232,140.03,229.28,142.679,230.525,141.584z M244.432,79.763c1.23,0.197,2.924,0.468,5.189,0.83
	c-1.633-1.968-2.926-3.526-4.383-5.283C244.931,77.004,244.684,78.367,244.432,79.763C245.662,79.96,244.684,78.367,244.432,79.763z
	 M160.505,110.57c-1.223,3.005-0.039,4.983,2.847,6.187C162.402,114.694,161.453,112.632,160.505,110.57z M145.372,104.67
	c-0.335,0.263-0.671,0.526-1.006,0.79c2.155,3.646,4.442,3.943,6.863,0.89C148.942,105.694,147.157,105.182,145.372,104.67
	C145.036,104.933,147.157,105.182,145.372,104.67z M176.201,149.206c2.065-0.515,4.147-0.579,6.247-0.192
	C178.298,146.122,178.298,146.122,176.201,149.206C177.257,149.042,178.298,146.122,176.201,149.206z M190.585,137.826
	c-1.509-0.656-2.561-1.113-4.777-2.076c1.309,2.342,2.037,3.645,3.007,5.381C189.513,139.827,189.961,138.991,190.585,137.826
	C189.076,137.17,189.961,138.991,190.585,137.826z M159.615,91.637c-0.261,0.076-0.522,0.151-0.783,0.227
	c-0.021-0.117-0.404,6.164,0.5,5.073C161.355,95.338,161.449,93.571,159.615,91.637C159.355,91.712,160.083,92.616,159.615,91.637z
	 M176.087,142.939c-2.356-0.968-2.356-0.968-4.576,0.141c0.448,0.859,0.895,1.716,1.461,2.8
	C173.968,144.94,174.815,144.141,176.087,142.939C173.731,141.972,174.815,144.141,176.087,142.939z M155.938,100.025
	c0.238-2.782-0.947-4.542-3.615-5.231C153.527,96.538,154.732,98.282,155.938,100.025z M177.308,116.255
	c2.428,2.084,4.039,2.795,4.864-1.32C180.39,115.419,179.06,115.779,177.308,116.255z M151.759,61.412
	c-1.437-0.827-2.127-1.224-2.817-1.621c-0.437,1.121-0.874,2.242-1.596,4.096C149.054,62.928,149.913,62.447,151.759,61.412
	C150.322,60.584,149.913,62.447,151.759,61.412z M203.964,104.173c1.016,1.763,1.954,3.737,5.205,1.99
	C206.886,105.29,205.425,104.731,203.964,104.173z M221.994,133.002c-2.408-0.714-3.361-0.997-4.315-1.28
	c0.027,0.883,0.054,1.765,0.081,2.648C218.696,134.068,219.631,133.765,221.994,133.002
	C219.585,132.288,219.631,133.765,221.994,133.002z M153.619,106.214c1.051,1.427,2.102,2.853,3.461,4.699
	C157.505,107.887,155.994,106.666,153.619,106.214z M174.762,157.966c2.562,2.109,3.616,0.653,4.555-1.241
	C177.979,157.089,176.64,157.454,174.762,157.966z M160.637,136.598c-1.896,2.637-0.191,3.119,1.66,3.568
	C161.744,138.977,161.191,137.788,160.637,136.598z M218.797,118.399c0.351-0.443,0.701-0.886,1.052-1.329
	c-1.681-0.19-1.099-3.241-4.774-1.817C216.545,116.496,217.671,117.448,218.797,118.399
	C219.148,117.956,217.671,117.448,218.797,118.399z M178.773,143.268c0.359-0.281,0.718-0.561,1.077-0.842
	c-1.016-1.11-2.032-2.221-3.047-3.331c-0.258,0.213-0.515,0.427-0.773,0.64C176.944,140.912,177.859,142.09,178.773,143.268
	C179.132,142.987,177.859,142.09,178.773,143.268z M204.234,89.145c-0.008,2.086,0.553,3.517,3.45,2.608
	C206.143,90.587,205.189,89.866,204.234,89.145z M227.109,153.606c0.514,0.43,1.027,0.859,1.541,1.289
	c0.721-0.927,1.443-1.855,2.899-3.728C229.303,152.401,228.206,153.004,227.109,153.606
	C227.623,154.036,228.206,153.004,227.109,153.606z M201.258,58.968c-0.353,0.225-0.705,0.451-1.058,0.676
	c0.636,0.968,1.272,1.936,1.907,2.903c0.312-0.182,0.624-0.364,0.936-0.546C202.449,60.99,201.854,59.979,201.258,58.968
	C200.906,59.193,201.854,59.979,201.258,58.968z M211.581,74.235c-0.391-3.121-0.391-3.121-2.581-3.378
	C209.703,71.779,210.429,72.728,211.581,74.235z M244.254,118.985c-0.282,0.27-0.563,0.539-0.845,0.809
	c0.81,0.885,1.619,1.77,2.429,2.655c0.394-0.381,0.788-0.763,1.182-1.144C246.098,120.531,245.176,119.758,244.254,118.985
	C243.973,119.254,245.176,119.758,244.254,118.985z M174.894,131.257c-0.244,0.122-0.487,0.245-0.731,0.367
	c0.294,1.226,0.862,2.318,1.703,3.274c0.278-0.17,0.557-0.34,0.835-0.509C176.099,133.345,175.497,132.301,174.894,131.257
	C174.651,131.379,175.497,132.301,174.894,131.257z M148.414,83.556c-0.33-0.332-0.66-0.664-0.99-0.996
	c-0.847,0.852-1.695,1.704-2.542,2.555c0.331,0.333,0.662,0.667,0.992,1C146.721,85.262,147.567,84.409,148.414,83.556
	C148.084,83.224,147.567,84.409,148.414,83.556z M183.333,77.013c0.763,3.201,1.468,4.279,3.97,3.765
	C186.019,79.561,185.16,78.747,183.333,77.013z"/>
</svg>
