<?xml version="1.0" encoding="iso-8859-1"?>
<!-- Generator: Adobe Illustrator 19.1.0, SVG Export Plug-In . SVG Version: 6.00 Build 0)  -->
<svg version="1.1" id="Calque_1" xmlns="http://www.w3.org/2000/svg" xmlns:xlink="http://www.w3.org/1999/xlink" x="0px" y="0px"
	 viewBox="0 0 400 340.382" style="enable-background:new 0 0 400 340.382;" xml:space="preserve">
<g>
	<path style="fill:#FFFFFF;" d="M399.7,141.893h-12.595c0.049,0.026,0.096,0.05,0.145,0.076c-0.281,0.235-0.612,0.147-0.964-0.076
		h-7.195c0.092,0.139,0.174,0.26,0.245,0.366c-0.332-0.002-0.467-0.006-0.646-0.366h-6.191c-0.477,0-0.871-0.123-1.198-0.32
		c-0.021,0.001-0.041,0.004-0.062,0.005c-7.714,0.192-15.414-0.096-23.095-0.691c-1.489,0.312-2.892,0.74-4.171,1.32
		c0.373,1.048-1.32,1.887-2.073,2.678c-0.35-1.92,1.793-2.18,0.605-3.652c-0.903-1.118-6.026-0.44-7.502-0.437
		c-5.518,0.014-11.034,0.06-16.549,0.1c-7.237,0.053-13.644,0.001-20.838-0.073c-23.362-0.242-47.349,0.262-70.279,0.799
		c-1.802,0.042-3.619,0.069-5.443,0.088c0.433,0.777,0.699,1.255,1.021,1.832c-1.912,0.628-5.799,2.34-3.509-0.566
		c0.576,0.394,1.15,0.786,1.724,1.179c0.638-0.699,0.865-1.515,0.691-2.444c-17.594,0.185-36.081-0.602-53.272-0.889
		c-24.708-0.413-49.758-0.858-74.443,0.242c2.29,1.53,5.497,0.953,7.023,3.622c-2.716,0.743-5.976-2.382-8.122-3.07
		c-2.969-0.951-6.36-0.617-9.802-0.648c-4.774-0.043-7.244-1.003-10.042,3.186c-0.955,1.43-0.934,3.962-1.467,5.031
		c-0.972,1.95-1.144-0.343-2.582,3.38c3.192,0.335,5.2-0.553,6.926-3.177c0.645,0.259,0.609,0.814-0.109,1.664
		c-0.291-0.108-0.553-0.206-0.816-0.304c-0.125,0.571-0.251,1.143-0.428,1.952c4.205-0.462,9.744-1.315,13.664-0.319
		c-0.104-0.46-0.165-0.728-0.271-1.197c3.057,3.758,15.991,1.523,20.529,1.518c4.364-0.005,9.273,0.038,13.085,0.09
		c16.965,0.231,33.978-0.132,50.953-0.101c15.633,0.028,31.284-0.272,46.904-0.209c7.473,0.03,14.94,0.149,22.416,0.132
		c3.508-0.008,22.345,1.627,23.565-0.907c-1.749-0.059-1.943-2.375-1.692-3.558c0.319,0.964,3.734,6.949,5.006,4.018
		c-0.274-0.213-0.547-0.425-1.282-0.995c1.054,0.159,1.539,0.232,2.023,0.305c-0.1,0.209-0.199,0.418-0.299,0.627
		c0.097,0.308,5.911-0.199,6.647-0.112c2.799,0.329,14.182,2.748,14.379-1.206c0.924,1.18,1.617,2.65,3.344,1.652
		c-0.031-0.337-0.06-0.654-0.107-1.155c2.61,1.683,6.16,1.311,8.95,1.311c6.25,0,12.549,0.038,18.818,0.042
		c8.708,0.006,17.378,0.048,26.288,0.048c-0.098-0.56-0.156-0.895-0.267-1.532c0.664,0.606,1.067,0.973,1.517,1.382
		c1.823-2.243,20.962,0.233,24.473,0.192c8.584-0.1,17.928,0.882,26.429-0.194C399.594,148.946,399.904,145.456,399.7,141.893z
		 M85.534,150.355c-1.338-0.692-2.16-1.805-2.466-3.34c1.002,0.542,1.527,0.993,1.496,1.878c1.065,0.111,0.749-0.592,0.386-1.386
		C86.722,148.944,86.722,148.944,85.534,150.355z M89.103,150.802c-0.313-0.419-0.528-0.707-0.743-0.995
		c-0.379,0.07-0.758,0.14-1.297,0.24c-0.024-0.452-0.049-0.925-0.081-1.53c2.727,0.038-0.468,1.674,2.891,1
		C89.571,150.022,89.376,150.347,89.103,150.802z M112.536,150.048c0.849-0.264,1.563-0.48,2.109,0.52
		C113.832,150.857,113.164,150.847,112.536,150.048z M166.862,144.906c-0.202-0.429-0.405-0.858-0.607-1.286
		c0.131-0.057,0.261-0.114,0.392-0.171c0.192,0.43,0.384,0.86,0.576,1.29C167.102,144.795,166.982,144.85,166.862,144.906z
		 M177.997,147.716c-0.039-0.143-0.078-0.285-0.117-0.428c0.321-0.288,0.643-0.576,1.041-0.933c0.103,0.178,0.267,0.463,0.524,0.907
		C178.919,147.427,178.458,147.571,177.997,147.716z M211.222,144.139c-0.315-0.337-0.63-0.674-0.944-1.012
		c0.112-0.108,0.223-0.217,0.335-0.325c0.346,0.307,0.691,0.613,1.037,0.92C211.507,143.861,211.364,144,211.222,144.139z
		 M217.489,148.667c0.944-0.126,0.898-0.867,1.096-1.619c0.496,0.733,0.921,1.36,1.442,2.128
		C219.072,149.352,218.236,149.599,217.489,148.667z M245.607,143.485c1.072,1.583,1.067,3.11,2.539,5.016
		C246.109,147.634,244.634,145.472,245.607,143.485z M251.094,143.021c-0.368-0.262-0.736-0.525-1.105-0.788
		c0.093-0.13,0.186-0.261,0.279-0.392c0.362,0.272,0.723,0.544,1.085,0.817C251.267,142.779,251.18,142.9,251.094,143.021z
		 M254.453,150.7l-0.107-0.348c0.587-0.624,0.962-0.639,1.127-0.047C255.132,150.436,254.793,150.568,254.453,150.7z
		 M263.818,146.654c0.691-0.117,1.333-0.225,2.004-0.339C265.058,147.286,265.058,147.286,263.818,146.654z M276.006,142.629
		c0.137-0.115,0.274-0.229,0.411-0.344c0.412,0.539,0.823,1.079,1.555,2.037C276.682,143.839,276.193,143.372,276.006,142.629z
		 M287.274,150.284c-0.594-0.3-1.188-0.6-1.781-0.899c2.212,0.202,1.683-0.041,3.73,1.683
		C288.402,151.069,287.302,151.716,287.274,150.284z M300.372,143.545c0.711-0.103,1.188-0.173,2.092-0.304
		c-0.665,0.632-1.076,1.022-1.62,1.539C300.653,144.279,300.552,144.017,300.372,143.545z M302.57,151.551
		c-0.321-0.174-0.643-0.349-1.044-0.566c0.859-0.943,0.969-0.091,1.287,0.176C302.733,151.291,302.652,151.421,302.57,151.551z
		 M319.378,142.452c-0.121,0.032-0.241,0.065-0.362,0.097c-0.117-0.334-0.235-0.668-0.352-1.001
		C319.229,141.301,319.467,141.602,319.378,142.452z M329.883,151.669c0.269-0.539,0.431-0.865,0.748-1.5
		c0.203,0.633,0.306,0.953,0.409,1.274C330.706,151.508,330.37,151.574,329.883,151.669z M337.939,142.387
		c0.111,0.31,0.221,0.62,0.331,0.931c-0.158,0.045-0.315,0.089-0.473,0.134C337.307,142.813,337.354,142.458,337.939,142.387z
		 M337.657,145.087c1.488-0.178,1.488-0.178,2.645-1.38C341.837,146.126,339.318,146.31,337.657,145.087z M386.024,145.085
		c0.618,0.436,1,0.706,1.748,1.233C386.573,146.452,386.239,146.113,386.024,145.085z M388.182,143.962
		c-0.019-0.002-0.041-0.007-0.069-0.02c0.365-0.405,0.854-0.546,1.467-0.424C389.373,143.546,388.797,144.182,388.182,143.962z"/>
	<path style="fill:#FFFFFF;" d="M32.592,232.038c-0.704,3.044-12.169,1.2-13.886,1.229c-0.629-0.13-1.104-0.494-1.425-1.091
		c-0.481,0.849-1.16,1.228-2.036,1.137c-0.577-0.112-3.372,0.605-3.415-0.499c-0.031-0.787-0.025-3.381-2.322-0.755
		c-1.101-0.806-0.659-1.212-2.356-1.737c-0.213,1.263,0.782,1.99,1.21,3.122c-2.839,0-5.6,0-8.361,0c0-3.937,0-7.875,0-11.812
		c1.157-0.137,2.314-0.273,3.715-0.439c-0.364,0.85-0.643,1.501-0.887,2.073c0.578,0.292,6.208,2.271,6.145-0.201
		c1.653,0.536,2.84,2.837,3.313-0.013c1.32,0.863,1.754,2.532,3.316,1.876c0.631,1.37-0.425,1.285,0.676,2.724
		c0.966-0.938,0.966-0.938,0.721-2.343c1.339,0.821,2.303,0.375,2.894-1.338c-0.403-0.574-0.894-0.405-1.473,0.506
		c-0.009-1.858-1.356-0.646-2.298-1.215c0.316,0.836,0.331,1.436-0.538,1.687c-1.302-1.85-3.374-1.18-0.99-3.174
		c1.841-1.54,8.48-0.227,10.86-0.221c2.013,0.004,4.245-0.411,6.428-0.246c4.286,0.324,3.474,1.523,6.546,3.893
		c1.565-0.817,1.502-1.877-0.19-3.181c1.568-0.468,3.13,0.814,3.764,2.174c0.528-1.576-0.482-2.009-1.254-2.838
		c2.419,0.084,5.273,0.745,7.447,0.745c-0.409,0.28-0.819,0.559-1.228,0.839c1.324,0.674,2.469,0.187,3.555,0.024
		c2.82-0.422,5.701-1.42,9.338-1.308c7.484,0.23,15.04-0.274,22.636-0.218c17.293,0.127,34.943,0.326,52.166,0.075
		c14.402-0.21,28.249,0.028,43.102-0.24c11.605-0.209,23.24,0.271,34.842,0.141c3.824-0.043,15.554,2.353,19.084,0.055
		c-0.078,1.355,0.23,2.99,1.323,3.813c0.307-1.403-1.66-1.89,0.099-3.413c3.317,1.097,11.797-2.458,14.48,0.79
		c0.221-2.487,5.931-0.881,6.816-0.819c4.616,0.324,4.416-0.589,7.069,3.271c1.095-5.257,5.524-3.335,9.263-3.221
		c1.732,0.053,9.595,0.893,10.045-0.48c0.931,0.234,1.831,0.46,2.73,0.686c-0.074,0.188-0.291,2.237,0.354,2.118
		c1.209-0.26,1.389-0.966,0.539-2.118c1.402-0.524,1.402-0.524,2.788,1.015c-0.093-0.593-0.142-0.905-0.2-1.273
		c0.039-0.066,3.483-0.263,3.591,0.747c-1.36-0.032-1.461,1.353-2.231,1.826c0.712,0.701,1.454,0.901,2.227,0.602
		c-0.891-0.768-0.896-1.584-0.015-2.447c0.749,1.534,1.683,1.701,2.802,0.501c-0.29-0.436-0.614-0.924-0.94-1.414
		c0.462-0.294,3.592-0.299,3.832-0.292c1.162-0.154,2.156,0.143,2.982,0.89c0.846,0.987,1.666,0.826,2.459-0.482
		c8.041,1.625,1.698,2.762,2.958,4.828c0.505-0.168,1.009-0.336,1.514-0.503c-0.203-0.485-0.345-0.824-0.487-1.163
		c0.199,0.025,6.139-0.106,4.674,0.679c-0.139-0.389-0.279-0.778-0.418-1.167c1.765,0.137,2.394-0.016,1.888-0.458
		c0.385,0.244,0.771,0.489,1.156,0.733c-0.394,0.792-1.222,0.274-1.945,0.447c0.603,0.74,1.173,1.438,1.865,2.286
		c3.353-3.426,5.358,2.981,9.48,1.288c0.267,0.773,0.506,1.467,0.883,2.561c0.287-0.463,0.397-0.641,0.365-0.59
		c0.593,0.439,4.036,2.207,4.085,2.72c-3.156,0-12.506,1.98-11.918-2.85c-0.536,0.256-0.983,0.469-1.445,0.69
		c0.312,0.462,0.566,0.838,0.82,1.214c-3.605,2.415-10.43,0.049-14.87,0.913c0.027-0.361,0.053-0.697,0.08-1.046
		c-2.409-0.187-1.574-0.166-3.678-0.621c0.246,0.535,0.415,0.901,0.584,1.267c-1.281,0.354-2.795,0.45-3.476-0.455
		c0.068-0.032,0.18-0.048,0.198-0.098c0.331-0.953-0.431-1.846-1.551-1.827c-1.295,0.33,0.43,1.778,0.831,2.728
		c-4.001-0.72-8.887-0.083-12.894-0.063c-0.952,0.088-1.71-0.31-2.275-1.196c-0.479,0.905-1.173,1.329-2.081,1.272
		c-2.062-0.316-4.863,0.23-6.096-2.131c0.073,0.473,0.146,0.947,0.218,1.42c-2.003,1.563-2.947-2.54-4.631-0.624
		c-0.034-2.731-1.924-3.104,1.362-4.662c-2.078-0.643-2.131,2.687-3.276-0.45c-0.495,0.527-0.878,0.935-1.395,1.485
		c-0.772-0.638-1.471-1.216-2.179-1.801c-0.152,0.476,0.507,1.351-0.659,1.18c0.18-0.628-0.003-1.063-0.55-1.306
		c-0.353,1.659,4.909,2.827,5.691,4.771c-1.347,0.946-2.064-0.253-2.912-0.947c-0.913,1.02,0.435,1.906,0.051,2.837
		c-3.162,0.731-6.965,0.625-8.202-2.37c0.858,0,1.7,0,2.513,0c0.245-0.674,0.93-1.304-0.175-1.921
		c-0.415,0.385-2.571,1.151-2.669,1.334c-0.801,1.5,1.213,1.448,0.961,2.991c-3.174-1.038-13.674,2.495-15.075-1.618
		c-1.13,1.898-10.958,3.667-10.337,0.007c0.3-0.007,2.772,0.818,2.961,0.893c0-0.644,0-1.214,0-1.824
		c-3.318,0.942-0.515,0.067-3.307-0.693c-1.017-0.277-0.077,3.301-0.184,2.726c-5.951,1.991-13.746,0.675-20.048,0.712
		c-9.425,0.055-18.836,0.148-28.254,0.106c-14.285-0.064-28.107-0.015-42.121-0.009c-18.678,0.007-37.359,0.179-56.036,0.005
		c-7.108-0.066-14.964-0.464-21.683-0.394c-3.108,0.032-10.299,1.519-12.777-1.242c0.136,0.748,0.187,1.028,0.239,1.31
		c-1.806,0.446-6.42,0.436-8.246-0.042c0.144-0.373,0.348-0.709,0.612-1.007c-0.538-0.909-3.415,1.969-5.207,0.858
		c-1.556-0.965,1.169-3.239-0.423-4.044c0.024-0.086-0.572,2.164-0.653,2.164c-0.401-0.142-0.802-0.284-1.203-0.426
		C32.816,231.206,32.897,231.669,32.592,232.038z M38.282,227.31c-0.415-0.07-0.83-0.139-1.478-0.248
		c0.251,0.451,0.414,0.743,0.668,1.199c1.091-1.335,1.44-1.716-0.194-2.59C37.782,226.494,38.032,226.902,38.282,227.31
		C37.867,227.24,38.032,226.902,38.282,227.31z M247.115,228.728c-0.554,0.235-1.108,0.469-1.66,0.706
		c0.329,0.174,0.658,0.349,0.987,0.524c0.23-1.404,0.993-1.724,2.288-0.958c-0.58-0.669-0.948-1.094-1.544-1.782
		C247.15,227.985,247.132,228.356,247.115,228.728C246.561,228.962,247.132,228.356,247.115,228.728z M296.236,224.948
		c-0.484-0.622-0.458-1.766-1.964-1.802c0.632,0.473,1.977,1.761,2.11,2.533c0.553-0.167,1.059-0.319,1.615-0.487
		c-0.244-0.411-0.424-0.714-0.605-1.019C296.974,224.453,296.605,224.701,296.236,224.948
		C295.752,224.326,296.605,224.701,296.236,224.948z M275.462,224.475c-0.657-0.602-1.314-1.203-2.08-1.904c0,0.461,0,0.846,0,1.315
		c-0.723-0.481-1.333-0.934-1.934-0.037c1.36,0.541,2.922,0.441,4.015,1.554c0.212,1.769-1.451,1.048-2.342,0.713
		c-1.118,1.365-0.019,2.386,0.345,3.708c1.854-0.974,5.414-4.641,5.228-6.646c-0.591,0.655-1.069,1.184-1.533,1.697
		c-0.608-0.484-1.05-0.836-1.585-1.261C275.521,224.031,275.492,224.253,275.462,224.475
		C274.804,223.874,275.492,224.253,275.462,224.475z M298.822,227.56c-2.401-0.344-3.458-0.828-5.072,0.874
		c0.27,0.279,0.475,0.491,0.687,0.71c0.389-0.427,0.63-0.69,0.944-1.034c0.526,0.6,0.937,1.07,1.662,1.898
		C296.338,228.619,296.931,227.803,298.822,227.56C297.286,227.34,297.94,228.079,298.822,227.56z M25.449,228.802
		c-0.117,0.05-0.234,0.1-0.351,0.15c0.404,0.741,0.381,1.486-0.07,2.235c0.81,0.321,1.354,1.275,2.419,0.423
		C26.751,230.633,26.1,229.717,25.449,228.802C25.332,228.852,26.1,229.717,25.449,228.802z M309.621,231.421
		c0.848,0.415,1.384-0.062,1.606-1.432c-0.241-0.248-2.968-1.77-3.056-0.559C309.655,229.323,310.139,229.987,309.621,231.421
		C309.786,231.469,309.621,230.925,309.621,231.421z M280.569,227.829c-0.902-0.316-1.675-0.587-2.782-0.974
		c0.826,0.987,1.383,1.652,2.04,2.437C280.132,228.691,280.328,228.305,280.569,227.829
		C279.667,227.514,280.328,228.305,280.569,227.829z M105.978,224.403c-1.02-0.045-1.665-0.073-2.369-0.104
		c0.164,0.603-0.879,1.158-0.064,1.811C104.26,225.61,104.951,225.125,105.978,224.403
		C104.958,224.359,104.951,225.125,105.978,224.403z M299.049,229.685c0.941-0.462,1.582-0.777,2.282-1.121
		c-0.574-0.41-1.056-0.755-1.588-1.136C299.53,228.123,299.337,228.75,299.049,229.685
		C299.991,229.222,299.337,228.75,299.049,229.685z M50.874,229.635c0.338-1.44-0.832-1.614-1.473-2.155
		C49.345,228.505,50.156,228.927,50.874,229.635z M268.051,227.182c0.13,1.448,0.13,1.448,1.879,1.854
		C269.217,228.333,268.736,227.858,268.051,227.182z M36.842,226.406c-0.582-0.833-0.967-1.384-1.353-1.936
		C35.364,225.375,35.519,226.086,36.842,226.406z M283.604,230.48c0.497,0.464,0.993,0.929,1.782,1.667
		C285.2,230.847,284.551,230.52,283.604,230.48z M32.29,225.644c-1.013,1.241-1.013,1.241-0.748,2.507
		C31.78,227.352,31.957,226.759,32.29,225.644z M278.086,230.773c1.467-0.891,0.711-1.42,0.123-2.29
		C278.162,229.353,278.133,229.895,278.086,230.773z M26.815,224.699c-0.041,1.131-0.041,1.131,0.959,1.528
		C27.445,225.702,27.204,225.318,26.815,224.699z M48.212,225.78c-0.834-1.01-1.282-0.89-1.804,0
		C47.015,225.78,47.456,225.78,48.212,225.78z M255.749,227.414c0.47-0.635,0.372-1.101-0.296-1.397
		C255.076,226.588,255.174,227.054,255.749,227.414C255.882,226.981,255.475,227.097,255.749,227.414z M7.717,228.112
		c0-0.873-0.218-1.464-1.627-1.357C6.869,227.405,7.293,227.759,7.717,228.112z M130.869,226.346
		c0.075,0.761,0.12,1.218,0.176,1.788C131.968,227.524,131.895,227.06,130.869,226.346z M289.293,228.096
		c0.118-0.094,0.236-0.188,0.355-0.282c-0.363-0.443-0.726-0.885-1.09-1.328c-0.122,0.097-0.243,0.194-0.365,0.291
		C288.56,227.217,288.927,227.657,289.293,228.096C289.412,228.002,288.927,227.657,289.293,228.096z M2.02,228.581
		c0.111-0.084,0.222-0.168,0.334-0.253c-0.348-0.448-0.695-0.895-1.043-1.343c-0.113,0.086-0.227,0.172-0.34,0.257
		C1.32,227.689,1.67,228.135,2.02,228.581C2.131,228.497,1.67,228.135,2.02,228.581z M245.514,227.413
		c-0.242,0.166-0.654,0.448-1.177,0.807C245.396,228.322,245.396,228.322,245.514,227.413z M13.326,227.627
		c0.291,0.354,0.581,0.709,1.075,1.31C14.23,227.829,14.23,227.829,13.326,227.627z M231.646,228.428
		c-0.241-1.096-0.648-1.328-1.22-0.698C230.553,228.37,230.959,228.603,231.646,228.428
		C231.349,227.972,230.893,228.39,231.646,228.428z M3.006,229.904c0.508-0.146,1.017-0.292,1.939-0.556
		C3.761,228.744,3.345,229.197,3.006,229.904z M302.952,226.307c0.126-0.125,0.251-0.25,0.377-0.375
		c-0.326-0.326-0.652-0.652-0.977-0.979c-0.133,0.132-0.265,0.264-0.398,0.396C302.287,225.668,302.619,225.988,302.952,226.307
		C303.078,226.182,302.619,225.988,302.952,226.307z M63.153,231.529c-0.055-0.133-0.11-0.266-0.165-0.399
		c-0.442,0.2-0.884,0.401-1.325,0.601c0.044,0.109,0.088,0.219,0.132,0.328C62.247,231.883,62.7,231.706,63.153,231.529
		C63.098,231.396,62.7,231.706,63.153,231.529z M317.567,231.044c-0.1,0.085-0.201,0.17-0.301,0.255
		c0.3,0.329,0.601,0.657,0.901,0.986c0.093-0.078,0.185-0.156,0.278-0.234C318.152,231.714,317.859,231.379,317.567,231.044
		C317.467,231.129,317.859,231.379,317.567,231.044z M43.277,229.175c0.191-0.569,0.306-0.912,0.506-1.509
		C42.968,228.088,42.278,228.265,43.277,229.175z M291.944,229.21c0.098-0.077,0.197-0.154,0.295-0.231
		c-0.295-0.342-0.591-0.683-0.886-1.025c-0.092,0.076-0.184,0.152-0.276,0.227C291.366,228.524,291.655,228.867,291.944,229.21
		C292.042,229.133,291.655,228.867,291.944,229.21z M159.162,222.12c-0.079,0.097-0.157,0.193-0.236,0.29
		c0.336,0.295,0.672,0.59,1.008,0.885c0.088-0.102,0.175-0.203,0.263-0.305C159.852,222.7,159.507,222.41,159.162,222.12
		C159.084,222.216,159.507,222.41,159.162,222.12z M272.092,230.164c0.132,1.053,0.132,1.053,0.612,1.064
		C272.539,230.941,272.315,230.552,272.092,230.164z"/>
	<path style="fill:#FFFFFF;" d="M29.778,191.896c-0.928-0.207-1.856-0.415-2.876-0.643c0.601-0.911,0.76-1.702,0.658-2.682
		c-2.921,1.043-1.687,9.97-3.945,9.919c-0.072-0.28-0.143-0.56-0.243-0.951c-0.602,0.375-1.082,0.674-1.594,0.992
		c0.695,0.85,1.259,0.054,1.856-0.062c1.008,1.578,0.011,2.964-0.353,4.661c-0.902-0.768-1.753-1.169-2.818-0.624
		c0.225,0.379,0.447,0.752,0.855,1.438c0.283-0.441,0.446-0.695,0.645-1.004c5.698,8.082-9.959,7.374-12.965,7.182
		c1.868-5.377-4.13-13.179-2.546-18.097c-1.789-0.323-3.048-9.178-3.197-10.097C2.476,177.116,0,171.388,0,166.351
		c5.238-1.019,8.495-0.597,10.054,3.995c0.707,2.081,3.079,8.307-0.002,10.289c2.542,0,4.589,3.934,1.875,5.364
		c3.644,0.811,1.493,6.51,3.812,8.754c0.792-3.813,4.567-24.973,6.471-24.632c-2.378-3.554,4.613-5.018,7.023-3.653
		c2.873,1.627,2.947,4.373,3.727,7.829c0.476,2.108,2.783,20.389,4.617,20.809c0.365-6.714,3.119-13.677,4.467-20.22
		c1.991-9.666,1.15-8.471,11.176-8.471c-0.951,4.501-2.329,23.199-6.728,24.786c1.561,3.075-0.559,14.116-3.33,15.285
		c1.862,3.853-5.118,4.98-7.319,1.715c-1.696,6.347-5.479-1.807-5.837-2.292c0.874-0.331,1.468-0.556,2.043-0.773
		c-0.355-1.395-1.089-0.474-1.635-0.144c-1.356-2.576-1.432-3.983-0.259-5.932c-0.472,0.048-0.811,0.083-1.253,0.128
		c0-0.767,0-1.525,0-2.275c0.405,0,0.749,0,1.119,0c-0.482-1.185-4.36-3.389-1.503-4.618c0.458,0.578,0.923,1.164,1.583,1.996
		c0.129-1.8,1.429-3.337-0.324-4.549C29.778,190.509,29.778,191.202,29.778,191.896C28.85,191.688,29.778,191.202,29.778,191.896z
		 M25.505,174.41c0.613,0.535,1.035,0.37,1.265-0.494c-0.388-0.378-0.775-0.756-1.163-1.135c-0.197,1.417-1.448,1.358-0.49,2.902
		C25.245,175.263,25.375,174.836,25.505,174.41C25.74,174.519,25.375,174.836,25.505,174.41z M12.288,197.531
		c0.43,0.806,0.684,1.762,1.78,2.203c-0.262-0.933-0.477-1.7-0.68-2.42c-1.431,0.543-2.708,0.107-3.831-1.308
		c-0.25,0.295-0.508,0.601-0.805,0.951C9.99,197.109,10.987,198.219,12.288,197.531C12.717,198.337,10.987,198.219,12.288,197.531z
		 M21.79,186.692c1.087,1.08,2.36,0.719,3.857,0.719c-2.016-1.539-2.079-3.509-4.617-3.384c0.167,0.361,0.33,0.716,0.5,1.083
		c-0.428,0.137-0.736,0.235-1.34,0.428C20.836,185.776,21.369,186.161,21.79,186.692C22.032,186.932,21.6,186.5,21.79,186.692z
		 M20.036,188.086c0,2.719,1.294,3.394,3.64,2.476C22.415,189.704,21.289,188.938,20.036,188.086
		C20.036,188.941,21.289,188.938,20.036,188.086z M24.467,179.09c1.313-1.101,1.27-1.289-0.623-3.097
		C23.216,177.115,23.255,178.127,24.467,179.09z M29.764,180.054c0.507-0.295,0.876-0.51,1.244-0.724
		c-0.615-1.033-1.66-1.468-2.602-0.723C28.858,179.089,29.26,179.517,29.764,180.054C30.271,179.759,29.26,179.517,29.764,180.054z
		 M9.762,191.752c-0.712,0.915-1.652,1.322-0.846,2.596C9.687,192.861,10.462,193.489,9.762,191.752
		C9.05,192.667,10.002,192.347,9.762,191.752z M38.141,201.487c-0.49-0.589-0.896-1.078-1.639-1.97
		c0.338,1.008,0.458,2.04,0.358,3.096C37.343,202.189,37.669,201.902,38.141,201.487C37.651,200.898,37.669,201.902,38.141,201.487z
		 M43.414,178.049c0.466,0.075,1.109,0.177,1.967,0.315c-0.619-0.746-1.109-1.337-1.662-2.003
		C43.603,177.002,43.509,177.519,43.414,178.049C43.88,178.123,43.509,177.519,43.414,178.049z M11.594,189.729
		c-0.464,1.139-0.015,1.889,1.079,2.346C12.313,191.292,11.954,190.51,11.594,189.729z M5.856,187.491
		c-0.127,0.1-0.254,0.2-0.382,0.299c0.817,1.382,1.684,1.495,2.602,0.337C7.21,187.88,6.533,187.686,5.856,187.491
		C5.729,187.591,6.533,187.686,5.856,187.491z M17.545,204.377c0.783-0.195,1.572-0.22,2.368-0.073
		C18.34,203.208,18.34,203.208,17.545,204.377C17.945,204.315,18.34,203.208,17.545,204.377z M22.998,200.062
		c-0.572-0.249-0.971-0.422-1.811-0.787c0.496,0.888,0.772,1.382,1.14,2.04C22.592,200.821,22.762,200.504,22.998,200.062
		C22.426,199.814,22.762,200.504,22.998,200.062z M11.257,182.55c-0.099,0.029-0.198,0.057-0.297,0.086
		c-0.008-0.045-0.153,2.337,0.19,1.924C11.916,183.953,11.952,183.284,11.257,182.55C11.158,182.579,11.434,182.922,11.257,182.55z
		 M17.502,202.001c-0.893-0.367-0.893-0.367-1.735,0.054c0.17,0.326,0.339,0.651,0.554,1.062
		C16.698,202.759,17.019,202.456,17.502,202.001C16.608,201.634,17.019,202.456,17.502,202.001z M9.862,185.731
		c0.09-1.055-0.359-1.722-1.371-1.983C8.949,184.408,9.405,185.069,9.862,185.731z M17.965,191.884c0.921,0.79,1.531,1.06,1.844-0.5
		C19.133,191.567,18.629,191.704,17.965,191.884z M8.278,171.091c-0.545-0.314-0.806-0.464-1.068-0.615
		c-0.166,0.425-0.331,0.85-0.605,1.553C7.252,171.666,7.578,171.483,8.278,171.091C7.733,170.777,7.578,171.483,8.278,171.091z
		 M28.071,187.303c0.385,0.668,0.741,1.417,1.973,0.754C29.179,187.727,28.625,187.515,28.071,187.303z M34.907,198.233
		c-0.913-0.271-1.274-0.378-1.636-0.485c0.01,0.335,0.02,0.669,0.031,1.004C33.656,198.637,34.011,198.523,34.907,198.233
		C33.994,197.962,34.011,198.523,34.907,198.233z M8.983,188.077c0.398,0.541,0.797,1.082,1.312,1.782
		C10.457,188.711,9.884,188.248,8.983,188.077z M16.999,207.698c0.971,0.8,1.371,0.248,1.727-0.471
		C18.219,207.366,17.711,207.504,16.999,207.698z M11.644,199.597c-0.719,1-0.072,1.183,0.629,1.353
		C12.064,200.499,11.854,200.048,11.644,199.597z M33.695,192.697c0.133-0.168,0.266-0.336,0.399-0.504
		c-0.637-0.072-0.417-1.229-1.81-0.689C32.841,191.975,33.268,192.336,33.695,192.697C33.828,192.529,33.268,192.336,33.695,192.697
		z M18.52,202.125c0.136-0.106,0.272-0.213,0.408-0.319c-0.385-0.421-0.77-0.842-1.155-1.263c-0.098,0.081-0.195,0.162-0.293,0.243
		C17.827,201.232,18.173,201.679,18.52,202.125C18.656,202.019,18.173,201.679,18.52,202.125z M28.173,181.605
		c-0.003,0.791,0.21,1.333,1.308,0.989C28.897,182.152,28.535,181.879,28.173,181.605z M36.846,206.045
		c0.195,0.163,0.389,0.326,0.584,0.489c0.273-0.352,0.547-0.703,1.099-1.413C37.678,205.588,37.262,205.817,36.846,206.045
		C37.041,206.208,37.262,205.817,36.846,206.045z M27.045,170.164c-0.134,0.085-0.267,0.171-0.401,0.256
		c0.241,0.367,0.482,0.734,0.723,1.101c0.118-0.069,0.237-0.138,0.355-0.207C27.496,170.931,27.271,170.548,27.045,170.164
		C26.911,170.25,27.271,170.548,27.045,170.164z M30.959,175.953c-0.148-1.183-0.148-1.183-0.979-1.281
		C30.247,175.021,30.522,175.381,30.959,175.953z M43.346,192.919c-0.107,0.102-0.214,0.204-0.32,0.307
		c0.307,0.336,0.614,0.671,0.921,1.007c0.149-0.145,0.299-0.289,0.448-0.434C44.046,193.505,43.696,193.212,43.346,192.919
		C43.24,193.021,43.696,193.212,43.346,192.919z M17.049,197.572c-0.092,0.046-0.185,0.093-0.277,0.139
		c0.112,0.465,0.327,0.879,0.646,1.241c0.106-0.064,0.211-0.129,0.317-0.193C17.506,198.363,17.278,197.967,17.049,197.572
		C16.957,197.618,17.278,197.967,17.049,197.572z M7.01,179.487c-0.125-0.126-0.25-0.252-0.375-0.378
		c-0.321,0.323-0.643,0.646-0.964,0.969c0.125,0.126,0.251,0.253,0.376,0.379C6.368,180.133,6.689,179.81,7.01,179.487
		C6.885,179.361,6.689,179.81,7.01,179.487z M20.249,177.006c0.289,1.214,0.557,1.622,1.505,1.427
		C21.267,177.972,20.942,177.663,20.249,177.006z"/>
	<path style="fill:#FFFFFF;" d="M72.799,140.81l-1.191,1.057c-1.903-2.029-9.037-1.049-11.963-0.977
		c-6.415,0.158-13.403,0.427-19.55,0.485c-3.274,0.031-9.498,0.485-13.226-0.588c-1.093,0.013-2.191-0.032-3.303-0.109
		c-2.778-0.191-5.734-0.541-8.373,0.578c-0.969,0.411-1.892,0.179-2.565-0.345c-3.324,1.106-9.933,0.071-12.628-0.073v11.812
		c1.603-0.066,16.602,0.745,17.013-0.476c-0.995-0.046-1.145-0.798-1.403-1.817c1.317,0.696,1.074,1.681,2.52,2.324
		c0.241-0.856,0.451-1.601,0.68-2.413c0.839,1.14,5.816,4.227,6.915,1.199c0.925,1.21,1.997,1.425,4.308,0.912
		c0.022-0.215,0.042-0.418,0.073-0.727c7.364,3.361,19.314,0.829,27.243,0.731c2.188-0.027,8.112,1.298,10.044,0.06
		c-0.825-1.287,2.344-7.471,3.279-8.504c0.268,0.235,0.524,0.458,0.92,0.806C71.725,144.407,73.359,141.203,72.799,140.81z
		 M6.317,149.796l-0.412-0.091l0.389-1.527c0.107,0.023,0.214,0.046,0.321,0.069C6.516,148.764,6.417,149.28,6.317,149.796z
		 M9.076,142.334c0.325-0.778,0.708-1.02,1.149-0.724c0.003,0.035,0.001,0.05-0.003,0.053
		C10.235,142.247,9.53,142.819,9.076,142.334z M10.575,151.647c-0.333-0.133-0.666-0.266-1-0.398c0.176-0.604,0.56-0.59,1.153,0.042
		C10.677,151.409,10.626,151.528,10.575,151.647z M10.385,148.442c-0.189-1.278,0.287-1.811,1.428-1.6
		C11.268,147.452,10.943,147.817,10.385,148.442z M16.246,143.506c0.675-0.656,1.242-0.829,1.808,0.489
		C17.248,143.777,16.762,143.646,16.246,143.506z M18.666,149.303c-0.286-0.801-0.482-1.385,0.539-1.956
		C18.999,148.093,18.858,148.607,18.666,149.303z M21.1,143.847c0.377,0.405,0.754,0.81,1.257,1.35
		C21.263,145.352,21.155,144.647,21.1,143.847z M27.254,150.262c-0.569-0.755-0.823-1.093-1.421-1.887
		c0.88,0.031,1.337,0.047,1.794,0.063C27.534,148.888,27.442,149.338,27.254,150.262z M28.182,151.448
		c-1.474-1.448,0.394-1.487,1.554-1.62C29.556,150.009,28.241,151.332,28.182,151.448z M29.759,149.806
		c-0.191-0.21-0.383-0.423-0.663-0.732c1.244-1.099,2.052-0.949,2.427,0.449C30.955,149.721,30.367,149.816,29.759,149.806z
		 M33.699,145.716c0.046-0.034,0.037-0.114-0.142-0.243c-0.299,0.343-0.495,0.567-0.759,0.87c-0.171-0.365-0.325-0.692-0.5-1.065
		c1.29-0.958,2.169-0.678,2.639,0.838C34.561,146.582,34.148,146.445,33.699,145.716z M34.926,150.729
		c-0.244-0.37-0.488-0.74-0.733-1.11c0.097-0.068,0.193-0.136,0.29-0.203c0.255,0.36,0.51,0.72,0.765,1.08
		C35.141,150.573,35.034,150.651,34.926,150.729z M36.05,142.345h1.478C36.695,142.975,36.695,142.975,36.05,142.345z
		 M54.675,151.259c-0.191-0.85-0.175-0.877,0.897-1.724C55.954,150.361,55.514,150.795,54.675,151.259z M55.237,145.903h2.335
		C56.482,146.563,55.89,147.305,55.237,145.903z M59.175,145.872c-0.645-0.578-0.672-0.959-0.081-1.143
		c0.16,0.287,0.32,0.575,0.479,0.862C59.44,145.685,59.308,145.778,59.175,145.872z M64.739,146.868
		c-0.148-0.342-0.296-0.684-0.444-1.026l0.337-0.155C65.267,146.234,65.303,146.627,64.739,146.868z M65.684,147.956
		c0.324-0.33,0.647-0.66,0.971-0.99c0.154,0.153,0.309,0.307,0.463,0.46C66.55,148.253,66.072,148.43,65.684,147.956z
		 M66.916,141.443c0.862,0.228,1.344,0.356,1.845,0.488C67.972,142.705,67.972,142.705,66.916,141.443z"/>
	<path style="fill:#FFFFFF;" d="M175.289,340.223c1.994-2.681,3.061-9.23-0.39-10.911c2.866-1.275,3.306,0.666,3.306,2.915
		c1.552,0.6,2.829,0.652,4.035-0.461c0,0.78,0,1.414,0,2.01c-1.286,0-2.561,0-3.964,0c0,1.774,0,3.464,0,5.302
		c1.791,0.152,3.608,0.615,5.307-0.543c0.547,0.662-0.033,1.149-0.261,1.689C180.644,340.223,177.966,340.223,175.289,340.223
		C175.515,339.919,177.966,340.223,175.289,340.223z"/>
	<path style="fill:#FFFFFF;" d="M204.583,340.223c-0.092-0.216-0.183-0.433-0.357-0.842c2.722,0.326,1.596-6.85,0.983-8.657
		c-0.362,0.327-0.622,0.563-0.937,0.849c-0.259-1.212,2.21-2.79,2.952-3.466c-0.411,5.225,0.095,7.3,1.139,12.117
		C207.103,340.223,205.843,340.223,204.583,340.223C204.491,340.007,205.843,340.223,204.583,340.223z"/>
	<path style="fill:#FFFFFF;" d="M231.995,328.872c0.691-0.328,1.366-0.786,2.156-0.246c-1.949,3.231-5.78,8.65-2.165,11.597
		c-1.102,0-2.205,0-3.307,0C228.265,335.781,232.32,332.834,231.995,328.872z"/>
	<path style="fill:#FFFFFF;" d="M195.162,336.895c2.267,3.695,2.413,3.328-1.919,3.328
		C193.503,339.037,194.345,337.794,195.162,336.895z"/>
	<path style="fill:#FFFFFF;" d="M220.648,339.279c2.324-1.574,1.838,1.095,3.764-1.506c0.19,0.956,0.339,1.703,0.487,2.45
		C223.27,340.223,221.416,340.815,220.648,339.279C221.529,338.682,220.805,339.594,220.648,339.279z"/>
	<path style="fill:#FFFFFF;" d="M188.517,339.276c0,0.316,0.001,0.631,0.001,0.947c-2.519,0-4.556-0.221-4.006-3.269
		C186.169,337.813,186.043,339.628,188.517,339.276z"/>
	<path style="fill:#FFFFFF;" d="M214.059,339.3c-0.009,0.308-0.018,0.615-0.027,0.923c-1.594,0.4-2.983,0.045-4.167-1.062
		C211.124,339.033,212.768,339.372,214.059,339.3z"/>
	<path style="fill:#FFFFFF;" d="M198.913,340.223c0.021-0.683,0.438-1.842,1.298-0.778
		C199.924,340.072,199.491,340.331,198.913,340.223C198.918,340.066,199.07,340.223,198.913,340.223z"/>
	<path style="fill:#FFFFFF;" d="M219.712,338.753c-0.003,0.49-0.007,0.98-0.01,1.47c-0.157,0-0.315,0-0.472,0
		C218.696,339.088,218.696,339.088,219.712,338.753C219.709,339.243,218.696,339.088,219.712,338.753z"/>
	<path style="fill:#FFFFFF;" d="M209.331,210.274c-6.615,0-9.745,1.366-12.602-4.984c-2.287-5.084-4.203-10.392-6.301-15.558
		c0,7.138,0,13.724,0,20.467c-3.175,0-6.196,0-9.419,0c-0.867-14.425-0.103-29.083-0.103-43.746c2.06-0.265,4.73-0.428,6.783-0.077
		c4.018,0.688,2.855-0.11,5.121,3.682c1.407,2.355,4.632,8.588,3.754,11.286c-0.44-0.305-0.755-0.524-1.11-0.77
		c-0.552,1.233,0.054,2.242,1.818,3.025c0.141-0.322,0.27-0.618,0.508-1.162c0.336,1.555,0.795,2.178,1.98,3.45
		c0.027-0.439,0.085-1.386,0.171-2.782c0.874,1.456,1.975,1.413,3.075,1.376c-0.066-0.719-0.132-1.438-0.216-2.348
		c-0.945,0.889-1.795-0.194-2.882,0.172c-0.094-3.647-1.697-12.763,0.213-15.911c3.011-0.057,6.018-0.084,9.029-0.084
		c0.251,6.131,0.185,12.108,0.164,18.414c-0.446-0.497-0.696-0.776-1.004-1.12c-5.448,3.857-0.918,0.432,0.987,3.916
		C207.004,192.632,209.331,204.135,209.331,210.274C205.792,210.274,209.331,209.318,209.331,210.274z M187.673,176.619
		c-0.148,0.838-0.245,1.39-0.343,1.941c0.681,0.083,1.362,0.166,2.348,0.286C188.902,177.983,188.401,177.427,187.673,176.619
		C187.525,177.456,188.401,177.427,187.673,176.619z M193.476,182.278c0.402-0.738,1.148-1.377-0.063-2.097
		C193.287,180.863,192.267,181.381,193.476,182.278z M208.63,193.518c-0.407-0.546-0.813-1.092-1.456-1.955
		C207.018,193.033,207.779,193.31,208.63,193.518z M204.944,185.02c0.107-0.554-0.205-0.917-0.935-1.09
		C203.593,184.455,204.371,185.208,204.944,185.02C204.953,184.839,204.724,185.092,204.944,185.02z"/>
	<path style="fill:#FFFFFF;" d="M118.374,210.24c-1.382-14.246-0.84-29.556-0.222-43.851c6.706-0.31,17.598-2.051,23.475,1.832
		c7.016,4.636,4.538,15.047,4.63,22.088c0.08,6.141,1.37,14.422-4.757,18.229C135.759,212.106,124.848,210.684,118.374,210.24
		C117.881,205.152,118.674,210.261,118.374,210.24z M127.695,200.783c9.873,0,9.354-2.157,9.326-11.417
		c-0.008-2.756,1.05-9.083-0.388-11.488c-1.893-3.166-5.758-2.004-9.117-2.004C127.838,184.168,127.336,192.323,127.695,200.783
		C130.032,200.783,127.336,192.323,127.695,200.783z"/>
	<path style="fill:#FFFFFF;" d="M114.812,181.119c0,9.701,3.328,26.685-9.639,29.066c-12.191,2.239-18.419-3.444-18.576-14.974
		c-0.115-8.484-3.45-23.437,6.392-27.767C104.877,162.214,114.538,169.086,114.812,181.119
		C114.812,187.611,114.773,179.414,114.812,181.119z M95.949,186.901c0,4.446-2.53,16.814,6.235,13.881
		c5.237-1.753,3.166-9.128,3.169-13.891c0.003-4.926,1.752-10.814-4.488-11.128C94.128,175.422,95.952,182.092,95.949,186.901
		C95.949,190.481,95.951,184.307,95.949,186.901z"/>
	<path style="fill:#FFFFFF;" d="M239.556,198.47c4.131,10.26-11.413,12.776-17.686,11.621c-11.29-2.08-9.787-13.286-9.787-22.376
		c0.396,0.798,0.827,1.009,1.292,0.633c-0.393-0.746-0.786-1.492-1.213-2.301c0.286-0.056,0.539-0.106,0.977-0.192
		c-3.425-3.694-0.764-13.956,2.685-16.925c4.303-3.704,13.829-3.88,18.654-1.411c6.138,3.141,5.982,9.644,5.952,15.596
		c-0.013,2.62,0.753,7.446-0.274,9.833c-0.744,1.729-2.375,0.34-2.143,2.186c0.683-0.896,1.457-1.127,2.319-0.693
		c1.063,1.15-1.393,1.947,0.214,3.637c-0.824,0.708-1.423,0.526-1.798-0.548c-0.261,0.446-0.434,0.743-0.699,1.196
		C238.708,198.615,239.132,198.542,239.556,198.47C240.889,201.779,239.132,198.542,239.556,198.47z M223.006,175.804
		c-0.451-1.274-0.451-1.274-1.186-0.697c0.398,0.23,0.795,0.46,1.193,0.691c-2.714,4.439-3.339,23.224,1.55,24.99
		c7.811,2.822,6.639-6.688,6.592-10.983C231.075,182.575,233.159,174.02,223.006,175.804
		C222.555,174.53,224.866,175.478,223.006,175.804z M220.338,191.871c0.764-1.476-0.548-1.613-1.496-1.462
		C219.493,191.045,219.881,191.424,220.338,191.871C220.893,190.8,219.881,191.424,220.338,191.871z M215.209,178.368
		c-1.511-0.008-1.511-0.008-1.314,1.056C214.283,179.113,214.621,178.841,215.209,178.368z"/>
	<path style="fill:#FFFFFF;" d="M397.684,180.49c-3.15,0-6.115,0-9.214,0c-1.59-6.665-12.052-5.542-9.762,0.775
		c1.421,3.92,8.169,1.877,11.389,2.92c4.62,1.496,6.892,5.073,7.593,9.753c1.049,7-1.252,13.891-8.459,15.843
		c-8.995,2.436-22.779-1.448-19.54-13.563c2.99,0,6.001,0,9.162,0c0.629,9.067,13.583,3.242,8.777-2.077
		c-2.161-2.392-9.367-0.776-12.584-2.507c-4.322-2.326-5.589-6.922-5.737-11.549C368.689,160.744,400.805,162.015,397.684,180.49
		C394.534,180.49,398.179,177.562,397.684,180.49z"/>
	<path style="fill:#FFFFFF;" d="M168.193,171.087c-2.984-6.577,6.996-4.797,10.741-4.797c-1.543,7.252-9.953,14.754-10.223,21.974
		c-0.099,2.633,3.406,7.424,4.606,9.883c1.976,4.051,3.972,8.071,5.828,12.191c-6.838,0-9.706,1.571-12.775-4.695
		c-1.122-2.291-4.372-13.051-7.589-12.188c0,5.546,0,11.087,0,16.765c-3.21,0-6.168,0-9.361,0
		c-1.98-14.171,0.739-29.319-0.189-43.628c1.737-0.753,6.2,0.053,7.574,1.259c3.515,3.086,1.989,10.654,1.989,15.247
		c3.98,0.463,6.892-14.127,9.417-12.03c-0.017,0.567,0.217,0.957,0.701,1.169C169.319,171.374,170.163,168.859,168.193,171.087
		C167.913,170.469,168.387,170.868,168.193,171.087z M170.732,172.187c0.525,0.485,1.028-0.45,0.963-0.895
		C171.181,171.389,170.86,171.687,170.732,172.187C170.79,172.24,170.833,171.991,170.732,172.187z"/>
	<path style="fill:#FFFFFF;" d="M307.102,189.509c-1.66-6.704-1.164-16.32-0.357-23.187c2.152,0,7.749,0.521,7.194,3.225
		c0.946,0.162,1.889,0.323,3.298,0.564c-0.757-1.087-1.292-1.855-1.83-2.628c-0.895,0.646-1.915,0.299-1.911-1.083
		c7.063,0,14.117,0,21.338,0c0,3.05,0,6.074,0,9.237c-5.56,1.344-12.791,0.211-18.476,0.211c-0.692,2.413-0.257,5.446-0.291,7.94
		c5.271-0.394,10.395-0.341,15.505,0.275c0,2.903,0,5.688,0,8.628c-5.53-0.187-10.674,0.362-16.257-0.259
		c1.394,1.142,0.738,6.852,0.738,8.41c1.908,1.677,3.159-1.069,4.649,0.284c0.154,0.623-1.182,1.033-0.213,1.741
		c0.373-0.176,0.764-0.359,1.197-0.563c-0.101-0.311-0.217-0.668-0.407-1.252c4.171,0.845,7.093-0.858,10.664,1.414
		c-0.089-0.714-0.132-1.058-0.191-1.537c1.026,0,2.005,0,3.184,0c0.037,2.586,1.364,6.259-2.109,6.427
		c1.578,0.272,2.283,1.201,2.116,2.786c-4.669,0.47-9.509,0.27-14.196,0.124c-1.82-0.057-8.858,0.262-9.61-0.717
		c-0.198,0.229-0.394,0.457-0.666,0.771c-0.349-0.31-0.674-0.6-1.094-0.974c0.02,1.375-0.848,1.666-2.603,0.873
		c-0.227-2.814,0.201-5.625,0.199-8.339c-0.002-2.271-0.751-5.361,0.139-7.655c0.269,0.557,0.537,1.113,0.846,1.752
		c1.486-1.327,1.012-2.358,3.361-3.494C309.9,191.347,308.54,190.647,307.102,189.509
		C306.936,188.839,307.403,189.747,307.102,189.509z M310.9,182.878c0,0.877,0.326,1.362,1.786,1.151
		c-1.314-0.325-2.075-1.108-2.283-2.35c-2.171,0.624-2.171,0.624-2.027,1.985C309.066,183.721,309.84,183.48,310.9,182.878
		C310.899,183.755,309.84,183.48,310.9,182.878z M320.143,171.708c-1.076-0.644-1.076-0.644-2.586-0.304
		c0.036,0.472,0.074,0.963,0.141,1.83c0.483-0.512,0.721-0.764,0.96-1.017c0.306,0.353,0.615,0.709,0.985,1.137
		C319.846,172.689,319.995,172.195,320.143,171.708C319.067,171.065,319.995,172.195,320.143,171.708z M330.422,171.697
		c-0.153,0.696-1.115,1.298-0.105,1.966c0.741,0.49,1.046-0.127,1.282-0.713C331.215,172.541,330.86,172.163,330.422,171.697
		C330.269,172.393,330.86,172.163,330.422,171.697z M312.12,196.111c0.939,1.559,1.984,1.026,3.107,1.265
		C314.4,195.878,313.273,196.762,312.12,196.111z M320.192,205.652c-0.513-0.641-1.121-0.483-1.823,0.474
		c0.243,0.33,0.445,0.603,0.736,0.998C319.632,206.409,319.912,206.03,320.192,205.652
		C320.076,205.55,319.912,206.03,320.192,205.652z M324.473,190.011c-0.522,0.315-0.897,0.541-1.684,1.015c1.051,0,1.626,0,2.341,0
		C324.911,190.688,324.753,190.443,324.473,190.011C323.951,190.326,324.753,190.443,324.473,190.011z M326.877,190.139
		c0.988,0.915,1.4,0.307,1.759-0.503C328.132,189.78,327.628,189.924,326.877,190.139z M310.45,174.356
		c-0.725,0.138-1.544,0.35-0.813,1.435C309.968,175.207,310.209,174.782,310.45,174.356z M325.163,171.871
		c-1.036,0.043-1.036,0.043-1.299,0.923C324.385,172.618,324.818,172.31,325.163,171.871
		C324.127,171.914,324.835,172.174,325.163,171.871z M310.709,201.423c-0.384-0.83-0.522-1.129-0.661-1.428
		c-0.309,0.157-0.619,0.314-1.116,0.566C309.483,200.829,309.82,200.992,310.709,201.423
		C310.325,200.594,309.82,200.992,310.709,201.423z M331.746,169.123c-0.186-0.089-0.372-0.177-0.559-0.266
		c-0.155,0.484-0.31,0.967-0.465,1.451c0.145,0.055,0.29,0.11,0.435,0.165C331.353,170.023,331.549,169.573,331.746,169.123
		C331.559,169.035,331.549,169.573,331.746,169.123z M325.777,201.869c-0.196,0.605-1.019,1.071-0.021,1.626
		C325.954,203.011,326.748,202.658,325.777,201.869z M311.319,208.414c0.099-0.077,0.198-0.154,0.298-0.231
		c-0.298-0.339-0.595-0.679-0.893-1.018c-0.09,0.074-0.18,0.147-0.27,0.221C310.742,207.728,311.03,208.071,311.319,208.414
		C311.418,208.337,311.03,208.071,311.319,208.414z M313.365,205.107c0.271,0.523,0.454,0.876,0.778,1.502
		C314.604,205.571,314.278,205.293,313.365,205.107z M309.876,197.036c0.621-0.292,0.973-0.458,1.509-0.71
		C310.438,195.606,310.201,196.039,309.876,197.036z"/>
	<path style="fill:#FFFFFF;" d="M309.945,223.545c-0.792-0.014-1.618,0.034-1.832-1.029c1.306-1.582,6.054-1.704,6.99,0.295
		c0.431-2.713,6.751-1.129,7.473-0.014c0.079-0.495,0.15-0.941,0.214-1.346c1.264-0.304,0.783,1.074,1.534,1.376
		c1.125-2.312,5.892-1.037,7.366-1.039c4.068-0.007,8.939-0.276,12.88-0.266c4.421,0.011,7.784-0.53,11.811,1.228
		c2.708,1.182,4.089,3.613,6.85,1.394c-1.532-0.51-1.532-0.51-3.194-2.731c4.147-0.86,10.32-0.113,14.575,0
		c8.278,0.22,16.812-0.676,24.951-0.063c0.933,3.66,0.091,8.34-0.006,12.078c-4.03,0-8.106,0.176-12.131-0.009
		c-1.198-0.055-6.662-1.3-6.954-1.068c-0.571-0.553-1.118-1.081-1.662-1.607c-0.269,0.256-0.469,0.446-0.712,0.678
		c-1.086-1.335-2.083-0.894-3.875-1.01c0.099-0.4,0.17-0.689,0.244-0.987c-0.336-0.149-0.674-0.3-1.074-0.477
		c0.494-0.731,1.782-1.055,1.065-2.396c-0.355,0.246-0.697,0.484-1.351,0.938c-0.132-0.299-0.292-0.659-0.493-1.114
		c-0.224,0.548-0.362,0.885-0.56,1.367c-1.795-2.191-3.128-1.517-5.744-1.249c-0.059,0.331,1.56,4.236,1.745,4.435
		c1.066,1.148,3.921,0.117,4.552,2.324c-2.702,0-9.316,1.283-10.613-1.224c-0.496,0.52-0.947,0.992-1.48,1.551
		c-0.608-0.525-1.118-0.965-1.736-1.498c0,0.492,0,0.843,0,1.345c-3.545-0.353-17.928-1.84-19.446,0.076
		c-0.44-0.468-0.841-0.895-1.293-1.375c-0.487,0.442-0.946,0.858-1.379,1.25c-1.183-0.014-0.976-0.724-0.73-1.652
		c-0.731,0.258-1.341,0.474-2.168,0.766c0.059-0.592,0.106-1.061,0.144-1.45c-1.533-0.392-3.057-0.782-4.608-1.179
		c0.104-0.334,0.173-0.556,0.243-0.782c-3.512-1.696-7.217-1.637-10.67-2.963c-0.999-0.384-5.099-2.994-7.046-2.134
		c0.38,0.343,0.191-0.101-0.568-1.331C310.698,223.035,310.322,223.29,309.945,223.545
		C309.154,223.531,310.322,223.29,309.945,223.545z M324.366,224.755c0.085-0.096,0.169-0.192,0.254-0.288
		c-0.385-0.44-0.77-0.88-1.142-1.304c-0.96,0.55-1.375,1.143-0.495,2.029c0.134-0.343,0.264-0.675,0.401-1.023
		C323.731,224.376,324.048,224.566,324.366,224.755C324.451,224.659,324.048,224.566,324.366,224.755z M364.433,227.8
		c-0.595,0.03-1.19,0.059-1.938,0.096C363.28,229.107,363.871,228.404,364.433,227.8z M363.097,225.312
		c0.65,0.362,1.052,0.585,1.744,0.97C364.452,225.333,364.165,224.897,363.097,225.312z M393.994,231.107
		c-0.077,0.095-0.155,0.19-0.232,0.285c0.333,0.288,0.666,0.577,0.999,0.866c0.083-0.098,0.167-0.195,0.25-0.292
		C394.672,231.678,394.333,231.393,393.994,231.107C393.917,231.202,394.333,231.393,393.994,231.107z"/>
	<path style="fill:#FFFFFF;" d="M57.616,176.281c0.394,0.236,0.789,0.472,1.237,0.74c0-0.374,0-0.719,0-1.068
		c0.76,0.094,1.552,0.191,2.354,0.29c0.155-1.911-1.393-0.77-2.048-1.471c2.049-3.057,2.371-6.455,4.794-7.844
		c2.543-1.458,8.172-0.971,10.837-0.328c4.887,1.179,13.459,10.893,7.664,15.624c3.581,1.021,1.015,20.751-1.104,23.72
		c-2.196,3.077-9.405,5.988-12.847,3.867c0.372,0.545,0.702-0.001,0.99-1.637c-7.15,3.493-12.879-0.661-14.096-8.543
		c-0.666-4.313-0.073-9.779,0.14-13.692c0.04-0.732-0.239-5.874,0.076-6.3c0.402,0.095,0.831,0.195,1.537,0.362
		c-0.165-1.332-0.313-2.528-0.461-3.724C56.998,176.278,57.307,176.279,57.616,176.281C58.01,176.517,57.307,176.279,57.616,176.281
		z M74.649,172.961c0.272-0.565,0.544-1.131,0.872-1.812c-0.716,0.097-1.196,0.162-1.768,0.24c1.646,4.228-3.983,3.104-6.412,4.46
		c-6.095,3.403,0.299,12.715-4.835,17.103c1.371,1.334,1.204,1.112,2.251,3.349c0.879,1.878,0.223,3.052,1.578,5.184
		c2.024-1.14,5.239,0.302,6.907-1.485c2.194-2.352,0.879-8.101,0.9-11.105c0.026-3.703-1.096-8.712-0.782-12.112
		C73.512,175.129,74.557,174.445,74.649,172.961C74.921,172.396,74.591,173.904,74.649,172.961z M79.203,187.086
		c1.247-1.511-1.856-1.622-2.927-1.195C77.121,186.236,78.012,186.6,79.203,187.086C79.371,186.882,78.012,186.6,79.203,187.086z
		 M64.074,172.259c0.498-1.626,0.498-1.626-0.063-2.368c-0.288,0.422-0.177,1.228-1.048,1.089
		C62.63,172.027,63.542,171.965,64.074,172.259C64.572,170.633,63.542,171.965,64.074,172.259z M80.728,182.182
		c0.107-0.015,0.214-0.03,0.32-0.046c0-0.232,0.45-1.601,0.164-1.746C80.059,179.806,80.851,182.651,80.728,182.182
		C80.835,182.166,80.618,181.762,80.728,182.182z M62.081,175.17c0.356-0.195,0.712-0.389,1.068-0.584
		c-0.138-0.938-0.915-1.119-2.33-0.544C61.436,174.593,61.767,174.889,62.081,175.17C62.5,174.94,61.767,174.889,62.081,175.17z
		 M81.318,174.318c-1.043,0.309-1.396,0.611-1.161,1.764C80.605,175.4,80.852,175.024,81.318,174.318z M65.148,205.235
		c-0.12,0.046-0.24,0.092-0.36,0.138c0.124,0.336,0.248,0.672,0.371,1.008C65.761,206.228,65.757,205.846,65.148,205.235
		C65.028,205.282,65.28,205.553,65.148,205.235z M72.3,170.638c-0.115-0.121-0.231-0.241-0.346-0.362
		c-0.296,0.337-0.593,0.675-0.889,1.012c0.096,0.085,0.192,0.17,0.288,0.255C71.668,171.241,71.984,170.939,72.3,170.638
		C72.184,170.517,71.984,170.939,72.3,170.638z M76.521,178.601c0.106-0.078,0.211-0.157,0.317-0.235
		c-0.249-0.36-0.497-0.719-0.746-1.079c-0.104,0.072-0.208,0.143-0.312,0.215C76.027,177.868,76.274,178.234,76.521,178.601
		C76.627,178.522,76.274,178.234,76.521,178.601z"/>
	<path style="fill:#FFFFFF;" d="M292.468,173.452c-0.386,0.253-0.772,0.505-1.291,0.845c-1.891-8.853,8.755-7.889,13.866-7.889
		c-3.836,1.468-2.466,12.871-7.513,8.968c-0.038,1.236,0.556,2.16,1.784,2.773c-0.795,0.245-1.326,0.408-2.114,0.651
		c0.555,0.221,0.859,0.342,1.336,0.532c-0.156,0.955-0.694,1.257-1.614,0.906c0.345,0.92,0.266,1.805-0.238,2.653
		c-0.321-0.217-0.683-0.462-1.209-0.817c-0.104,0.872-0.197,1.659-0.315,2.645c-0.428-0.141-0.856-0.281-1.284-0.422
		c-0.158-1.069-0.749-2.113-1.764-2.718c-0.14,0.893-0.263,1.682-0.385,2.465c-0.248-0.041-0.538-0.089-0.907-0.149
		c-0.06,0.82-0.119,1.615-0.192,2.617c2.485-0.387,2.761,1.111,4.258,3.049c-0.312,0.505-0.735,0.409-1.267-0.288
		c-0.136,0.985,4.078,6.508,4.69,7.828c1.198,2.586,2.576,5.457,4.187,8.059c-0.386,0.094-0.629,0.153-0.872,0.212
		c0.423,1.45,1.229,1.005,1.633,2.699c-0.271,0.083-0.54,0.166-1.011,0.311c0.865,0.743,2.219,0.142,2.49,1.658
		c-1.326-0.346-2.58,0.196-3.768,0.223c-5.392,0.124-6.209-0.139-8.492-4.489c-2.261-4.308-4.092-9.143-6.801-13.18
		c-2.83,1.655-1.199,10.566-1.332,13.362c-0.638-0.03-1.137-0.053-1.634-0.075c0.378-0.907,1.681,3.487,1.729,4.431
		c-1.808,0-7.731,0.898-9.006-0.471c-0.888-0.954-0.371-8.353-0.452-10.453c-0.415-10.85-0.007-21.815-0.007-32.683
		c2.302-1.306,6.842-0.333,9.313-0.281c0.585,2.071,0.933,8.445,0.146,10.502c-0.561,1.468-4.521,2.869-3.186,4.937
		c0.273-0.545,1.861-2.137,2.324-2.83c0.377,1.017,1.144,2.937,0.572,3.881c-0.546,0.902-1.296-0.225-1.888,0.202
		c0.211,0.334,0.412,0.651,0.609,0.962c-0.2,0.177-0.371,0.329-0.603,0.535c0.53,0.141,1.017,0.271,1.679,0.448
		c-0.104-0.409-0.172-0.68-0.288-1.138c0.994,0.159,2.046-0.322,3.113,1.043c-0.191-0.885-0.291-1.348-0.443-2.051
		c0.526,0.296,0.865,0.487,1.59,0.896c-1.274-2.202,2.902-10.133,5.814-9.179c0.318-1.008,3.748-1.045,2.988-3.094
		c0.255,0.236,0.511,0.473,0.944,0.873c0.108-0.783-0.157-1.376-0.795-1.778C296.558,172.622,292.892,171.569,292.468,173.452
		C292.082,173.705,292.517,173.232,292.468,173.452z M291.996,193.277c-0.194-0.268-0.387-0.536-0.58-0.805
		c-0.127,0.311-0.255,0.623-0.433,1.059c2.141-0.517,0.148,1.709,2.383,0.931C292.846,194.014,292.421,193.645,291.996,193.277
		C291.803,193.009,292.421,193.645,291.996,193.277z M281.134,188.548c0.096,0.714,0.193,1.429,0.297,2.207
		c0.494-0.491,0.348-3.641-0.173-3.895C281.35,187.464,280.082,187.877,281.134,188.548
		C281.23,189.262,280.082,187.877,281.134,188.548z M298.146,169.668c-0.975,1.115,0.267,1.487,0.598,2.247
		c0.753-0.813,1.389-1.501,2.063-2.228c-0.514-0.409-2.566,0.27-2.682-0.036c1.894-0.918-1.515-0.725-1.223-0.785
		C297.43,169.207,297.788,169.438,298.146,169.668C297.17,170.783,297.788,169.438,298.146,169.668z M295.831,208.036
		c1.043-0.892,1.078-1.626,0.104-2.203c-0.336,1.436-1.032-0.563-1.584,0.234C294.821,206.691,295.266,207.283,295.831,208.036
		C296.151,207.431,295.266,207.283,295.831,208.036z M277.461,182.891c0.636,1.123,1.395,1.101,2.277-0.065
		c-0.356-0.404-0.698-0.792-1.173-1.33C278.203,181.953,277.896,182.341,277.461,182.891
		C277.733,183.15,277.896,182.341,277.461,182.891z M284.072,186.585c-0.723,0.436-0.93,0.973-0.623,1.613
		c0.12,0.164,1.686-0.468,1.786-0.577C284.958,187.374,284.676,187.124,284.072,186.585
		C283.75,187.014,284.676,187.124,284.072,186.585z M278.647,191.176c-0.095-0.155-0.19-0.31-0.286-0.465
		c-0.71,0.012-1.372,0.122-1.724,0.978c0.344,0.162,0.613,0.289,0.882,0.415c-0.141-0.138-0.282-0.276-0.423-0.415
		C277.613,191.519,278.13,191.347,278.647,191.176C278.552,191.021,278.13,191.347,278.647,191.176z M276.6,196.588
		c0.236-0.495,0.401-0.84,0.615-1.288c-0.563,0-1.048,0-2.084,0C275.834,195.917,276.175,196.215,276.6,196.588
		C276.836,196.093,276.175,196.215,276.6,196.588z M277.239,202.387c-0.111,0.048-0.221,0.097-0.332,0.145
		c0.037,1.284,0.454,1.741,1.252,1.371C277.841,203.378,277.54,202.883,277.239,202.387
		C277.129,202.436,277.54,202.883,277.239,202.387z M282.14,201.587c0.823,0.343,0.823,0.343,1.176-0.61
		C282.869,201.209,282.504,201.398,282.14,201.587z M298.604,207.746c0.164-0.064,0.329-0.129,0.493-0.193
		C298.546,206.284,298.185,206.469,298.604,207.746C298.768,207.682,298.499,207.428,298.604,207.746z M290.801,187.555
		c0.132,1.13,0.132,1.13,0.964,1.215C291.491,188.425,291.207,188.067,290.801,187.555z M298.194,202.223
		c-0.302-0.277-0.513-0.471-0.724-0.664C297.146,202.359,297.427,202.721,298.194,202.223
		C297.891,201.945,297.924,202.398,298.194,202.223z M294.332,180.581c-0.3-0.634-0.464-0.981-0.681-1.44
		C292.793,180.037,293.276,180.258,294.332,180.581z"/>
	<path style="fill:#FFFFFF;" d="M340.194,187.623c0.005-3.934-1.326-4.115-2.223-7.011c-0.933-3.013,1.375-9.152,0.521-10.719
		c2.024-0.868,1.7-1.462,0.862-3.441c5.895-0.443,15.758-1.784,21.269,1.356c8.825,5.029,3.974,13.957,4.006,21.441
		c0.02,4.771,4.893,17.261,1.045,20.984c-0.181,0.175-6.873,0.322-7.352,0.076c-3.224-1.653-1.655-10.312-1.611-14.202
		c1.781,0.688,2.459,0.233,1.973,2.516c3.405-1.696,0.704-2.482-0.876-3.858c-0.417,0.525-0.75,0.944-1.082,1.362
		c-0.77-0.677-3.976-3.753-3.779-4.716c0.263,0.076,0.525,0.153,0.855,0.248c0.47-1.432-0.095-2.09-1.698-1.972
		c-0.049,0.322-0.081,0.538-0.114,0.753c-2.645-1.967-5.849-0.052-6.616-3.25c-0.367,0.028-0.78,0.06-1.196,0.091
		c0.123,0.538,0.21,0.915,0.296,1.293C343.096,188.262,341.513,187.902,340.194,187.623z M352.704,185.307
		c3.737-0.261,5.883-4.957,3.549-8.264c-1.901-2.693-5.899-1.182-8.877-1.147c0,3.212,0,6.163,0,9.172
		c1.872,0.242,4.265,1.956,4.875,1.933C352.378,186.525,352.513,186.02,352.704,185.307
		C353.207,185.272,352.513,186.02,352.704,185.307z M343.636,179.915c-0.549-0.543-0.877-0.868-1.202-1.189
		c-0.516,0.576-0.818,0.913-1.414,1.579C342.042,180.152,342.646,180.062,343.636,179.915
		C343.088,179.372,342.646,180.062,343.636,179.915z M361.46,197.512c-0.122,0.114-0.243,0.227-0.365,0.341
		c0.343,0.309,0.685,0.618,1.028,0.927c0.085-0.09,0.169-0.18,0.254-0.27C362.072,198.177,361.766,197.845,361.46,197.512
		C361.339,197.626,361.766,197.845,361.46,197.512z M363.025,204.668c-0.712,0.304-1.071,0.457-1.553,0.663
		C362.364,206.182,362.557,205.593,363.025,204.668z M362.551,188.173c0.16-0.437-0.225-1.67-0.347-1.293
		C362.32,187.311,362.436,187.742,362.551,188.173C362.715,187.726,362.372,187.569,362.551,188.173z"/>
	<path style="fill:#FFFFFF;" d="M194.18,314.243c-1.507,0.688-6.649,6.829-6.33,0.335c0.109-2.22,5.171-5.654,6.794-7.054
		c0.382,0.492,0.696,0.897,1.051,1.354c0.762-3.688,2.722-5.245,5.582-8.103c-3.808-3.699-7.548-7.332-11.405-11.079
		c-1.925,1.853-2.867,4.368-4.256,6.538c-3.727-1.529-6.103-3.887-7.827-7.716c4.121-3.424,8.25-6.854,12.54-10.418
		c4.962,3.671,3.675,6.441,6.942,10.924c2.588,3.551,4.662,5.627,8.085,8.562c1.669-1.421,5.137-6.059,7.772-5.309
		c-1.181-2.54,2.123-3.013,3.282-5.038c2.204-3.852,0.141-4.156-3.023-7.197c1.137-1.155,2.098-2.132,3.263-3.316
		c2.271,3.124,6.103,5.363,7.806,8.598c1.191,2.264,1.942,9.914-0.693,11.747c-3.264-1.562,0.821-4.913-2.104-7.767
		c-5.628,3.774-11.51,9.112-12.833,11.716c1.563,1.124,2.982,2.441,3.405,4.552c0.301-0.243,0.506-0.407,0.849-0.684
		c2.45,2.914,4.887,5.772,7.098,8.876c-0.601,0.166-1.697-0.966-1.77,0.739c0.939,0.44,5.837-0.611,3.974,2.694
		c-2.096,3.72-4.985-0.808-6.123-2.361c-0.247,0.262-0.437,0.464-0.745,0.789c-1.209-2.372-6.905-11.016-9.544-11.064
		c-3.866-0.07-7.685,8.657-11.775,9.665c-0.207-0.561-0.413-1.123-0.685-1.862C193.1,313.402,193.467,313.898,194.18,314.243
		C192.721,314.909,193.467,313.898,194.18,314.243z M215.843,309.123c-1.611-0.563-2.348,0.18-2.211,2.229
		C214.596,310.38,215.158,309.814,215.843,309.123C215.28,309.086,215.158,309.814,215.843,309.123z M186.532,291.587
		c0.12-0.069,0.24-0.139,0.361-0.208c-0.228-0.401-0.457-0.803-0.685-1.204c-0.123,0.071-0.246,0.142-0.37,0.213
		C186.069,290.788,186.3,291.187,186.532,291.587C186.652,291.518,186.3,291.187,186.532,291.587z M190.256,312.983
		c-0.101,0.14-0.202,0.28-0.304,0.42c0.376,0.225,0.751,0.451,1.127,0.676c0.071-0.103,0.141-0.206,0.212-0.309
		C190.947,313.508,190.601,313.245,190.256,312.983C190.155,313.123,190.601,313.245,190.256,312.983z"/>
	<path style="fill:#FFFFFF;" d="M244.75,195.164c-3.048-2.914-1.856-21.896,1.891-25.041c-0.028,0.892,0.56,1.042,1.384,0.88
		c-0.467-0.289-0.933-0.577-1.4-0.866c2.221-3.156,9.309-5.45,12.181-2.159c-0.194-0.481-0.387-0.962-0.643-1.598
		c9.654,0.416,14.664,5.388,13.916,15.311c-2.67,0.127-7.346,1.589-7.551-2.014c-0.57,0.344-0.988,0.597-1.669,1.009
		c-0.389-5.082-1.653-5.927-5.566-4.856c-6.005,1.643-2.431,4.416-4.461,8.678c-0.38-0.655-0.625-1.076-0.92-1.585
		c-0.395,0.293-0.775,0.575-1.141,0.847c-0.761-0.662,0.923-1.676-0.543-2.025c-1.837,1.902,0.053,3.608-1.23,5.393
		C246.631,187.035,245.236,193.375,244.75,195.164z M266.794,176.528c-0.8,0.064-1.623,0.13-2.593,0.207
		c0.405,0.877,0.568,1.617,1.703,1.958C264.854,177.139,267.153,177.708,266.794,176.528
		C265.993,176.592,267.153,177.708,266.794,176.528z M254.398,169.697c-0.206,0.815-0.37,1.462-0.533,2.108
		C254.666,171.301,255.563,170.818,254.398,169.697z M270.187,174.785c-0.917-0.152-1.218,0.555-0.902,2.122
		C270.668,176.411,270.969,175.703,270.187,174.785C270.079,174.778,270.317,175.061,270.187,174.785z M266.565,170.897
		c0.01,0.546,0.353,0.861,1.028,0.947C267.869,171.286,267.117,170.791,266.565,170.897
		C266.605,171.123,266.767,170.858,266.565,170.897z M261.272,171.471c0.086,0.101,0.172,0.202,0.257,0.304
		c0.332-0.289,0.665-0.577,0.997-0.866c-0.078-0.093-0.156-0.187-0.234-0.28C261.952,170.909,261.612,171.19,261.272,171.471
		C261.357,171.572,261.612,171.19,261.272,171.471z M263.827,169.048c0.108-0.124,0.215-0.248,0.323-0.372
		c-0.34-0.293-0.679-0.585-1.019-0.878c-0.078,0.081-0.157,0.162-0.235,0.243C263.206,168.377,263.517,168.712,263.827,169.048
		C263.935,168.924,263.517,168.712,263.827,169.048z M247.217,181.93c-0.443,0.059-0.886,0.118-1.458,0.195
		C246.475,183.126,246.882,182.433,247.217,181.93z M247.287,180.762c0.109-0.582,0.428-1.268-0.671-1.339
		C246.865,179.918,247.076,180.34,247.287,180.762z"/>
	<path style="fill:#FFFFFF;" d="M250.397,186.195c3.833-5.692,2.777,7.631,2.382,9.454c-0.264-0.073-0.529-0.145-1.009-0.277
		c0.199,0.475,0.329,0.787,0.46,1.099c0.181-0.276,0.362-0.553,0.543-0.829c2.578,1.114-0.567,5.517-1.231,5.904
		c1.569,0.273,2.64,0.46,3.952,0.689c-0.265,0.313-0.454,0.537-0.778,0.92c0.693,0.169,1.295,0.315,1.941,0.472
		c0.106-1.827-1.421-1.883-1.304-2.63c5.686,0,7.676-0.291,7.319-6.196c3.249,0,6.243,0,9.353,0
		c1.443,11.924-8.548,19.006-19.444,14.032c-0.173,0.295-0.368,0.627-0.65,1.107c-2.865-1.968-12.797-9.325-6.312-13.308
		c-0.204-1.41-0.499-1.893-0.884-1.45c0.939,0.066,1.878,0.132,2.817,0.198c0-2.171,1.649-4.171,1.692-5.783
		c-0.976-0.801-1.149-1.363-0.249-2.455C250.102,187.818,250.569,187.503,250.397,186.195
		C250.743,185.681,250.317,187.673,250.397,186.195z M261.401,203.287c-0.814,0.048-1.365,0.08-2.277,0.134
		c0.45,0.762,0.724,1.226,1.162,1.968C260.728,204.554,260.997,204.048,261.401,203.287
		C260.586,203.335,260.997,204.048,261.401,203.287z M250.374,194.999c-1.197,0.879-1.197,0.879-0.247,2.063
		C249.838,196.323,249.921,195.636,250.374,194.999C249.177,195.878,250.236,195.308,250.374,194.999z M265.284,206.833
		c-0.255-1.03-0.662-1.898-1.932-1.633C264.053,205.792,264.668,206.313,265.284,206.833z M248.14,200.686
		c0.115-0.047,0.231-0.095,0.346-0.142c-0.153-0.477-0.369-0.923-0.646-1.339c-0.097,0.059-0.194,0.119-0.291,0.178
		C247.745,199.817,247.942,200.251,248.14,200.686C248.255,200.638,247.942,200.251,248.14,200.686z"/>
	<path style="fill:#FFFFFF;" d="M340.174,187.603c0.061,3.547,9.389,4.402,11.098,7.072c-1.254,0-2.509,0-3.843,0
		c-0.661,5.279,0.152,10.361-0.215,15.545c-2.039,0-6.93-1.169-8.474,0.009c-2.955-1.947-1.165-18.704-0.903-22.336
		C338.675,187.893,339.453,187.871,340.174,187.603z M340.779,198.806c0.655-0.406,1.239-0.732,1.146-1.701
		C340.81,197.33,340.528,197.841,340.779,198.806z M344.751,195.339c-0.031,0.816,0.225,1.275,1.289,0.966
		C345.464,195.874,345.107,195.606,344.751,195.339z"/>
	<path style="fill:#FFFFFF;" d="M96.88,300.544c1.247-3.9,27.041-1.492,31.095-1.493c4.728-0.002,29.829-2.78,31.701,1.189
		c0.722,1.532-26.279,1.773-29.135,1.78C126.03,302.03,98.543,304.717,96.88,300.544C97.248,299.391,97.423,301.906,96.88,300.544z"
		/>
	<path style="fill:#FFFFFF;" d="M193.864,248.545c-0.573-0.279-0.972-0.474-1.374-0.67c0.716-1.42,4.562-0.595,5.45-0.384
		c-3.051,1.512-4.208,4.159-6.258,6.331c1.668,2.253,4.791,8.684,8.151,9.084c-2.708,3.378-8.372-5.664-9.545-7.11
		c-2.797,2.021-2.009,5.338-0.333,7.565c-8.477,2.578-10.28-2.665-14.537-8.872c3.809-1.592,6.587-6.912-0.287-6.74
		c-2.225,2.498-1.506,14.756,1.639,15.735c-0.659,0.959-5.328,1.364-6.046-0.044c3.166-1.071,2.518-14.639-0.141-15.695
		c2.01-2.795,10.546-1.209,11.314,2.325c1.069,4.923-6.992,5.743,0.257,11.017c6.72,4.89,5.451-11.25,2.442-13.549
		c1.578-0.683,4.349-0.809,5.838,0.168c-2.875,1.827-1.84,4.804-1.84,8.031C190.464,253.21,192.381,251.104,193.864,248.545
		C193.29,248.265,192.381,251.104,193.864,248.545z"/>
	<path style="fill:#FFFFFF;" d="M270.277,300.071c-0.094-0.212-0.189-0.424-0.325-0.73c3.66-2.432,17.715-0.147,22.371-0.199
		c2.025-0.023,18.595-1.015,15.859,2.459c-1.266,1.608-8.041,0.058-9.802,0.073c-4.442,0.038-8.866,0.313-13.329,0.261
		c-5.965-0.069-10.057,0.01-15.152,0.01C269.975,301.734,270.777,300.346,270.277,300.071
		C270.183,299.859,270.988,300.462,270.277,300.071z"/>
	<path style="fill:#FFFFFF;" d="M65.26,252.598c-2.069,3.184-2.801,8.565-3.924,12.157c-4.25-5.022-2.519-12.682-7.411-17.283
		c1.63-0.674,3.314-0.26,5.104,0.12c-3.106,2.187,1.225,8.523,2.256,11.209c2.228-3.552,2.305-7.933,4.376-12.117
		c1.524,4.024,2.937,8.103,3.843,12.317c0.947,0.143,1.488-0.424,1.623-1.7c1.133,0.766-0.502,6.868-1.272,7.299
		C67.669,261.833,66.674,255.871,65.26,252.598C63.933,254.641,66.106,254.556,65.26,252.598z"/>
	<path style="fill:#FFFFFF;" d="M113.816,263.316c2.747-2.47,3.687-15.028-0.61-15.952c6.102-3.258,15.651,0.384,15.845,7.837
		C129.231,262.07,119.629,267.155,113.816,263.316C115.29,261.99,114.121,263.517,113.816,263.316z M117.972,247.621
		c-2.283,3.661-2.726,16.779,4.176,14.815c3.318-0.944,4.684-4.599,4.475-7.786C126.277,249.373,122.596,247.901,117.972,247.621
		C116.902,249.338,119.152,247.692,117.972,247.621z"/>
	<path style="fill:#FFFFFF;" d="M153.015,255.348c-0.144-4.686,3.59-8.852,8.654-8.727c11.319,0.279,11.851,17.619,0.127,17.682
		C157.157,264.327,152.761,260.371,153.015,255.348C152.871,250.662,152.761,260.371,153.015,255.348z M168.178,255.87
		c-0.029-0.001-0.058-0.001-0.088-0.002c0-5.739-5.422-11.435-10.696-6.305c-3.713,3.612-2.68,13.24,3.501,13.576
		C165.717,263.401,167.912,260.443,168.178,255.87C168.149,255.87,168.133,256.65,168.178,255.87z"/>
	<path style="fill:#FFFFFF;" d="M112.958,255.573c0.01,4.295-2.413,7.247-6.665,8.361c-7.311,1.914-13.66-6.211-10.022-12.895
		C100.216,243.791,114.615,246.713,112.958,255.573C112.968,259.867,113.453,252.926,112.958,255.573z M110.602,256.029
		c0.426-2.985-1.47-7.758-4.82-8.302c-9.302-1.51-11.302,14.188-2.666,15.422C108.111,263.864,110.052,260.215,110.602,256.029
		C110.86,254.223,110.491,256.878,110.602,256.029z"/>
	<path style="fill:#FFFFFF;" d="M325.816,250.609c0,1.09,0.558,8.92-0.307,9.236c-1.976-3.918,1.705-9.579-2.554-12.345
		c4.446-1.587,9.747,8.318,12.365,11.235c0.606-3.243,1.401-9.567-1.575-11.177c1.87-0.721,3.359-0.4,4.861-0.283
		c-0.113,1.14-1.779,2.955-2.059,5.115c-0.51,3.925,0.317,7.987,0.317,11.908C332.791,260.182,329.427,255.127,325.816,250.609
		C325.816,253.946,327.813,253.108,325.816,250.609z"/>
	<path style="fill:#FFFFFF;" d="M235.233,258.691c-0.986-0.148-1.854-0.278-2.721-0.408c1.804-0.844,3.595-0.872,5.695-0.599
		c-2.592,2.951,0.564,5.242-5.197,6.374c-4.403,0.865-9.105-2.092-10.331-6.383c-3.086-10.808,14.42-14.518,13.73-6.64
		c-3.183-1.833-1.931-3.803-6.174-3.273c-2.273,0.284-3.687,1.508-4.758,3.503c-2.758,5.138,0.794,11.81,6.525,12.143
		C234.829,263.573,235.324,260.689,235.233,258.691C234.247,258.543,235.26,259.29,235.233,258.691z"/>
	<path style="fill:#FFFFFF;" d="M138.918,255.184c-1.204-1.656,1.599-6.996,2.449-8.42c1.452,4.264,2.768,8.128,4.256,12.498
		c1.082-2.941,4.043-7.943,3.648-11.156c-0.565-0.167-0.964-0.285-1.364-0.403c1.596-0.667,3.119-0.803,5.142-0.163
		c-5.507,2.535-4.733,12.299-7.7,17.185c-1.824-3.989-2.681-8.092-4.642-12.227c-0.169,1.047-0.492,2.042-0.971,2.986
		C138.946,255.072,138.673,254.973,138.918,255.184z"/>
	<path style="fill:#FFFFFF;" d="M270.277,300.071c1.689,0.929-12.072,1.928-11.91,1.93c-2.685-0.032-5.02-1.083-7.302-1.231
		c-0.642-0.042-4.659,3.097-4.794-0.859c0.505-1.176,16.722-1.629,17.939,0.542c0.028-0.367,0.056-0.733,0.092-1.197
		C266.363,298.98,268.339,299.366,270.277,300.071C270.988,300.462,268.339,299.366,270.277,300.071z"/>
	<path style="fill:#FFFFFF;" d="M138.899,255.167c1.201,2.603-1.146,7.021-2.043,9.605c-2.03-3.351-3.246-16.113-7.809-16.965
		c1.762-0.994,3.609-0.811,5.574-0.239c-2.94,2.329,1.227,9.042,2.436,11.694C137.558,257.667,137.841,256.453,138.899,255.167z"/>
	<path style="fill:#FFFFFF;" d="M315.439,263.53c-1.107,0-2.215,0-3.349,0c0.14-2.045,1.552-8.445-0.306-10.016
		c-1.769-1.496-5.67,1.388-6.986-1.175c2.489,0,4.875,0,7.447,0c-0.147-1.737,0.721-3.447-1.382-4.655
		c1.624-0.959,3.156-0.265,5.068-0.444c-2.411,2.523-1.795,5.832-1.726,9.229C314.225,257.463,315.025,263.916,315.439,263.53
		C314.331,263.53,315.554,263.422,315.439,263.53z"/>
	<path style="fill:#FFFFFF;" d="M203.952,261.806c0.496,0.363,1.047,0.767,1.672,1.225c-0.768,1.275-4.403,0.898-5.466,0.337
		c2.274-2.008,4.072-13.835-0.076-15.678c2.597-0.787,3.479-0.805,5.399-0.184C202.504,250.541,204.183,257.966,203.952,261.806
		C204.447,262.169,204.015,260.757,203.952,261.806z"/>
	<path style="fill:#FFFFFF;" d="M87.82,263.317c-11.784,5.492-14.643-19.41-0.805-16.293
		C77.694,250.321,77.012,262.666,87.82,263.317C84.851,264.701,87.239,263.282,87.82,263.317z"/>
	<path style="fill:#FFFFFF;" d="M322.104,263.096c-1.557,0.773-2.941,0.846-4.431,0.218c2.409-3.167,2.062-13.525-0.86-15.835
		c1.927-0.637,3.586-0.265,5.787-0.292C319.502,248.918,318.995,261.63,322.104,263.096
		C320.547,263.869,321.172,262.656,322.104,263.096z"/>
	<path style="fill:#FFFFFF;" d="M294.361,258.962c-0.872-3.251-0.056-16.346-4.676-8.836c-1.149-1.317-0.088-2.287,0.319-3.454
		c4.371,0,10.01-2.012,10.01,3.568c-0.637-1.428-1.731-2.272-3.282-2.534C294.335,248.181,296.368,256.904,294.361,258.962z"/>
	<path style="fill:#FFFFFF;" d="M345.419,247.827c-6.102,3.186-4.985,12.459,0.778,15.189c0.033,0.634-0.128,1.128-0.902,0.829
		C336.91,260.601,339.094,244.911,345.419,247.827C341.911,249.659,343.936,247.143,345.419,247.827z"/>
	<path style="fill:#FFFFFF;" d="M304.742,262.941c-0.523,0.264-0.997,0.504-1.708,0.863c-0.797-4.885,1.266-12.846-2.623-16.238
		c1.833-0.926,3.548-0.298,5.722-0.098C302.758,249.264,303.252,260,304.742,262.941
		C304.22,263.205,304.435,262.335,304.742,262.941z"/>
	<path style="fill:#FFFFFF;" d="M88.093,263.269c6.25-3.856,5.059-9.426,1.941-15.035C97.825,248.234,95.56,266.293,88.093,263.269
		C88.855,262.799,88.656,263.497,88.093,263.269z"/>
	<path style="fill:#FFFFFF;" d="M216.403,257.531c-2.617,0.753-5.112-4.135-6.732-6.091c-0.305,0.356-0.501,0.586-0.733,0.856
		c-0.185-0.061-2.325-4.328-2.855-5.013C209.99,246.561,215.767,253.937,216.403,257.531z"/>
	<path style="fill:#FFFFFF;" d="M214.001,339.248c0.706-1.87,2.646-9.206-0.493-10.068c-3.859-1.059-3.345,5.374-2.215,6.988
		c-5.102-0.667-2.284-8.478,2.068-7.692C217.823,329.283,218.505,338.444,214.001,339.248z"/>
	<path style="fill:#FFFFFF;" d="M260.487,247.14c0.794,0.049,1.454,0.091,1.989,0.124c0.475,0.829-0.086,13.146-0.953,13.793
		c0.792,2.368,3.238,1.37,4.956,2.26c-1.985,0.536-5.736,0.525-7.793-0.054C262.852,261.349,260.895,251.617,260.487,247.14
		C261.281,247.19,260.597,248.341,260.487,247.14z"/>
	<path style="fill:#FFFFFF;" d="M276.364,263.254c-9.014-1.668-3.855-18.753,1.539-15.659c-1.435,1.029-4.44,6.066-5.848,5.916
		C273.911,256.24,274.805,260.446,276.364,263.254z"/>
	<path style="fill:#FFFFFF;" d="M287.74,257.066c-2.447-0.767-1.435-4.868-2.734-6.723c-1.584-2.261-3.635-2.366-5.915-3.471
		C283.804,246.377,291.369,252.043,287.74,257.066z"/>
	<path style="fill:#FFFFFF;" d="M221.989,336.027c6.914-8.896-6.764-6.525-2.201-2.336c-1.755,0.152-1.755,0.152-1.974-0.992
		C215.629,321.296,234.34,335.217,221.989,336.027C222.672,335.148,224.078,335.89,221.989,336.027z"/>
	<path style="fill:#FFFFFF;" d="M167.482,339.437c-1.056-0.984-2.056-1.917-3.24-3.02c1.08-1.116,2.098-2.167,3.153-3.258
		c1.053,1.055,2.033,2.038,3.046,3.054C169.878,337.619,168.857,338.617,167.482,339.437
		C166.427,338.453,168.857,338.617,167.482,339.437z"/>
	<path style="fill:#FFFFFF;" d="M236.074,336.306c1.209-1.125,2.16-2.009,3.08-2.865c1.299,1.009,2.405,1.869,3.574,2.777
		C239.607,339.444,239.413,339.312,236.074,336.306C237.283,335.181,236.989,337.13,236.074,336.306z"/>
	<path style="fill:#FFFFFF;" d="M195.109,336.941c-1.871,0.06-0.868-5.757-0.868-6.767c-1.37-0.114-1.37-0.114-2.371,0.999
		c-0.505-0.803-0.505-0.803-0.367-2.118c2.419-0.521,5.907-1.236,7.168,1.212c-0.964-0.169-1.535-0.268-2.054-0.359
		C194.754,330.752,195.826,335.422,195.109,336.941z"/>
	<path style="fill:#FFFFFF;" d="M188.52,339.279c1.564-3.081-6.776-9.253-2.51-10.209c-0.718,5.13,3.786,2.6,4.809,7.041
		C191.267,338.058,190.796,339.648,188.52,339.279z"/>
	<path style="fill:#FFFFFF;" d="M276.444,263.151c1.466-0.295,13.227-1.081,10.025-5.867c0.359,0.151,0.718,0.302,1.12,0.472
		c0.197-0.9,0.287,2.457-1.736,4.263C284.773,262.982,276.444,265.812,276.444,263.151
		C276.961,263.047,276.444,263.151,276.444,263.151z"/>
	<path style="fill:#FFFFFF;" d="M71.322,256.283c0.974-3.009,3.79-6.929,0.723-8.723c1.846-0.711,3.373-0.508,4.941-0.259
		C76.745,248.309,71.78,256.525,71.322,256.283C72.176,253.646,72.143,256.718,71.322,256.283z"/>
	<path style="fill:#FFFFFF;" d="M211.6,263.371c-2.036,0.498-3.565,0.496-5.256,0.04c2.871-2.791,1.84-6.721,1.84-10.55
		C210.385,253.17,208.047,261.537,211.6,263.371C209.564,263.869,209.513,262.294,211.6,263.371z"/>
	<path style="fill:#FFFFFF;" d="M216.387,257.546c0.73,0.429,1.859,0.456,1.716,2.148c0.996-1.523,0.383-2.947,1.531-4.293
		c0.167,2.939,0.249,5.845,0.249,8.789C218.262,262.037,217.054,260.077,216.387,257.546z"/>
	<path style="fill:#FFFFFF;" d="M352.027,262.961c-0.138-1.245,0.733-2.361,0.075-3.549c-0.601-1.084-2.315-0.484-2.788-1.681
		c1.092-0.6,4.526-0.229,5.402-0.229C354.651,260.064,354.531,261.962,352.027,262.961
		C351.857,261.426,352.437,262.797,352.027,262.961z"/>
	<path style="fill:#FFFFFF;" d="M57.616,176.281c-3.6-0.017-1.729-5.378,0.593-6.153C59.52,173.128,57.729,173.126,57.616,176.281
		C57.307,176.279,57.672,174.713,57.616,176.281z"/>
	<path style="fill:#FFFFFF;" d="M345.63,247.071c3.16-1.201,9.669,0.226,7.791,4.837c-1.422-1.511-1.968-3.076-3.91-4.063
		C348.239,247.198,346.867,248.037,345.63,247.071C346.183,246.861,346.068,247.413,345.63,247.071z"/>
	<path style="fill:#FFFFFF;" d="M294.344,258.95c1.389,1.582,1.179,3.467,3.352,4.226c-2.025,0.651-3.727,0.684-5.805,0.006
		C293.51,262.437,294.197,260.508,294.344,258.95z"/>
	<path style="fill:#FFFFFF;" d="M247.955,247.205c0.043,1.488-2.666,4.872-3.324,6.522c-0.537-0.491-0.943-0.862-1.313-1.199
		C244.402,249.57,246.179,249.287,247.955,247.205C248.005,248.958,246.971,248.358,247.955,247.205z"/>
	<path style="fill:#FFFFFF;" d="M245.69,260.845c-0.345,0.041-0.902,0.237-1.004,0.098c-1.238-1.681-1.805-3.562-1.583-6.221
		c0.653,0.998,1.017,1.554,1.381,2.109c0.165-0.147,0.332-0.296,0.508-0.453C245.625,257.439,245.336,259.549,245.69,260.845z"/>
	<path style="fill:#FFFFFF;" d="M219.262,252.618c-0.42-2.877,0.167-3.906-2.677-4.978c1.717-0.97,2.989-0.191,4.542-0.111
		C220.292,248.422,219.456,252.568,219.262,252.618C219.059,251.232,219.427,252.575,219.262,252.618z"/>
	<path style="fill:#FFFFFF;" d="M323.298,263.373c1.85-0.953,2.005-1.116,2.12-2.798c0.377,1.484,1.329,2.371,2.857,2.661
		C326.361,263.998,324.841,263.727,323.298,263.373C325.147,262.42,324.841,263.727,323.298,263.373z"/>
	<path style="fill:#FFFFFF;" d="M226.799,328.908c1.725-0.701,3.457-0.713,5.196-0.036
		C230.83,329.668,228.137,330.236,226.799,328.908C228.212,328.209,226.947,329.054,226.799,328.908z"/>
	<path style="fill:#FFFFFF;" d="M254.494,247.513c1.166,0.395,4.23,3.132,2.209,4.3
		C256.031,250.504,255.365,249.207,254.494,247.513C256.258,248.11,255.365,249.207,254.494,247.513z"/>
	<path style="fill:#FFFFFF;" d="M178.037,329.748c0.419-2.679,4.229-0.372,4.683,0.852
		C181.311,329.471,179.003,330.611,178.037,329.748C178.115,329.246,178.097,329.801,178.037,329.748z"/>
	<path style="fill:#FFFFFF;" d="M190.162,331.073c-0.982-0.744-1.844-1.398-2.803-2.124
		C188.3,326.975,190.475,329.662,190.162,331.073C189.18,330.329,190.525,329.434,190.162,331.073z"/>
	<path style="fill:#FFFFFF;" d="M256.605,262.316c-1.006,1.434-2.731,1.118-4.085,1.712
		C253.448,262.595,255.084,262.075,256.605,262.316z"/>
	<path style="fill:#FFFFFF;" d="M7.092,222.57c-0.635,0.95-1.518,1.073-2.649,0.368C6.686,220.396,5.301,222.57,7.092,222.57z"/>
	<path style="fill:#FFFFFF;" d="M270.069,260.463c0.767,0.735,0.686,1.33-0.243,1.784c0.895,0.419,1.082,0.867,0.56,1.344
		C268.625,263.57,269.484,261.309,270.069,260.463C270.26,260.85,269.251,261.648,270.069,260.463z"/>
	<path style="fill:#FFFFFF;" d="M292.46,230.618c1.12-0.019,1.882,0.874,1.551,1.827c-0.074,0.212-0.977,0.077-1.07,0.059
		C292.781,231.876,292.62,231.247,292.46,230.618C293.58,230.6,292.62,231.247,292.46,230.618z"/>
	<path style="fill:#FFFFFF;" d="M343.122,141.86c-0.206-0.209-0.412-0.418-0.618-0.627c1.289-0.852,2.108-0.677,2.458,0.525
		C344.359,142.321,343.745,142.355,343.122,141.86C342.916,141.651,343.405,141.976,343.122,141.86z"/>
	<path style="fill:#FFFFFF;" d="M340.194,185.776c-0.083,1.107-2.706,1.375-2.291-0.216
		C338.686,185.459,339.485,185.074,340.194,185.776C340.185,185.896,339.485,185.074,340.194,185.776z"/>
	<path style="fill:#FFFFFF;" d="M8.056,230.602c1.133,0.085,1.492,1.215,1.34,2.119C8.18,232.015,8.18,232.015,8.056,230.602
		C8.797,230.658,8.18,232.015,8.056,230.602z"/>
	<path style="fill:#FFFFFF;" d="M212,336.93c0.635-1.223,1.47-1.428,2.549-1.854C214.137,336.487,213.276,336.653,212,336.93z"/>
	<path style="fill:#FFFFFF;" d="M8.971,223.52c-0.375,0.432-0.712,0.972-1.405,0.486c0.018-1.339-0.144-1.814-0.485-1.423
		C7.94,222.359,8.57,222.671,8.971,223.52C8.596,223.951,8.669,223.211,8.971,223.52z"/>
	<path style="fill:#FFFFFF;" d="M265.532,232.026c1.112-1.266,1.425-0.418,1.653,0.952
		C266.502,232.868,265.951,232.55,265.532,232.026C265.722,231.809,265.71,232.195,265.532,232.026z"/>
	<path style="fill:#FFFFFF;" d="M87.629,246.727c0.635,0.177,1.27,0.355,1.928,0.539C88.704,248.185,88.704,248.185,87.629,246.727z
		"/>
	<path style="fill:#FFFFFF;" d="M250.113,264.101c-0.693-0.415-1.437-0.698-2.231-0.849c1.222-0.98,1.784-0.059,2.473,0.302
		C250.274,263.737,250.194,263.919,250.113,264.101C249.753,263.924,250.194,263.919,250.113,264.101z"/>
	<path style="fill:#FFFFFF;" d="M351.552,263.138c-0.774,0.935-1.45,1.012-2.253,0.25
		C350.013,263.129,350.57,262.361,351.552,263.138z"/>
	<path style="fill:#FFFFFF;" d="M264.604,181.005c0.157,0.166,0.314,0.332,0.47,0.498c-0.568,0.955-1.408,0.152-2.11,0.367
		C263.377,181.273,263.914,180.987,264.604,181.005C264.761,181.171,263.914,180.987,264.604,181.005z"/>
	<path style="fill:#FFFFFF;" d="M47.333,192.857c-0.28-0.552-0.56-1.104-0.84-1.656c0.256-0.092,0.512-0.185,0.768-0.277
		C47.497,191.561,48.146,192.181,47.333,192.857C47.053,192.305,48.146,192.181,47.333,192.857z"/>
	<path style="fill:#FFFFFF;" d="M293.875,184.298c-0.172,1.154-0.725,1.484-1.656,0.988
		C293.237,184.831,292.441,183.874,293.875,184.298z"/>
	<path style="fill:#FFFFFF;" d="M377.053,233.479c-0.836-0.528-1.549-1.199-2.137-2.013c1.525,0.319,1.84,1.145,2.468,1.636
		C377.273,233.227,377.163,233.353,377.053,233.479C376.813,233.311,377.163,233.353,377.053,233.479z"/>
	<path style="fill:#FFFFFF;" d="M34.079,231.092c0.868,0.509-0.042,0.94-0.062,1.41c-0.475-0.155-0.95-0.31-1.426-0.464
		C33.046,230.946,33.356,231.086,34.079,231.092C34.947,231.601,33.899,231.091,34.079,231.092z"/>
	<path style="fill:#FFFFFF;" d="M37.737,224.041c-0.291-0.685-0.582-1.371-0.874-2.056C37.8,222.372,38.276,222.974,37.737,224.041z
		"/>
	<path style="fill:#FFFFFF;" d="M256.503,262.214c0.383-0.591,0.766-1.181,1.296-1.999
		C258.185,261.553,257.551,262.199,256.503,262.214z"/>
	<path style="fill:#FFFFFF;" d="M307.119,189.491c0.311,0.958,1.184,1.865-0.009,2.377
		C306.933,191.279,306.229,189.929,307.119,189.491C307.235,189.849,306.482,189.805,307.119,189.491z"/>
	<path style="fill:#FFFFFF;" d="M226.799,328.908c0.653,0.409,0.723,1.004,0.208,1.784
		C226.347,330.066,225.829,329.482,226.799,328.908C226.947,329.054,225.829,329.482,226.799,328.908z"/>
	<path style="fill:#FFFFFF;" d="M8.971,223.52c-1.026-0.465-1.179-1.061-0.46-1.788C9.013,222.428,8.998,222.709,8.971,223.52
		C8.669,223.211,8.976,223.368,8.971,223.52z"/>
	<path style="fill:#FFFFFF;" d="M369.629,229.318c0.485,0.143,0.868,0.43,1.15,0.863
		C370.122,230.681,369.448,230.107,369.629,229.318C369.893,229.434,369.563,229.605,369.629,229.318z"/>
	<path style="fill:#FFFFFF;" d="M265.532,232.026c0.632,0.305,0.735,0.759,0.309,1.365c-0.441-0.407-0.787-0.725-1.229-1.132
		c0.355-0.279,0.634-0.5,0.913-0.72C265.528,231.701,265.53,231.863,265.532,232.026C265.71,232.195,265.53,231.863,265.532,232.026
		z"/>
	<path style="fill:#FFFFFF;" d="M253.746,248.11c-0.457-0.35-0.913-0.699-1.572-1.204c1.169-0.341,1.381,0.48,1.868,0.805
		C253.944,247.844,253.845,247.977,253.746,248.11C253.29,247.76,253.845,247.977,253.746,248.11z"/>
	<path style="fill:#FFFFFF;" d="M158.649,167.922c-0.583-0.623-0.882-0.942-1.29-1.379
		C158.508,166.178,158.861,166.488,158.649,167.922z"/>
	<path style="fill:#FFFFFF;" d="M10.836,232.137c0.149,0.321,0.298,0.642,0.446,0.963c-0.195,0.077-0.39,0.153-0.585,0.23
		c-0.115-0.33-0.229-0.66-0.344-0.99C10.514,232.272,10.675,232.205,10.836,232.137C10.985,232.458,10.675,232.205,10.836,232.137z"
		/>
	<path style="fill:#FFFFFF;" d="M60.343,169.152c-0.753,0.583-1.156,0.543-1.211-0.118c0.374-0.096,0.748-0.192,1.121-0.287
		C60.283,168.881,60.313,169.017,60.343,169.152C59.981,169.252,60.313,169.017,60.343,169.152z"/>
	<path style="fill:#FFFFFF;" d="M245.686,260.849c0.87-0.022,1.11,0.38,0.679,1.593
		C246.325,260.969,246.098,260.438,245.686,260.849z"/>
	<path style="fill:#FFFFFF;" d="M268.576,262.722c-0.482,0.582-0.968,1.194-1.545,0.154
		C267.62,262.817,268.098,262.769,268.576,262.722z"/>
	<path style="fill:#FFFFFF;" d="M48.194,222.106c1.84-1.296,0.55,0.938,1.425,0.938C48.337,221.948,47.862,221.636,48.194,222.106z"
		/>
	<path style="fill:#FFFFFF;" d="M13.238,222.587c-0.479-0.149-0.958-0.297-1.437-0.446c0.206-0.295,0.412-0.59,0.818-1.17
		C12.896,221.693,13.067,222.14,13.238,222.587C12.759,222.438,13.067,222.14,13.238,222.587z"/>
	<path style="fill:#FFFFFF;" d="M68.503,209.811c-0.877,0.717-1.227,0.481-1.412-0.463
		C68.335,210.083,68.806,210.237,68.503,209.811z"/>
	<path style="fill:#FFFFFF;" d="M21.219,186.115c0.851-0.177,1.117-1.132,1.887-1.417c0.334,0.513,0.669,1.026,1.003,1.539
		C23.238,186.962,21.975,186.879,21.219,186.115C22.07,185.939,21.41,186.308,21.219,186.115z"/>
	<path style="fill:#FFFFFF;" d="M247.551,194.296c-0.509,0.111-1.019,0.223-1.462,0.319c-0.138-0.607-0.275-1.21-0.412-1.814
		C246.786,192.755,247.41,193.254,247.551,194.296C247.041,194.407,247.395,193.942,247.551,194.296z"/>
	<path style="fill:#FFFFFF;" d="M275.444,225.419c0.001-0.321,0.001-0.642,0.002-0.963c0.788,0.402,1.474,0.881,1.431,1.907
		C276.4,226.049,275.922,225.734,275.444,225.419C275.445,225.098,275.922,225.734,275.444,225.419z"/>
	<path style="fill:#FFFFFF;" d="M18.438,224.459c-0.277,0.746-0.941,0.373-1.433,0.496
		C17.274,223.956,17.274,223.956,18.438,224.459z"/>
</g>
<g>
	<path style="fill:#FFFFFF;" d="M104.359,78.981c3.639-1.876,20.176,18.066,23.043,20.932c3.344,3.342,23.058,19.126,21.575,23.257
		c-0.573,1.594-19.835-17.328-21.86-19.343C123.92,100.644,102.583,83.107,104.359,78.981
		C105.434,78.426,103.779,80.328,104.359,78.981z"/>
	<path style="fill:#FFFFFF;" d="M77.355,90.4c3.011-2.774,24.245,12.068,27.77,14.07c4.111,2.335,27.305,12.325,26.97,16.701
		c-0.129,1.689-23.721-11.447-26.207-12.852C101.961,106.099,76.738,94.849,77.355,90.4C78.245,89.58,77.154,91.852,77.355,90.4z"/>
	<path style="fill:#FFFFFF;" d="M76.844,118.991c1.996-3.575,26.799,3.905,30.773,4.708c4.634,0.937,29.787,3.195,30.834,7.457
		c0.404,1.645-26.108-3.478-28.909-4.038C105.119,126.234,77.645,123.412,76.844,118.991
		C77.433,117.935,77.105,120.434,76.844,118.991z"/>
</g>
<g>
	<path style="fill:#FFFFFF;" d="M297.342,78.981c-3.639-1.876-20.176,18.066-23.043,20.932
		c-3.344,3.342-23.058,19.126-21.575,23.257c0.573,1.594,19.835-17.328,21.86-19.343C277.781,100.644,299.117,83.107,297.342,78.981
		C296.267,78.426,297.921,80.328,297.342,78.981z"/>
	<path style="fill:#FFFFFF;" d="M324.345,90.4c-3.011-2.774-24.245,12.068-27.77,14.07c-4.111,2.335-27.305,12.325-26.97,16.701
		c0.129,1.689,23.721-11.447,26.207-12.852C299.739,106.099,324.963,94.849,324.345,90.4C323.456,89.58,324.547,91.852,324.345,90.4
		z"/>
	<path style="fill:#FFFFFF;" d="M324.857,118.991c-1.996-3.575-26.799,3.905-30.773,4.708c-4.634,0.937-29.787,3.195-30.834,7.457
		c-0.404,1.645,26.108-3.478,28.909-4.038C296.581,126.234,324.055,123.412,324.857,118.991
		C324.267,117.935,324.595,120.434,324.857,118.991z"/>
</g>
<g>
	<g id="XMLID_14_">
		<g>
			<path style="fill:#FFFFFF;" d="M261.253,52.876c-0.057,0-0.113,0-0.175,0c-0.836-0.005-1.626-0.014-2.301-0.057
				c-0.907-0.057-1.862-0.132-2.783-0.203c-1.144-0.09-2.311-0.175-3.468-0.236c-4.891-24.837-26.831-43.625-53.075-43.625
				c-16.307,0-30.956,7.258-40.879,18.708c-3.057-0.766-6.152-1.479-9.257-2.06C160.745,10.145,178.961,0.25,199.45,0.25
				C230.576,0.25,256.462,23.083,261.253,52.876z"/>
			<path style="fill:#FFFFFF;" d="M254.586,57.687c0.161,0.373,0.232,0.534,0.392,0.534c0.123,0,0.298-0.099,0.614-0.274
				C255.21,57.847,254.945,57.777,254.586,57.687z M255.507,58.759c-1.64,0.387-5.222,1.748-7.688,1.748
				c-0.827,0-1.522-0.161-1.985-0.553c0.024-0.005-0.047-0.113-0.071-0.113c-0.009,0-0.009,0.019,0.005,0.066
				c-0.061-0.213-0.123-0.421-0.194-0.671l0.373-0.704c0.09,0.057,0.184,0.118,0.288,0.189c0.005-0.024,0.009-0.047,0.014-0.071
				c0.132-0.586-0.061-0.766-0.402-0.766l0.614-1.158c0.586-0.269,0.77-0.662,0.789-1.205l0.033-0.576
				c1.347,0.08,2.689,0.151,4.04,0.203c2.363,0.09,4.877,0.35,7.277,0.501c2.571,0.161,6.129-0.151,8.515,0.695
				C263.257,57.224,259.344,57.857,255.507,58.759z M247.228,58.358h0.005l0.482-0.51c0-0.005-0.005-0.005-0.005-0.005
				L247.228,58.358z M247.186,58.358h0.005c0.005,0,0.014,0,0.019,0l0.491-0.525c-0.009-0.009-0.014-0.014-0.019-0.019
				L247.186,58.358z"/>
			<path style="fill:#FFFFFF;" d="M155.547,94.422c9.829,13.637,25.848,22.531,43.903,22.531c29.831,0,54.096-24.269,54.096-54.096
				c0-0.194-0.005-0.383-0.005-0.576c0.364-0.104,0.718-0.213,1.049-0.312c0.619-0.184,1.2-0.359,1.569-0.449
				c1.914-0.449,3.903-0.841,5.836-1.224c0.038,0.851,0.057,1.701,0.057,2.561c0,34.519-28.083,62.602-62.602,62.602
				s-62.602-28.083-62.602-62.602c0-3.053,0.222-6.053,0.647-8.992l1.649,0.633l6.53,2.486c-0.213,1.933-0.321,3.889-0.321,5.874
				C145.354,74.627,149.135,85.533,155.547,94.422z"/>
			<path style="fill:#FFFFFF;" d="M177.836,65.465c-0.175,0.439-0.175,0.439,0.312,0.624
				C178.03,65.847,177.931,65.654,177.836,65.465z M216.112,86.294c0.08,0-0.076-0.288-0.161-0.288
				c-0.028,0-0.052,0.033-0.057,0.104c0-0.449-0.274-0.671-0.704-0.879c0.052,0.137,0.463,1.909,0.86,2.051
				c0.359-0.586,0.378-0.619-0.08-1.073C216.041,86.271,216.088,86.294,216.112,86.294z M219.75,90.675
				c0.165,0,0.378-0.043,0.695-0.113c-0.619-0.198-1.125-0.369-1.635-0.534C219.273,90.509,219.434,90.675,219.75,90.675z
				 M181.735,66.268c0.194,0.099,0.397,0.189,0.591,0.284c0.014,0.005,0.024,0.014,0.038,0.019c0-0.005,0.005-0.005,0.005-0.009
				c0.033-0.052,0.057-0.109,0.09-0.165c-0.184-0.203-0.406-0.307-0.671-0.307C181.768,66.15,181.749,66.211,181.735,66.268z
				 M183.351,89.337c0.302,0,0.359-0.236,0.269-0.685c-0.222,0.246-0.387,0.425-0.581,0.633
				C183.167,89.318,183.266,89.337,183.351,89.337z M169.922,61.448c-0.033,0.019-0.057,0.033-0.076,0.047
				c-0.312,0.184-0.558,0.331-0.836,0.491c0.109,0.128,0.208,0.246,0.482,0.567C169.78,62.233,169.922,61.864,169.922,61.448z
				 M179.575,66.041c-0.411,0.354-0.194,0.761,0.647,1.224c0.208-0.378,0.345-0.619,0.534-0.959c-0.151,0.057-0.298,0.09-0.435,0.09
				C180.048,66.396,179.798,66.278,179.575,66.041z M167.956,60.914c-0.137-0.08-0.241-0.17-0.331-0.26
				c-0.047-0.047-0.09-0.095-0.132-0.142c-0.043-0.043-0.085-0.09-0.128-0.132c-0.165-0.17-0.35-0.321-0.68-0.383h-0.005
				c0,0.491-0.213,1.068,0.156,1.375c0.137,0.109,0.345,0.18,0.671,0.203h0.005c0.146-0.194,0.317-0.411,0.491-0.628
				c0-0.005,0-0.005,0-0.005c0.014,0.009,0.024,0.014,0.038,0.024c0.038,0.095,0.293,0.194,0.501,0.293
				c0.014,0.009,0.028,0.019,0.047,0.024c0.024,0.019,0.052,0.033,0.076,0.047c0-0.005,0-0.005,0-0.009
				c0.005,0.005,0.014,0.005,0.019,0.009c0.175-0.605-0.232-0.647-0.548-0.78v0.005c-0.005,0-0.005-0.005-0.009-0.005
				c-0.043,0.052-0.071,0.104-0.09,0.161c-0.005,0.005-0.005,0.005-0.005,0.009c-0.014,0.024-0.019,0.047-0.019,0.076
				c-0.009,0.024-0.014,0.047-0.009,0.071c-0.005,0.005-0.005,0.009,0,0.014c-0.005,0.009-0.005,0.024-0.005,0.038
				c-0.009-0.024-0.038-0.038-0.052-0.038S167.927,60.891,167.956,60.914z M207.238,79.182c-0.397-0.118-0.662-0.194-1.106-0.326
				c0.222,0.387,0.34,0.586,0.496,0.86C206.831,79.542,206.968,79.419,207.238,79.182z M171.41,62.176
				c-0.43,0-0.794,0.109-1.054,0.359c0.217,0.723,1.914,1.049,3.005,1.049c0.435,0,0.77-0.052,0.879-0.151
				c-0.104,0.095-0.047,0.246-0.005,0.246c0.019,0,0.033-0.043,0.024-0.151c0.09,0.425,0.18,0.865,0.284,1.361
				c0.165-0.18,0.298-0.25,0.416-0.25c0.383,0,0.591,0.751,1.191,0.751c0.085,0,0.175-0.014,0.279-0.047
				C176.168,64.151,173.234,62.176,171.41,62.176z M169.799,86.063c0.246-0.317,0.184-0.553-0.18-0.709
				C169.416,85.703,169.477,85.94,169.799,86.063z M184.65,36.933c3.393,0.69,6.823,0.34,10.193,1.266
				c3.289,0.907,6.351,2.509,8.921,4.758c2.83,2.481,3.686,5.76,5.973,8.34c1.654,1.867,4.806,1.46,7.504,1.621
				c4.243,0.25,8.482,0.496,12.721,0.822c-0.024,0.392-0.047,0.737-0.09,1.342c0.572-1.044,1.781-1.351,3.171-1.351
				c1.848,0,4.007,0.543,5.392,0.628c2.953,0.18,5.897,0.411,8.851,0.586l-0.033,0.576c-0.019,0-0.043,0-0.061,0
				c-0.912,0-0.628,0.662-0.728,1.205l-0.614,1.158c-0.194,0-0.43,0.057-0.685,0.128c0.279,0.189,0.51,0.34,0.784,0.52l-0.373,0.704
				c-0.581,0.416-0.836,1.285-1.304,1.63c-1.044,0.766-2.599,0.775-3.932,1.058c-5.184,1.101-10.353,2.287-15.542,3.374
				c-4.149,0.869-9.692,1.044-13.515,2.826c-1.885,0.874-1.999,1.881-3.081,3.691c-1.035,1.725-2.812,3.09-3.738,4.82
				c5.793,3.152,11.672,6.143,17.503,9.219c0.671,0.354,8.789,4.333,8.534,5.255c-1.517,0.019-3.086,0.028-4.607,0.028
				c-1.985,0-3.898-0.014-5.519-0.019c-1.654-0.009-3.308-0.009-4.962-0.009c-4.721,0-9.437,0.024-14.157,0.024
				c-0.803,0-1.611-0.005-2.415-0.005c-2.788-0.005-5.571-0.009-8.35-0.009c-9.366,0-18.703,0.024-28.102,0.024
				c4.343-4.65,8.799-8.402,13.122-12.763c-2.372-1.98-5.165-6.875-7.546-7.707c-1.191-0.416-2.689-0.553-4.295-0.553
				c-3.218,0-6.88,0.553-9.427,0.553c2.712-3.539,5.316-6.937,7.976-10.41c-7.315-2.793-14.587-5.566-22.063-8.416
				c6.512-3.284,13.855-4.669,20.432-7.792c-4.38-5.354-8.69-10.627-13.179-16.118c8.199,1.413,16.317,3.903,24.402,5.869
				C176.079,34.844,180.346,36.059,184.65,36.933z M191.318,47.773c1.205,2.495,1.134,3.119,3.922,3.407
				c3.005,0.312,6.03,0.761,9.054,0.761c0.118-1.399-13.259-7.891-15.244-9.002c-0.028-0.014-0.057-0.028-0.085-0.047
				C189.749,44.517,190.534,46.147,191.318,47.773z M242.38,58.296c0.198,0,0.118-0.142-0.293-0.331
				c-0.005-0.009-0.014-0.009-0.024-0.014c-0.005-0.005-0.019-0.009-0.028-0.014c0,0.005-0.005,0.014-0.005,0.019
				c-0.033,0.08-0.066,0.161-0.094,0.241C242.139,58.263,242.286,58.296,242.38,58.296z M162.668,63.319
				c-0.194-0.08-0.321-0.132-0.421-0.132c-0.17,0-0.265,0.161-0.515,0.614C162.073,63.726,162.446,63.731,162.668,63.319z"/>
			<path style="fill:#FFFFFF;" d="M145.86,30.525l5.774,7.055c-1.366,2.571-2.528,5.255-3.468,8.047
				c-3.109,1.04-6.266,2.164-9.285,3.686l-0.619,0.312C139.741,42.778,142.34,36.342,145.86,30.525z"/>
		</g>
		<g>
			
				<line style="fill:none;stroke:#000000;stroke-width:0;stroke-linecap:round;stroke-linejoin:round;" x1="168.003" y1="60.943" x2="168.003" y2="60.947"/>
		</g>
	</g>
</g>
</svg>
